SplineFontDB: 3.0
FontName: Joshski
FullName: Joshski
FamilyName: Joshski
Weight: Medium
Copyright: Josh Chisholm 2013
UComments: "2013-5-11: Created." 
Version: 001.000
ItalicAngle: 0
UnderlinePosition: -100
UnderlineWidth: 50
Ascent: 800
Descent: 200
LayerCount: 2
Layer: 0 0 "Back"  1
Layer: 1 0 "Fore"  0
XUID: [1021 781 879272801 10044023]
FSType: 0
OS2Version: 0
OS2_WeightWidthSlopeOnly: 0
OS2_UseTypoMetrics: 1
CreationTime: 1368309994
ModificationTime: 1368365370
OS2TypoAscent: 0
OS2TypoAOffset: 1
OS2TypoDescent: 0
OS2TypoDOffset: 1
OS2TypoLinegap: 90
OS2WinAscent: 0
OS2WinAOffset: 1
OS2WinDescent: 0
OS2WinDOffset: 1
HheadAscent: 0
HheadAOffset: 1
HheadDescent: 0
HheadDOffset: 1
MarkAttachClasses: 1
DEI: 91125
Encoding: ISO8859-1
UnicodeInterp: none
NameList: Adobe Glyph List
DisplaySize: -72
AntiAlias: 1
FitToEm: 1
WinInfo: 88 11 6
BeginPrivate: 0
EndPrivate
BeginChars: 256 63

StartChar: A
Encoding: 65 65 0
Width: 700
VWidth: 0
Flags: HW
LayerCount: 2
Fore
SplineSet
333.0390625 771.907226562 m 1
 333.0390625 771.905273438 l 1
 335.950195312 771.905273438 339.009765625 771.830078125 342.18359375 771.724609375 c 0
 353.341796875 771.356445312 364.98828125 768.489257812 368.155273438 765.323242188 c 0
 371.321289062 762.157226562 371.684570312 763.961914062 376.020507812 759.8359375 c 0
 380.791992188 755.291992188 382.837890625 755.935546875 386.810546875 750.325195312 c 0
 388.76953125 747.55859375 393.228515625 741.44140625 405.100585938 711.916992188 c 0
 416.97265625 682.391601562 423.53515625 672.548828125 429.42578125 656.681640625 c 0
 435.315429688 640.814453125 453.397460938 592.228515625 469.6640625 548.771484375 c 0
 485.928710938 505.315429688 502.612304688 459.224609375 506.608398438 446.348632812 c 0
 515.588867188 417.419921875 517.365234375 416.21875 554.893554688 414.890625 c 0
 578.70703125 414.047851562 588.091796875 410.8515625 598.423828125 399.709960938 c 0
 618.5546875 378 615.234375 364.788085938 585.254882812 347.21875 c 0
 570.76953125 338.729492188 558.91796875 329.28515625 558.91796875 326.184570312 c 0
 558.91796875 323.086914062 565.581054688 306.76953125 585.254882812 256.318359375 c 0
 604.927734375 205.864257812 611.352539062 192.114257812 622.931640625 170.35546875 c 0
 634.512695312 148.59765625 639.125 138.5390625 642.501953125 134.325195312 c 0
 651.379882812 123.247070312 652.965820312 98.1923828125 645.611328125 84.02734375 c 0
 637.5 68.404296875 624.840820312 56.9228515625 600.801757812 43.4248046875 c 0
 581.745117188 32.7236328125 581.647460938 32.7421875 570.440429688 46.3515625 c 0
 564.240234375 53.8798828125 556.526367188 63.314453125 553.248046875 67.201171875 c 0
 549.96875 71.0888671875 547.212890625 77.6728515625 547.212890625 81.8330078125 c 0
 547.205078125 91.2548828125 527.80078125 142.97265625 522.88671875 159.564453125 c 0
 517.97265625 176.15625 508.596679688 202.700195312 497.09765625 226.87109375 c 0
 465.157226562 294.015625 461.064453125 300.197265625 449.543945312 298.383789062 c 0
 433.051757812 295.791015625 340.998046875 266.998046875 269.654296875 240.887695312 c 0
 245.809570312 232.041992188 192.87109375 225.625 174.83203125 170.5390625 c 1
 161.884765625 117.340820312 155.2890625 60.2880859375 146.665039062 35.5595703125 c 1
 143.310546875 22.244140625 128.477539062 9.162109375 107.525390625 0.2607421875 c 0
 98.005859375 -3.32421875 90.3798828125 -4.564453125 77.5302734375 9.22265625 c 0
 56.1455078125 32.16796875 49.7294921875 47.5595703125 49.7294921875 75.98046875 c 0
 49.7294921875 108.87109375 77.2001953125 216.89453125 108.2578125 305.883789062 c 0
 121.73828125 344.51171875 133.9140625 381.383789062 135.143554688 387.821289062 c 0
 136.37109375 394.259765625 142.291992188 410.0625 148.311523438 422.938476562 c 0
 154.331054688 435.814453125 167.685546875 472.686523438 178.124023438 504.875976562 c 0
 188.5625 537.06640625 208.500976562 591.057617188 222.385742188 624.857421875 c 0
 236.268554688 658.657226562 252.297851562 698.80078125 257.8671875 714.111328125 c 0
 274.317382812 759.333984375 289.365234375 771.913085938 333.0390625 771.907226562 c 1
345.110351562 582.424804688 m 0
 342.576171875 582.126953125 340.560546875 579.016601562 338.891601562 573.646484375 c 0
 334.278320312 558.797851562 274.361328125 428.639648438 254.208984375 389.650390625 c 0
 244.760742188 371.369140625 237.016601562 355.181640625 237.017578125 353.620117188 c 0
 237.016601562 352.057617188 258.744140625 358.475585938 285.302734375 367.885742188 c 0
 311.858398438 377.295898438 349.592773438 387.887695312 369.069335938 391.296875 c 0
 417.587890625 399.7890625 419.819335938 401.634765625 411.501953125 426.23046875 c 0
 404.606445312 446.618164062 387.374023438 488.534179688 370.349609375 536.8828125 c 0
 358.646484375 570.124023438 350.684570312 583.081054688 345.110351562 582.424804688 c 0
EndSplineSet
Validated: 33
EndChar

StartChar: B
Encoding: 66 66 1
Width: 730
VWidth: 0
Flags: HW
LayerCount: 2
Fore
SplineSet
377.262695312 767.9296875 m 1
 377.264648438 767.927734375 l 1
 395.27734375 768.303710938 411.340820312 766.510742188 425.635742188 765.040039062 c 0
 484.69921875 758.971679688 523.419921875 737.342773438 559.739257812 689.776367188 c 0
 583.358398438 658.841796875 590.483398438 616.607421875 578.509765625 579.13671875 c 0
 567.986328125 546.202148438 542.52734375 493.609375 502.0703125 459.21875 c 0
 485.151367188 443.709960938 470.5546875 435.147460938 468.73046875 433.991210938 c 0
 455.795898438 425.787109375 485.479492188 427.682617188 504.240234375 425.388671875 c 0
 596.272460938 414.137695312 613.224609375 396.428710938 647.68359375 373.060546875 c 0
 681.70703125 349.987304688 691.272460938 260.486328125 681.30859375 226.741210938 c 0
 672.142578125 195.697265625 648.114257812 169.30859375 610.094726562 150.293945312 c 0
 594.37890625 142.431640625 579.483398438 132.575195312 542.412109375 114.015625 c 0
 505.340820312 95.45703125 470.412109375 82.48828125 447.474609375 75.5712890625 c 0
 424.537109375 68.6552734375 404.272460938 60.421875 313.551757812 35.86328125 c 0
 222.830078125 11.306640625 196.005859375 5.921875 180.170898438 1.931640625 c 0
 172.229492188 -0.0693359375 159.234375 -2.443359375 151.291992188 -3.3017578125 c 0
 143.350585938 -4.1611328125 126.45703125 -5.919921875 113.750976562 -7.2724609375 c 0
 101.04296875 -8.62109375 86.7490234375 -8.7021484375 81.984375 -7.4521484375 c 0
 66.982421875 -3.5078125 44.0478515625 35.9658203125 44.984375 56.2607421875 c 0
 45.4580078125 66.5849609375 46.2099609375 80.861328125 46.6083984375 88.02734375 c 0
 47.14453125 97.7216796875 54.5419921875 104.504882812 75.6669921875 114.198242188 c 0
 103.931640625 127.165039062 104.127929688 127.18359375 101.837890625 151.559570312 c 0
 96.126953125 212.390625 91.4287109375 338.404296875 93.1748046875 384.029296875 c 0
 93.904296875 403.088867188 94.3486328125 453.770507812 94.0771484375 496.654296875 c 2
 93.5341796875 574.625976562 l 1
 76.9287109375 585.81640625 l 2
 61.38671875 596.227539062 60.4052734375 598.994140625 62.490234375 629.133789062 c 0
 65.72265625 675.875 67.5439453125 685.338867188 74.4013671875 693.9296875 c 1
 87.0615234375 713.17578125 88.8046875 734.61328125 100.75390625 754.573242188 c 0
 106.14453125 762.043945312 140.690429688 768.630859375 152.734375 749.879882812 c 0
 164.77734375 731.131835938 167.985351562 730.717773438 208.505859375 741.938476562 c 0
 249.024414062 753.163085938 278.208984375 758.328125 295.681640625 760.168945312 c 0
 313.153320312 762.008789062 332.819335938 764.12109375 358.672851562 766.846679688 c 0
 365.135742188 767.530273438 371.256835938 767.801757812 377.262695312 767.9296875 c 1
405.057617188 665.05078125 m 0
 395.733398438 665.103515625 386.056640625 664.520507812 376.1796875 663.426757812 c 0
 322.107421875 657.4375 256.563476562 643.63671875 223.486328125 631.298828125 c 2
 194.608398438 620.469726562 l 1
 192.983398438 585.99609375 l 2
 192.11328125 567.03125 193.095703125 530.579101562 194.96875 504.95703125 c 0
 198.41796875 458.44140625 192.024414062 436.66015625 218.612304688 434.385742188 c 0
 245.201171875 432.11328125 307.344726562 448.025390625 350.189453125 460.91796875 c 0
 363.052734375 464.788085938 376.771484375 468.0625 387.55078125 476.079101562 c 0
 427.54296875 505.819335938 466.751953125 551.991210938 481.224609375 592.674804688 c 0
 489.048828125 614.673828125 476.265625 638.23046875 468.579101562 645.918945312 c 0
 455.368164062 659.130859375 433.037109375 664.895507812 405.057617188 665.05078125 c 0
400.00390625 346.306640625 m 0
 367.01171875 346.368164062 333.717773438 343.926757812 303.442382812 338.7265625 c 0
 182.344726562 317.921875 191.997070312 297.422851562 194.96875 245.594726562 c 0
 198.892578125 177.168945312 209.5234375 121.237304688 218.612304688 121.237304688 c 0
 222.823242188 121.237304688 238.673828125 124.1015625 253.80859375 127.553710938 c 0
 286.521484375 135.020507812 366.548828125 159.639648438 390.98046875 169.7890625 c 0
 400.509765625 173.747070312 422.600585938 181.544921875 440.073242188 187.116210938 c 0
 457.544921875 192.684570312 488.411132812 205.4453125 508.659179688 215.452148438 c 0
 545.4140625 233.618164062 573.565429688 247.069335938 572.65625 281.452148438 c 1
 557.150390625 337.688476562 498.984375 346.127929688 400.00390625 346.306640625 c 0
EndSplineSet
Validated: 33
EndChar

StartChar: C
Encoding: 67 67 2
Width: 730
VWidth: 0
Flags: HW
LayerCount: 2
Fore
SplineSet
367.26953125 768.265625 m 0
 401.833984375 768.827148438 438.543945312 759.647460938 463.947265625 734.993164062 c 1
 484.698242188 710.858398438 513.443359375 672.86328125 496.12109375 641.079101562 c 0
 474.899414062 601.331054688 432.705078125 641.383789062 399.3359375 635.484375 c 1
 333.725585938 632.224609375 268.76171875 605.833007812 221.484375 559.732421875 c 1
 164.659179688 513.797851562 138.754882812 437.80859375 147.288085938 366.219726562 c 0
 154.313476562 302.004882812 169.545898438 233.939453125 212.6484375 183.8046875 c 1
 258.461914062 149.159179688 318.791992188 129.494140625 376.348632812 137.448242188 c 1
 439.431640625 155.01171875 495.749023438 191.033203125 548.599609375 228.8984375 c 1
 584.602539062 253.498046875 619.141601562 297.055664062 668.07421875 285.573242188 c 1
 721.017578125 264.682617188 683.602539062 200.302734375 656.985351562 172.350585938 c 0
 605.467773438 120.708007812 549.100585938 71.505859375 483.407226562 38.80078125 c 1
 420.834960938 13.6767578125 351.981445312 -0.8427734375 284.5078125 5.7451171875 c 1
 242.05859375 20.9521484375 195.885742188 32.91796875 161.7890625 64.2236328125 c 1
 88.68359375 135.100585938 55.525390625 236.342773438 42.0703125 335.017578125 c 0
 30.1064453125 422.551757812 28.294921875 520.846679688 81.3583984375 596.25390625 c 1
 115.59765625 638.350585938 154.357421875 677.836914062 198.684570312 709.303710938 c 1
 251.682617188 736 306.203125 767.51953125 367.26953125 768.265625 c 0
EndSplineSet
Validated: 33
EndChar

StartChar: D
Encoding: 68 68 3
Width: 740
VWidth: 0
Flags: HW
LayerCount: 2
Fore
SplineSet
223.5 764.357421875 m 0
 243.244140625 764.40234375 266.47265625 763.916992188 286.135742188 763.201171875 c 0
 297.370117188 762.79296875 307.390625 762.27734375 314.9609375 761.711914062 c 0
 318.747070312 761.4296875 321.981445312 761.108398438 324.44140625 760.786132812 c 0
 325.671875 760.625976562 326.655273438 760.423828125 327.6015625 760.221679688 c 0
 328.314453125 760.06640625 329.127929688 759.88671875 330.016601562 759.4765625 c 0
 330.290039062 759.422851562 330.784179688 759.385742188 331.506835938 759.296875 c 0
 332.94921875 759.112304688 335.192382812 758.969726562 337.826171875 758.731445312 c 0
 343.095703125 758.250976562 350.337890625 757.551757812 358.868164062 756.67578125 c 0
 375.9296875 754.92578125 397.943359375 752.197265625 418.934570312 747.015625 c 0
 439.665039062 741.900390625 451.977539062 737.940429688 459.861328125 734.915039062 c 0
 467.745117188 731.889648438 471.479492188 729.659179688 473.24609375 728.775390625 c 0
 511.454101562 709.654296875 547.568359375 696.907226562 578.14453125 674.462890625 c 0
 615.59375 646.97265625 665.481445312 616.494140625 691.983398438 559.33984375 c 0
 714.657226562 510.764648438 709.400390625 454.887695312 684.172851562 389.133789062 c 0
 661.241210938 329.365234375 633.431640625 291.451171875 574.059570312 238.120117188 c 0
 550.510742188 216.967773438 525.520507812 193.21875 484.216796875 161.841796875 c 0
 442.94140625 130.487304688 403.284179688 104.295898438 361.462890625 76.109375 c 0
 306.446289062 39.03125 274.796875 18.30078125 252.659179688 6.716796875 c 0
 230.521484375 -4.8671875 217.326171875 -7.2421875 201.5078125 -7.0283203125 c 0
 184.22265625 -6.7978515625 169.701171875 -3.2802734375 161.685546875 5.046875 c 0
 154.609375 12.39453125 149.446289062 26.3486328125 147.555664062 38.908203125 c 0
 145.904296875 49.884765625 140.16015625 76.744140625 134.915039062 97.8701171875 c 0
 105.0859375 218.025390625 96.658203125 283.342773438 94.9140625 411.639648438 c 0
 94.470703125 444.1484375 91.7998046875 497.229492188 88.7734375 529.204101562 c 0
 86.33203125 554.994140625 84.421875 570.016601562 81.7080078125 579.430664062 c 0
 78.9951171875 588.844726562 75.935546875 592.747070312 69.427734375 598.776367188 c 0
 65.4521484375 602.4609375 60.89453125 605.875 56.9677734375 608.256835938 c 0
 53.0400390625 610.637695312 49.0771484375 611.596679688 49.36328125 611.596679688 c 1
 47.255859375 611.596679688 45.029296875 611.98046875 43.017578125 613.266601562 c 0
 41.005859375 614.551757812 39.578125 616.73046875 38.9326171875 618.8671875 c 0
 37.6396484375 623.140625 38.26171875 627.53515625 39.677734375 633.176757812 c 0
 41.470703125 640.3203125 40.3642578125 649.978515625 36.3369140625 675.59375 c 0
 32.2666015625 701.494140625 33.435546875 708.690429688 35.5927734375 718.370117188 c 0
 36.7734375 723.671875 38.6083984375 728.15625 41.732421875 731.575195312 c 0
 44.857421875 734.995117188 49.00390625 736.921875 53.8076171875 737.895507812 c 0
 100.423828125 747.33984375 170.110351562 760.615234375 183.446289062 762.63671875 c 0
 189.751953125 763.594726562 201.069335938 764.151367188 215.252929688 764.306640625 c 0
 217.91015625 764.3359375 220.678710938 764.3515625 223.5 764.357421875 c 0
280.791992188 646.973632812 m 0
 258.037109375 647.009765625 238.875 644.893554688 224.373046875 640.627929688 c 0
 217.662109375 638.654296875 211.05859375 637.0234375 205.592773438 635.977539062 c 0
 202.859375 635.45703125 200.388671875 635.055664062 198.322265625 634.846679688 c 2
 198.142578125 634.846679688 l 1
 197.981445312 633.1953125 197.918945312 631.375976562 197.782226562 628.52734375 c 0
 197.431640625 621.314453125 197.14453125 610.783203125 197.037109375 597.645507812 c 0
 196.822265625 571.37109375 196.981445312 534.995117188 197.602539062 495.547851562 c 0
 198.844726562 416.655273438 201.536132812 325.059570312 204.84765625 275.140625 c 0
 207.110351562 241.021484375 212.022460938 209.190429688 217.66796875 186.22265625 c 0
 220.489257812 174.739257812 223.533203125 165.481445312 226.428710938 159.426757812 c 0
 227.876953125 156.399414062 229.296875 154.251953125 230.333984375 153.106445312 c 0
 230.80859375 152.58203125 231.108398438 152.364257812 231.258789062 152.258789062 c 1
 231.206054688 152.240234375 231.125 152.198242188 231.078125 152.181640625 c 1
 231.397460938 152.181640625 231.435546875 152.134765625 231.258789062 152.258789062 c 1
 231.875976562 152.48046875 232.795898438 152.803710938 233.853515625 153.286132812 c 0
 236.14453125 154.338867188 239.3125 155.950195312 242.973632812 157.936523438 c 0
 250.295898438 161.909179688 259.702148438 167.5 269.384765625 173.583007812 c 0
 397.149414062 253.83984375 442.038085938 287.52734375 509.317382812 352.883789062 c 0
 548.774414062 391.215820312 572.265625 422.584960938 584.669921875 449.2265625 c 0
 597.07421875 475.8671875 598.616210938 497.854492188 594.509765625 518.798828125 c 0
 590.782226562 537.82421875 571.265625 566.456054688 526.6328125 586.110351562 c 0
 526.524414062 586.163085938 526.3515625 586.254882812 526.248046875 586.31640625 c 0
 517.084960938 591.684570312 490.731445312 602.783203125 460.786132812 613.266601562 c 0
 430.83984375 623.75 396.74609375 633.969726562 370.762695312 638.392578125 c 0
 338.963867188 643.80859375 310.172851562 646.602539062 285.390625 646.948242188 c 0
 283.841796875 646.969726562 282.30859375 646.970703125 280.791992188 646.973632812 c 0
EndSplineSet
Validated: 37
EndChar

StartChar: E
Encoding: 69 69 4
Width: 750
VWidth: 0
Flags: HW
LayerCount: 2
Fore
SplineSet
640.83984375 787.557617188 m 1
 669.490234375 761.86328125 l 2
 685.24609375 747.797851562 705.158203125 732.133789062 691.705078125 701.846679688 c 0
 678.251953125 671.559570312 673.961914062 670.643554688 491.360351562 651.770507812 c 0
 476.744140625 650.259765625 458.806640625 646.700195312 451.499023438 643.706054688 c 0
 444.19140625 640.7109375 408.315429688 629.762695312 371.776367188 619.51171875 c 0
 309.650390625 602.083007812 222.279296875 558.653320312 207.349609375 547.3046875 c 0
 192.41796875 535.956054688 190.947265625 510.137695312 190.947265625 500.979492188 c 0
 190.920898438 491.821289062 187.360351562 467.069335938 183.05859375 446.026367188 c 0
 178.751953125 424.984375 176.859375 396.297851562 178.90625 394.450195312 c 0
 183.060546875 390.697265625 329.19921875 437.17578125 355.16796875 448.46484375 c 0
 381.361328125 459.8515625 509.05859375 480.553710938 532.259765625 477.16015625 c 0
 545.737304688 475.188476562 554.446289062 469.841796875 572.951171875 454.840820312 c 0
 591.456054688 439.841796875 601.921875 433.731445312 603.470703125 430.084960938 c 0
 608.456054688 418.348632812 607.493164062 391.344726562 553.8515625 368.567382812 c 0
 500.208984375 345.791015625 451.166992188 334.504882812 418.28125 324.681640625 c 0
 385.395507812 314.857421875 351.015625 305.454101562 341.880859375 303.862304688 c 0
 332.745117188 302.271484375 316.302734375 297.08203125 305.340820312 292.422851562 c 0
 294.37890625 287.760742188 271.142578125 279.060546875 226.44921875 264.4765625 c 0
 181.755859375 249.892578125 176.254882812 246.879882812 171.84765625 225.654296875 c 0
 166.940429688 202.026367188 179.134765625 159.971679688 195.099609375 145.194335938 c 0
 201.935546875 138.8671875 217.79296875 136.375976562 248.456054688 136.75390625 c 0
 296.749023438 137.354492188 346.9375 151.90625 464.786132812 199.208984375 c 0
 479.401367188 205.075195312 498.833984375 211.797851562 507.96875 214.212890625 c 0
 517.103515625 216.627929688 544.010742188 226.67578125 567.760742188 236.53125 c 0
 626.084960938 260.736328125 640.291015625 257.374023438 658.58984375 250.330078125 c 0
 666.459960938 246.97265625 703.76171875 237.330078125 674.680664062 174.077148438 c 1
 670.62890625 169.744140625 660.936523438 158.70703125 653.296875 149.5078125 c 0
 645.657226562 140.309570312 621.728515625 124.104492188 599.940429688 113.498046875 c 0
 578.153320312 102.891601562 548.551757812 88.4365234375 534.3359375 81.4267578125 c 0
 465.45703125 47.466796875 331.213867188 4.4736328125 277.728515625 -0.720703125 c 0
 259.999023438 -2.4423828125 233.590820312 -1.3134765625 218.974609375 1.716796875 c 0
 180.58984375 9.6767578125 180.926757812 9.48046875 159.182617188 22.3486328125 c 0
 116.415039062 47.6552734375 82.23046875 100.372070312 62.8515625 170.701171875 c 0
 50.4921875 215.55078125 50.3701171875 360.646484375 65.5498046875 470.220703125 c 0
 80.7294921875 579.793945312 82.4755859375 586.6015625 79.875 594.004882812 c 0
 76.6240234375 603.258789062 80.79296875 609.57421875 108.732421875 634.328125 c 0
 136.671875 659.081054688 180.21484375 700.881835938 221.2578125 717.413085938 c 0
 262.30078125 733.946289062 288.735351562 743.4375 365.547851562 758.112304688 c 0
 401.813476562 765.040039062 436.803710938 773.237304688 443.194335938 776.3046875 c 0
 449.584960938 779.372070312 496.6484375 783.171875 547.830078125 784.744140625 c 2
 640.83984375 787.557617188 l 1
EndSplineSet
Validated: 33
EndChar

StartChar: F
Encoding: 70 70 5
Width: 750
VWidth: 0
Flags: HW
LayerCount: 2
Fore
SplineSet
534.641601562 788.677734375 m 0
 576.455078125 788.098632812 601.022460938 784.961914062 620.2109375 782.10546875 c 0
 639.399414062 779.249023438 710.690429688 776.375976562 715.143554688 737.201171875 c 0
 719.8125 696.129882812 731.737304688 661.239257812 595.350585938 687.456054688 c 1
 560.854492188 689.981445312 511.9375 684.883789062 502.083984375 682.150390625 c 1
 431.556640625 673.495117188 435.657226562 668.322265625 366.681640625 653.828125 c 0
 206.00390625 620.06640625 210.708007812 615.698242188 210.443359375 584.384765625 c 0
 210.333984375 571.229492188 204.961914062 529.115234375 204.086914062 490.918945312 c 0
 203.212890625 452.723632812 199.48046875 420.749023438 202.380859375 420.750976562 c 0
 208.538085938 420.755859375 248.534179688 431.284179688 322.33984375 448.32421875 c 0
 401.83984375 466.678710938 559.78125 476.262695312 589.061523438 455.389648438 c 0
 618.340820312 434.517578125 646.16796875 413.166992188 646.16796875 400.884765625 c 0
 646.16796875 379.489257812 630.225585938 372.221679688 567.114257812 364.346679688 c 0
 474.90234375 352.83984375 472.801757812 352.384765625 338.016601562 328.817382812 c 0
 332.103515625 327.782226562 306.3046875 320.923828125 280.685546875 313.475585938 c 0
 255.06640625 306.024414062 224.991210938 298.115234375 213.94921875 295.912109375 c 1
 206.318359375 292.088867188 l 1
 207.3984375 237.053710938 l 1
 210.044921875 165.771484375 244.221679688 76.7890625 253.215820312 40.1416015625 c 0
 258.560546875 18.3642578125 208.741210938 -9.0517578125 180.8046875 -12.748046875 c 0
 164.651367188 -14.8857421875 155.53515625 -11.6767578125 144.301757812 -0.0302734375 c 0
 136.098632812 8.4736328125 128.096679688 26.060546875 126.385742188 39.1328125 c 0
 124.674804688 52.205078125 117.966796875 98.525390625 111.60546875 142.086914062 c 0
 105.244140625 185.647460938 95.3046875 252.33984375 94.361328125 258.161132812 c 0
 92.1279296875 271.934570312 79.45703125 261.795898438 66.8154296875 261.795898438 c 0
 61.3876953125 261.795898438 51.63671875 299.579101562 46.884765625 335.8828125 c 0
 42.974609375 365.747070312 42.921875 394.66015625 80.2529296875 395.635742188 c 0
 94.27734375 396.001953125 94.4140625 400.180664062 94.8095703125 413.400390625 c 0
 95.1005859375 423.170898438 96.990234375 459.20703125 98.83984375 493.54296875 c 0
 102.41015625 559.78125 100.9375 563.35546875 67.935546875 566.620117188 c 0
 42.00390625 569.1875 33.80078125 585.6796875 32.5517578125 637.880859375 c 0
 31.3486328125 688.158203125 35.6025390625 696.634765625 66.1435546875 702.681640625 c 0
 81.162109375 705.654296875 88.634765625 711.749023438 91.8974609375 724.079101562 c 0
 101.245117188 759.404296875 117.435546875 765.647460938 144.525390625 744.467773438 c 0
 162.413085938 730.483398438 159.806640625 727.467773438 182.841796875 733.716796875 c 0
 223.58984375 744.229492188 279.881835938 760.333007812 317.458984375 764.872070312 c 0
 355.036132812 769.41015625 385.354492188 774.975585938 412.590820312 780.401367188 c 0
 443.796875 786.618164062 492.829101562 789.26171875 534.641601562 788.677734375 c 0
EndSplineSet
Validated: 33
EndChar

StartChar: G
Encoding: 71 71 6
Width: 750
VWidth: 0
Flags: HW
LayerCount: 2
Fore
SplineSet
432.512695312 777.952148438 m 0
 433.180664062 777.90234375 433.48828125 777.115234375 452.096679688 774.326171875 c 0
 470.705078125 771.537109375 490.046875 765.891601562 493.619140625 751.66015625 c 0
 495.642578125 743.598632812 500.254882812 739.459960938 516.647460938 707.9609375 c 0
 533.0390625 676.462890625 521.728515625 674.108398438 517.190429688 661.54296875 c 0
 513.212890625 650.525390625 510.709960938 655.66015625 502.684570312 643.955078125 c 1
 488.642578125 630.963867188 458.01171875 629.533203125 438.134765625 636.338867188 c 0
 386.467773438 654.029296875 254.162109375 550.475585938 199.185546875 457.62890625 c 0
 166.7578125 402.86328125 149.651367188 355.065429688 153.276367188 294.365234375 c 0
 158.342773438 209.545898438 179.765625 159.336914062 246.658203125 126.642578125 c 0
 276.4921875 112.05859375 286.086914062 110.3828125 338.043945312 110.50390625 c 0
 406.662109375 110.666992188 441.135742188 121.236328125 511.20703125 163.450195312 c 0
 556.3828125 190.666015625 583.413085938 213.522460938 600.41796875 238.880859375 c 0
 607.80859375 249.90234375 608.086914062 253.434570312 601.505859375 261.364257812 c 0
 595.087890625 269.09765625 586.377929688 270.259765625 552.911132812 267.348632812 c 0
 530.502929688 265.3984375 492.53125 259.588867188 468.596679688 254.474609375 c 0
 444.662109375 249.359375 416.47265625 244.045898438 406.040039062 242.688476562 c 0
 387.283203125 240.245117188 314.448242188 213.65625 303.23046875 205.154296875 c 0
 294.318359375 198.400390625 261.514648438 214.459960938 253.3671875 229.633789062 c 0
 249.37109375 237.072265625 245.029296875 257.192382812 243.756835938 274.23828125 c 0
 241.038085938 310.6484375 249.958984375 324.239257812 282.377929688 333.16796875 c 0
 293.826171875 336.3203125 326.729492188 345.36328125 355.451171875 353.294921875 c 0
 384.172851562 361.227539062 418.116210938 369.370117188 430.881835938 371.24609375 c 0
 443.646484375 373.122070312 475.99609375 378.248046875 535.685546875 389.197265625 c 0
 595.375 400.145507812 608.280273438 402.795898438 622.176757812 402.795898438 c 0
 644.784179688 402.795898438 649.08984375 400.603515625 680.380859375 342.596679688 c 0
 711.672851562 284.590820312 710.498046875 259.275390625 699.056640625 220.0234375 c 0
 689.174804688 186.118164062 681.642578125 173.069335938 655.720703125 145.862304688 c 0
 631.241210938 120.16796875 621.590820312 111.473632812 578.296875 76.958984375 c 0
 509.286132812 21.943359375 403.741210938 -12.7060546875 317.736328125 -4.81640625 c 0
 164.506835938 9.2392578125 110.9453125 81.826171875 78.8291015625 143.79296875 c 1
 18.8916015625 263.595703125 48.736328125 353.395507812 70.9560546875 446.131835938 c 1
 100.129882812 540.6875 190.092773438 653.662109375 277.120117188 704.87890625 c 0
 322.493164062 731.58203125 394.708984375 762.396484375 412.205078125 769.249023438 c 0
 429.702148438 776.099609375 431.400390625 778.033203125 432.512695312 777.952148438 c 0
EndSplineSet
Validated: 33
EndChar

StartChar: H
Encoding: 72 72 7
Width: 720
VWidth: 0
Flags: HW
LayerCount: 2
Fore
SplineSet
524.258789062 774.326171875 m 1
 524.255859375 774.322265625 l 1
 527.76171875 774.491210938 530.53125 774.033203125 532.145507812 773.826171875 c 0
 536.682617188 773.237304688 541.0859375 772.421875 545.408203125 770.810546875 c 0
 547.557617188 770.006835938 549.975585938 768.879882812 552.112304688 767.35546875 c 0
 553.375976562 766.453125 555.301757812 764.616210938 556.9296875 762.384765625 c 0
 558.163085938 760.696289062 559.458007812 758.294921875 560.30078125 755.528320312 c 0
 560.3359375 755.458984375 560.440429688 755.171875 560.440429688 755.171875 c 1
 560.440429688 755.171875 560.287109375 755.1796875 560.287109375 755.178710938 c 0
 560.28515625 755.127929688 560.282226562 755.059570312 560.279296875 755.002929688 c 2
 560.43359375 754.997070312 l 2
 560.56640625 754.474609375 560.401367188 753.784179688 560.515625 753.224609375 c 2
 560.82421875 753.387695312 l 2
 560.711914062 753.857421875 560.73828125 754.23828125 560.43359375 754.995117188 c 1
 561.071289062 753.418945312 561.037109375 753.499023438 560.983398438 753.55859375 c 2
 560.9765625 753.3828125 l 2
 561.71484375 752.036132812 563.385742188 749.489257812 565.2734375 746.842773438 c 0
 573.922851562 734.716796875 578.764648438 718.00390625 583.451171875 700.127929688 c 0
 588.16796875 682.138671875 592.028320312 664.1796875 591.391601562 648.525390625 c 1
 591.4140625 649.072265625 591.8359375 640.155273438 592.8359375 631.666992188 c 0
 593.844726562 623.1015625 595.198242188 612.916015625 596.864257812 603.565429688 c 0
 600.458007812 583.383789062 603.587890625 563.555664062 604.254882812 553.3984375 c 0
 604.448242188 550.443359375 606.736328125 533.73828125 608.90625 521.911132812 c 0
 611.590820312 507.275390625 614.109375 483.87890625 614.858398438 466.322265625 c 0
 615.470703125 451.989257812 618.521484375 421.024414062 621.624023438 400.797851562 c 0
 625.041015625 378.526367188 632.733398438 320.404296875 638.669921875 270.135742188 c 0
 644.533203125 220.479492188 652.862304688 159.806640625 656.873046875 138.012695312 c 0
 661.35546875 113.640625 663.674804688 95.1240234375 662.044921875 78.2109375 c 0
 660.38671875 61.0078125 653.684570312 46.2119140625 643.857421875 34.9208984375 c 0
 635.674804688 25.521484375 624.849609375 16.8330078125 611.712890625 18.72265625 c 0
 599.09375 20.5361328125 590.447265625 30.3681640625 582.506835938 41.12890625 c 0
 574.467773438 52.0234375 570.349609375 66.369140625 564.560546875 86.0654296875 c 0
 558.697265625 106.013671875 552.540039062 130.825195312 546.62109375 157.349609375 c 0
 534.779296875 210.42578125 524.086914062 270.05859375 520.76953125 310.827148438 c 0
 519.456054688 326.974609375 518.873046875 329.380859375 518.014648438 336.579101562 c 1
 516.11328125 335.850585938 514.28125 335.061523438 512.294921875 334.3359375 c 0
 503.7734375 331.224609375 493.72265625 328.203125 483.517578125 326.134765625 c 0
 465.196289062 322.419921875 442.178710938 317.041992188 417.453125 311.748046875 c 0
 392.7265625 306.454101562 377.866210938 304.828125 364.768554688 304.79296875 c 0
 355.940429688 304.770507812 332.494140625 301.88671875 317.370117188 298.763671875 c 0
 267.829101562 288.537109375 234.481445312 283.3828125 203.008789062 280.604492188 c 0
 192.794921875 279.703125 184.995117188 278.609375 179.76171875 277.483398438 c 0
 175.6875 276.60546875 174.8359375 275.87890625 174.368164062 275.756835938 c 0
 174.208984375 274.15625 173.866210938 271.485351562 174.131835938 266.217773438 c 0
 174.849609375 252.030273438 175.708007812 219.815429688 176.026367188 193.110351562 c 0
 176.180664062 180.16796875 176.598632812 166.5234375 177.078125 155.404296875 c 0
 177.55859375 144.284179688 178.176757812 134.703125 178.321289062 133.603515625 c 0
 180.450195312 117.470703125 180.478515625 97.1552734375 179.436523438 78.7421875 c 0
 178.913085938 69.4951171875 178.043945312 60.810546875 176.883789062 53.3828125 c 0
 176.272460938 49.466796875 175.51953125 45.9326171875 174.624023438 42.6875 c 0
 173.952148438 40.25390625 172.505859375 34.90234375 168.951171875 30.36328125 c 0
 165.362304688 25.779296875 161.563476562 22.90234375 157.723632812 19.8564453125 c 0
 153.612304688 16.5966796875 149.099609375 13.3193359375 144.56640625 10.4892578125 c 0
 138.34375 6.6064453125 132.123046875 2.6572265625 123.99609375 2.130859375 c 0
 115.15234375 1.5576171875 107.965820312 6.27734375 102.907226562 10.9462890625 c 0
 91.5283203125 21.443359375 87.0029296875 37.0517578125 82.6123046875 54.2099609375 c 0
 78.1083984375 71.810546875 74.9443359375 92.2880859375 74.3232421875 112.193359375 c 0
 73.8427734375 127.56640625 72.9599609375 153.169921875 72.2021484375 168.510742188 c 0
 71.412109375 184.508789062 70.0634765625 217.526367188 69.4404296875 242.713867188 c 0
 68.5166015625 280.055664062 67.8583984375 300.916992188 66.92578125 311.779296875 c 0
 66.47265625 317.053710938 65.7822265625 319.8828125 65.607421875 320.497070312 c 0
 65.203125 321.915039062 66.6376953125 319.198242188 66.330078125 319.583984375 c 0
 58.138671875 329.931640625 57.123046875 342.973632812 57.4990234375 353.009765625 c 0
 57.6875 358.090820312 58.302734375 363.532226562 60.1337890625 369.170898438 c 0
 61.0703125 372.057617188 62.802734375 375.517578125 65.0908203125 378.87109375 c 0
 65.2373046875 379.806640625 65.1884765625 380.15625 65.349609375 381.512695312 c 0
 66.005859375 387.075195312 66.779296875 395.713867188 67.41015625 406.008789062 c 0
 68.6767578125 426.650390625 69.71484375 454.510742188 70.3818359375 482.80859375 c 0
 71.0478515625 511.091796875 71.2939453125 539.950195312 71.0458984375 562.70703125 c 0
 70.9208984375 574.081054688 70.763671875 583.891601562 70.37890625 591.203125 c 0
 70.193359375 594.7421875 69.9091796875 597.849609375 69.6748046875 600.073242188 c 0
 69.55859375 601.184570312 69.40234375 602.209960938 69.3271484375 602.740234375 c 0
 69.2529296875 603.270507812 68.923828125 604.3671875 69.6025390625 602.021484375 c 1
 65.421875 616.456054688 64.6318359375 634.783203125 64.5478515625 653.5078125 c 0
 64.5068359375 662.96875 64.8056640625 672.313476562 65.5029296875 680.69921875 c 0
 66.181640625 688.860351562 66.9951171875 696.340820312 69.6396484375 703.873046875 c 0
 76.2734375 722.766601562 82.2822265625 736.834960938 89.9755859375 747.606445312 c 0
 98.0693359375 758.938476562 110.001953125 766.920898438 122.921875 764.833007812 c 0
 137.010742188 762.559570312 148.20703125 752.306640625 156.315429688 740.6640625 c 0
 157.555664062 738.8828125 158.364257812 737.934570312 159.353515625 736.827148438 c 0
 160.296875 736.420898438 162.091796875 736.2578125 162.513671875 735.991210938 c 0
 162.51171875 735.934570312 162.508789062 735.873046875 162.505859375 735.81640625 c 0
 166.900390625 733.037109375 171.173828125 725.221679688 170.354492188 726.83203125 c 1
 172.275390625 723.057617188 173.618164062 719.045898438 175.022460938 714.44140625 c 0
 177.135742188 707.506835938 176.99609375 701.908203125 177.400390625 694.36328125 c 0
 177.83203125 686.2890625 178.24609375 675.900390625 178.442382812 663.90625 c 0
 178.834960938 639.900390625 178.69921875 609.206054688 178.106445312 577.09765625 c 0
 176.930664062 513.387695312 175.1015625 429.896484375 174.977539062 417.888671875 c 1
 177.185546875 415.146484375 l 1
 203.33984375 412.11328125 l 1
 336.947265625 431.967773438 285.928710938 422.612304688 426.825195312 444.176757812 c 1
 454.701171875 442.971679688 496.571289062 451.075195312 504.583007812 451.354492188 c 1
 502.845703125 464.682617188 500.383789062 483.809570312 496.994140625 511.607421875 c 0
 492.916992188 545.052734375 484.864257812 594.119140625 479.55078125 617.530273438 c 0
 474.948242188 637.807617188 472.389648438 651.159179688 471.692382812 663.647460938 c 0
 470.98046875 676.393554688 472.690429688 687.412109375 475.731445312 699.37890625 c 0
 479.233398438 713.163085938 483.278320312 729.237304688 484.622070312 734.737304688 c 0
 487.171875 745.174804688 491.499023438 755.072265625 498.52734375 762.46484375 c 0
 505.630859375 769.938476562 514.911132812 773.891601562 524.258789062 774.326171875 c 1
151.030273438 737.872070312 m 1
 151.015625 737.521484375 l 1
 149.284179688 736.849609375 147.018554688 736.053710938 146.84375 735.922851562 c 0
 146.5703125 735.719726562 147.65234375 737.155273438 151.030273438 737.875 c 1
 151.030273438 737.872070312 l 1
416.887695312 314.696289062 m 1
 416.784179688 314.58203125 416.260742188 314.251953125 416.106445312 314.196289062 c 1
 416.37109375 314.350585938 416.630859375 314.520507812 416.887695312 314.696289062 c 1
409.229492188 313.416992188 m 2
 409.674804688 313.274414062 410.015625 313.119140625 410.430664062 313.01171875 c 1
 410.374023438 313.017578125 409.22265625 313.236328125 409.22265625 313.236328125 c 1
 409.229492188 313.411132812 l 1
 409.229492188 313.416992188 l 2
EndSplineSet
Validated: 37
EndChar

StartChar: I
Encoding: 73 73 8
Width: 800
VWidth: 0
Flags: HW
LayerCount: 2
Fore
SplineSet
579.578125 660.061523438 m 1
 579.578125 660.064453125 l 1
 551.044921875 656.247070312 522.515625 652.369140625 494.083007812 647.86328125 c 0
 459.57421875 643.432617188 403.262695312 638.170898438 412.868164062 589.349609375 c 1
 425.284179688 486.793945312 433.561523438 383.78515625 439.89453125 280.666015625 c 1
 448.03125 246.510742188 432.620117188 194.119140625 459.670898438 171.922851562 c 1
 517.676757812 171.428710938 575.5859375 178.962890625 633.65625 179.602539062 c 1
 673.596679688 176.502929688 716.618164062 191.108398438 754.407226562 178.654296875 c 1
 798.571289062 150.73046875 758.924804688 104.755859375 723.262695312 93.87890625 c 1
 654.928710938 66.8740234375 579.049804688 73.462890625 508.534179688 54.8466796875 c 1
 466.24609375 55.63671875 452.321289062 18.9794921875 427.283203125 -5.68359375 c 1
 389.762695312 -37.166015625 376.124023438 19.6708984375 349.350585938 23.908203125 c 1
 279.451171875 15.2763671875 209.369140625 7.8642578125 138.962890625 4.748046875 c 1
 105.095703125 0.4736328125 46.1201171875 -3.890625 55.625 48.21875 c 1
 57.12890625 80.98046875 44.9638671875 136.6484375 88.9833984375 145.069335938 c 1
 160.752929688 126.607421875 235.262695312 139.973632812 308.03515625 143.793945312 c 1
 359.555664062 132.10546875 362.760742188 180.623046875 356.049804688 218.627929688 c 1
 343.590820312 317.581054688 335.265625 417.030273438 323.334960938 516.053710938 c 1
 315.985351562 550.666015625 320.411132812 588.903320312 303.799804688 620.700195312 c 1
 279.842773438 627.475585938 243.065429688 607.639648438 213.05078125 608.869140625 c 1
 173.338867188 596.1171875 129.815429688 599.872070312 90.84765625 582.758789062 c 1
 54.130859375 555.176757812 16.8427734375 586.130859375 28.1796875 628.395507812 c 1
 25.1337890625 662.525390625 18.1826171875 724.173828125 69.5283203125 721.26171875 c 1
 105.516601562 714.173828125 142.184570312 717.703125 178.422851562 721.350585938 c 1
 270.297851562 733.15625 363.971679688 730.227539062 454.71875 750.165039062 c 1
 513.75390625 758.81640625 573.544921875 763.567382812 633.111328125 768.471679688 c 1
 667.80859375 782.489257812 710.870117188 757.580078125 714.6015625 722.19140625 c 1
 688.046875 673.9140625 628.814453125 666.719726562 579.578125 660.061523438 c 1
EndSplineSet
Validated: 33
EndChar

StartChar: J
Encoding: 74 74 9
Width: 860
VWidth: 0
Flags: HW
LayerCount: 2
Fore
SplineSet
743.498046875 778.904296875 m 1
 743.486328125 778.8984375 l 1
 774.033203125 777.525390625 799.981445312 754.680664062 812.938476562 728.560546875 c 0
 813.11328125 728.202148438 813.525390625 727.971679688 813.6953125 727.614257812 c 2
 813.5078125 727.614257812 l 1
 839.61328125 694.555664062 812.174804688 639.543945312 759.57421875 664.596679688 c 1
 721.404296875 670.407226562 681.634765625 660.533203125 641.676757812 656.837890625 c 1
 641.676757812 657.025390625 l 1
 604.151367188 652.921875 567.970703125 638.390625 530.212890625 630.911132812 c 1
 529.221679688 628.231445312 527.681640625 622.618164062 526.239257812 615.203125 c 0
 524.6484375 607.022460938 522.84765625 597.598632812 521.129882812 589.466796875 c 0
 521.129882812 589.364257812 521.129882812 589.200195312 521.129882812 589.091796875 c 0
 518.377929688 572.19140625 520.888671875 547.629882812 526.807617188 527.587890625 c 0
 526.807617188 527.333007812 526.807617188 527.084960938 526.807617188 526.830078125 c 0
 547.119140625 392.81640625 575.02734375 257.200195312 566.358398438 119.961914062 c 0
 566.298828125 119.895507812 566.240234375 119.834960938 566.170898438 119.774414062 c 0
 563.690429688 98.7607421875 560.944335938 73.451171875 552.356445312 51.2685546875 c 0
 543.76953125 29.0869140625 528.9765625 9.6103515625 503.342773438 2.0654296875 c 0
 503.284179688 2.064453125 503.213867188 2.064453125 503.15625 2.0654296875 c 0
 452.49609375 -11.6376953125 398.240234375 -1.814453125 350.4375 14.7451171875 c 0
 350.311523438 14.7880859375 350.19140625 14.8720703125 350.063476562 14.9326171875 c 0
 249.728515625 44.296875 153.678710938 93.5458984375 76.6083984375 165.379882812 c 1
 76.421875 165.192382812 l 2
 76.3173828125 165.271484375 76.3369140625 165.483398438 76.234375 165.568359375 c 0
 59.9375 178.84375 46.4580078125 198.244140625 40.2783203125 219.3125 c 0
 34.0595703125 240.513671875 35.4365234375 263.725585938 49.3623046875 282.708984375 c 1
 88.072265625 312.00390625 121.9609375 283.8359375 153.766601562 244.344726562 c 1
 229.165039062 179.282226562 263.950195312 156.932617188 371.262695312 114.8515625 c 0
 371.388671875 114.796875 371.517578125 114.73046875 371.63671875 114.6640625 c 0
 386.924804688 109.62109375 411.416015625 108.484375 426.787109375 111.689453125 c 0
 442.158203125 114.89453125 448.383789062 121.739257812 453.958007812 139.264648438 c 0
 453.958007812 139.391601562 453.958007812 139.518554688 453.958007812 139.645507812 c 0
 473.31640625 194.572265625 463.076171875 270.993164062 451.30859375 336.267578125 c 0
 451.30859375 336.3828125 451.30859375 336.521484375 451.30859375 336.642578125 c 0
 432.87890625 403.859375 429.383789062 473.0390625 414.02734375 539.509765625 c 0
 413.955078125 539.704101562 413.91015625 539.885742188 413.840820312 540.079101562 c 0
 408.19140625 555.203125 406.634765625 570.990234375 402.865234375 583.415039062 c 0
 399.106445312 595.799804688 394.119140625 604.162109375 380.912109375 608.016601562 c 1
 305.1875 602.232421875 230.793945312 599.421875 157.229492188 591.7421875 c 0
 138.4765625 588.951171875 119.2890625 587.846679688 100.646484375 596.094726562 c 1
 79.6376953125 595.135742188 64.3134765625 609.265625 55.2275390625 626.940429688 c 0
 46.220703125 644.463867188 42.455078125 665.543945312 42.927734375 682.19921875 c 1
 38.6875 689.385742188 36.3720703125 695.361328125 36.4931640625 700.93359375 c 0
 36.6240234375 706.862304688 39.7666015625 711.879882812 43.6845703125 715.31640625 c 0
 51.51953125 722.190429688 62.5341796875 725.80078125 72.0703125 732.7265625 c 0
 73.16796875 733.483398438 74.560546875 733.73828125 75.85546875 733.483398438 c 0
 84.578125 732.256835938 95.478515625 732.869140625 106.323242188 731.591796875 c 0
 116.133789062 730.436523438 126.005859375 726.963867188 133.57421875 719.48046875 c 1
 189.286132812 715.942382812 245.518554688 720.001953125 301.810546875 722.318359375 c 1
 301.810546875 722.130859375 l 1
 357.212890625 730.985351562 413.286132812 733.940429688 467.584960938 745.029296875 c 0
 467.64453125 745.030273438 467.71484375 745.030273438 467.772460938 745.029296875 c 0
 554.608398438 759.1015625 641.774414062 776.08203125 730.62890625 778.146484375 c 1
 730.62890625 777.958984375 l 1
 735.012695312 778.637695312 739.259765625 779.098632812 743.498046875 778.904296875 c 1
EndSplineSet
Validated: 33
EndChar

StartChar: K
Encoding: 75 75 10
Width: 790
VWidth: 0
Flags: HW
LayerCount: 2
Fore
SplineSet
47.6552734375 773.077148438 m 1
 54.390625 773.372070312 60.982421875 771.392578125 67.2333984375 769.124023438 c 0
 106.581054688 751.875 149.567382812 721.334960938 149.868164062 673.725585938 c 1
 157.25390625 568.015625 161.759765625 461.997070312 162.48046875 356.017578125 c 1
 201.072265625 369.37109375 235.966796875 390.627929688 270.083984375 412.724609375 c 0
 354.08984375 465.24609375 442.380859375 511.19140625 521.249023438 571.484375 c 0
 552.015625 596.010742188 587.899414062 614.145507812 617.310546875 639.931640625 c 1
 630.032226562 667.911132812 665.170898438 705.100585938 696.938476562 680.46875 c 1
 722.032226562 659.33203125 777.791992188 616.280273438 742.846679688 582.997070312 c 1
 627.926757812 502.004882812 514.88671875 418.087890625 394.8203125 344.688476562 c 0
 362.342773438 325.946289062 324.604492188 303.89453125 296.661132812 285.201171875 c 1
 376.579101562 247.991210938 461.893554688 223.805664062 546.348632812 199.11328125 c 1
 599.163085938 180.609375 660.288085938 181.674804688 705.375 145.043945312 c 0
 730.505859375 124.693359375 751.022460938 93.001953125 718.796875 70.837890625 c 1
 651.724609375 36.8388671875 576.235351562 88.328125 517.549804688 97.728515625 c 1
 477.145507812 108.823242188 461.803710938 120.368164062 420.82421875 129.711914062 c 1
 360.487304688 137.084960938 311.147460938 177.846679688 251.826171875 188.76171875 c 1
 229.073242188 201.345703125 166.0390625 227.303710938 171.555664062 184.284179688 c 0
 176.502929688 142.102539062 178.8359375 99.1025390625 191.909179688 58.212890625 c 1
 220.8984375 21.2822265625 195.2890625 -43.0341796875 143.66796875 -30.1689453125 c 1
 105.081054688 -18.5205078125 84.68359375 -10.29296875 76.01953125 22.6181640625 c 1
 59.9833984375 74.0625 77.94921875 166.53515625 60.134765625 217.381835938 c 1
 51.2548828125 257.576171875 54.1806640625 297.779296875 62.5810546875 338.46875 c 1
 59.0634765625 416.526367188 57.123046875 495.01953125 52.4140625 573.202148438 c 0
 50.9150390625 609.095703125 47.08984375 645.323242188 37.5126953125 679.120117188 c 1
 40.095703125 708.966796875 27.484375 751.931640625 47.6552734375 773.077148438 c 1
EndSplineSet
Validated: 33
EndChar

StartChar: L
Encoding: 76 76 11
Width: 780
VWidth: 0
Flags: HW
LayerCount: 2
Fore
SplineSet
49.1435546875 732.865234375 m 1
 49.1455078125 732.865234375 l 1
 48.5205078125 743.909179688 81.265625 780.58984375 105.740234375 771.60546875 c 1
 123.310546875 763.928710938 136.658203125 758.275390625 142.524414062 740.424804688 c 1
 151.807617188 731.576171875 163.577148438 678.6015625 151.486328125 493.577148438 c 0
 144.329101562 384.077148438 154.083984375 268.912109375 154.779296875 255.999023438 c 0
 158.669921875 183.752929688 178.596679688 160.913085938 180.5078125 157.017578125 c 0
 182.596679688 152.755859375 166.248046875 164.298828125 211.096679688 172.786132812 c 0
 245.702148438 179.333984375 290.463867188 185.930664062 312.2734375 187.651367188 c 0
 322.989257812 188.497070312 339.072265625 189.918945312 348.026367188 190.97265625 c 0
 356.982421875 192.02734375 374.537109375 193.704101562 387.03515625 194.651367188 c 0
 399.53125 195.59765625 425.956054688 199.333007812 445.750976562 202.875976562 c 0
 483.086914062 209.557617188 515.252929688 212.549804688 559.533203125 213.75390625 c 0
 573.76171875 214.140625 604.341796875 215.22265625 627.477539062 216.029296875 c 0
 703.208984375 218.672851562 710.818359375 217.185546875 727.657226562 196.682617188 c 0
 742.865234375 178.165039062 742.864257812 177.564453125 737.004882812 145.319335938 c 0
 731.146484375 113.07421875 663.103515625 96.8056640625 581.553710938 90.044921875 c 0
 546.293945312 87.12109375 507.102539062 82.8486328125 494.501953125 80.5546875 c 0
 470.571289062 76.1962890625 463.455078125 75.2880859375 383.698242188 66.4228515625 c 0
 356.845703125 63.439453125 314.201171875 56.4677734375 288.921875 50.8671875 c 0
 263.645507812 45.2666015625 233.426757812 39.9560546875 221.862304688 39.0439453125 c 0
 195.16796875 36.939453125 121.061523438 7.955078125 120.40625 -0.609375 c 0
 119.840820312 -8.02734375 81.5712890625 -6.173828125 71.3701171875 1.72265625 c 0
 62.6826171875 8.447265625 59.5234375 23.119140625 55.2080078125 75.3662109375 c 0
 53.2900390625 98.5869140625 50.9072265625 124.909179688 49.9921875 133.853515625 c 0
 49.078125 142.797851562 48.0322265625 161.756835938 47.5615234375 175.9921875 c 0
 47.087890625 190.228515625 45.0341796875 226.690429688 43.0576171875 257.015625 c 0
 41.080078125 287.341796875 36.4931640625 370.624023438 41.9375 437.657226562 c 0
 47.384765625 504.689453125 50.3427734375 582.883789062 48.51953125 642.737304688 c 0
 46.6943359375 702.591796875 50.2958984375 718.745117188 49.1435546875 732.865234375 c 1
EndSplineSet
Validated: 37
EndChar

StartChar: M
Encoding: 77 77 12
Width: 860
VWidth: 0
Flags: HW
LayerCount: 2
Fore
SplineSet
480.950195312 771.965820312 m 1
 480.950195312 771.936523438 l 1
 490.526367188 773.184570312 498.344726562 773.888671875 513.666992188 771.995117188 c 0
 528.991210938 770.102539062 531.594726562 767.6328125 554.916992188 725.17578125 c 0
 578.237304688 682.717773438 579.216796875 675.806640625 590.561523438 647.392578125 c 0
 596.859375 631.616210938 617.009765625 586.170898438 625.108398438 569.374023438 c 0
 630.83984375 557.211914062 629.93359375 541.205078125 637.950195312 528.892578125 c 1
 642.311523438 520.390625 654.479492188 487.26953125 664.899414062 455.290039062 c 0
 675.319335938 423.310546875 686.067382812 396.200195312 689.86328125 386.079101562 c 0
 700.182617188 358.229492188 709.033203125 332.770507812 720.575195312 304.145507812 c 1
 743.592773438 239.7265625 781.9375 169.221679688 807.12890625 114.107421875 c 1
 833.166015625 83.69921875 836.09765625 44.1748046875 806.374023438 16.123046875 c 0
 776.649414062 -11.9296875 768.587890625 4.0615234375 757.146484375 14.595703125 c 1
 710.400390625 44.5908203125 659.5703125 157.349609375 631.2265625 242.5390625 c 1
 608.475585938 319.46875 589.907226562 392.420898438 547.729492188 486.0234375 c 1
 522.75390625 548.514648438 517.967773438 471.569335938 494.387695312 422.85546875 c 1
 478.931640625 277.7734375 460.864257812 249.609375 475.342773438 195.2890625 c 0
 479.8984375 178.19921875 481.51953125 162.787109375 477.6171875 152.18359375 c 0
 473.715820312 141.580078125 464.03515625 132.043945312 450.381835938 124.630859375 c 0
 431.1640625 114.1953125 424.543945312 113.096679688 412.759765625 118.55859375 c 0
 404.895507812 122.204101562 398.470703125 130.08203125 392.731445312 138.489257812 c 0
 320.421875 248.512695312 280.928710938 360.263671875 224.650390625 474.794921875 c 0
 213.791992188 498.034179688 202.760742188 515.5078125 200.05078125 513.8046875 c 0
 197.340820312 512.100585938 196.267578125 509.556640625 197.69921875 508.099609375 c 0
 199.131835938 506.642578125 198.143554688 495.609375 195.34765625 483.626953125 c 0
 190.774414062 464.018554688 178.495117188 388.828125 169.844726562 326.485351562 c 0
 168.047851562 313.532226562 165.176757812 296.30859375 163.333007812 288.212890625 c 0
 155.36328125 252.543945312 154.479492188 215.11328125 146.692382812 179.280273438 c 1
 141.405273438 146.895507812 136.385742188 99.80859375 135.659179688 74.5810546875 c 0
 134.174804688 23.0634765625 125.84375 8.8076171875 93.6953125 2.2666015625 c 0
 79.720703125 -0.5771484375 73.0009765625 1.16796875 64.7568359375 10.36328125 c 0
 42.5791015625 35.09375 39.6142578125 40.85546875 35.658203125 59.55859375 c 0
 31.701171875 78.2607421875 31.4326171875 106.209960938 34.005859375 141.0078125 c 0
 36.5244140625 175.01171875 39.9404296875 222.706054688 41.603515625 246.995117188 c 0
 52.9228515625 404.305664062 108.701171875 562.452148438 126.796875 726.69921875 c 1
 117.423828125 732.591796875 132.645507812 759.130859375 147.596679688 762.94921875 c 0
 160.4375 766.021484375 172.846679688 760.150390625 185.76171875 758.348632812 c 0
 188.149414062 758.860351562 197.676757812 751.030273438 211.840820312 732.296875 c 0
 226.00390625 713.563476562 232.986328125 700.686523438 239.662109375 673.889648438 c 0
 255.038085938 613.323242188 278.952148438 579.396484375 304.552734375 520.666015625 c 1
 340.744140625 433.1328125 376.998046875 355.806640625 379.1171875 357.962890625 c 0
 380.072265625 358.934570312 382.33984375 365.916015625 384.182617188 391.624023438 c 0
 387.685546875 440.510742188 399.74609375 505.05078125 410.590820312 533.493164062 c 0
 414.087890625 542.669921875 418.013671875 556.499023438 419.453125 564.221679688 c 0
 420.891601562 571.9453125 426.19921875 586.381835938 431.208984375 596.239257812 c 0
 449.616210938 632.44921875 467.779296875 691.154296875 470.747070312 728.361328125 c 0
 473.715820312 765.569335938 476.971679688 771.458984375 480.950195312 771.965820312 c 1
EndSplineSet
Validated: 33
EndChar

StartChar: N
Encoding: 78 78 13
Width: 770
VWidth: 0
Flags: HW
LayerCount: 2
Fore
SplineSet
627.005859375 774.49609375 m 2
 626.979492188 774.49609375 l 1
 646.997070312 775.619140625 682.370117188 772.084960938 698.250976562 757.337890625 c 1
 724.008789062 730.1015625 717.530273438 698.328125 713.55078125 684.076171875 c 0
 711.05859375 675.15625 709.497070312 637.911132812 709.991210938 621.876953125 c 0
 710.921875 591.83203125 715.137695312 511.532226562 715.737304688 473.471679688 c 1
 717.791992188 423.287109375 714.676757812 346.731445312 715.737304688 251.03125 c 0
 717.447265625 96.90234375 739.17578125 74.3212890625 729.390625 34.8828125 c 0
 719.604492188 -4.5546875 661.383789062 -20.318359375 642.674804688 -20.8134765625 c 0
 641.071289062 -20.8720703125 630.576171875 -7.4111328125 619.353515625 9.0673828125 c 0
 591.681640625 49.693359375 556.81640625 84.361328125 467.762695312 159.748046875 c 0
 448.0703125 176.458007812 426.307617188 201.666015625 399.254882812 216.594726562 c 0
 387.198242188 222.920898438 356.67578125 248.235351562 331.293945312 272.712890625 c 0
 305.911132812 297.190429688 282.228515625 317.169921875 278.819335938 317.169921875 c 0
 275.41015625 317.169921875 258.7265625 332.255859375 241.649414062 350.6953125 c 2
 210.67578125 384.219726562 l 1
 213.772460938 239.370117188 l 2
 215.54296875 159.704101562 218.775390625 91.728515625 220.87890625 88.32421875 c 0
 230.920898438 72.0771484375 226.840820312 53.40234375 209.21875 34.392578125 c 0
 182.693359375 5.78125 160.625 -1.2587890625 141.62109375 12.7109375 c 0
 133.428710938 18.732421875 124.014648438 29.43359375 112.254882812 61.9736328125 c 0
 100.4921875 94.5126953125 97.6884765625 139.280273438 96.6171875 232.627929688 c 0
 95.7705078125 306.383789062 93.982421875 371.975585938 92.609375 378.389648438 c 0
 89.466796875 393.067382812 84.3515625 428.208007812 79.85546875 465.846679688 c 0
 77.943359375 481.841796875 73.052734375 498.895507812 68.9228515625 503.744140625 c 0
 59.2080078125 515.153320312 51.60546875 533.963867188 41.4619140625 573.473632812 c 0
 31.3173828125 612.983398438 47.1455078125 610.424804688 48.529296875 638.64453125 c 1
 78.634765625 658.55078125 148.4296875 648.998046875 169.77734375 635.34765625 c 1
 222.643554688 605.682617188 225.770507812 581.05859375 225.981445312 556.036132812 c 0
 226.202148438 529.883789062 228.564453125 525.561523438 263.879882812 487.892578125 c 0
 284.592773438 465.796875 318.530273438 433.587890625 339.12890625 416.104492188 c 0
 359.725585938 398.624023438 393.923828125 368.477539062 415.288085938 349.237304688 c 0
 436.65234375 329.997070312 464.171875 306.383789062 476.325195312 296.763671875 c 0
 488.477539062 287.142578125 504.217773438 274.024414062 511.307617188 267.611328125 c 0
 572.110351562 212.610351562 607.78515625 183.038085938 608.421875 187.078125 c 0
 615.95703125 234.948242188 614.063476562 524.747070312 604.959960938 708.5390625 c 0
 602.8203125 751.706054688 603.946289062 760.311523438 612.9765625 768.483398438 c 0
 617.004882812 772.127929688 622.096679688 774.099609375 627.005859375 774.49609375 c 2
EndSplineSet
Validated: 33
EndChar

StartChar: O
Encoding: 79 79 14
Width: 700
VWidth: 0
Flags: HW
LayerCount: 2
Fore
SplineSet
389.69921875 773.491210938 m 0
 403.606445312 773.870117188 426.483398438 771.657226562 440.298828125 769.926757812 c 0
 506.90625 763.20703125 595.44140625 663.900390625 624.18359375 602.19140625 c 1
 686.62890625 537.001953125 681.517578125 322.12890625 635.456054688 228.59375 c 1
 607.1328125 181.364257812 566.779296875 142.232421875 525.724609375 106.0390625 c 1
 473.279296875 71.4521484375 418.204101562 38.9228515625 359.041992188 17.4248046875 c 1
 319.329101562 -3.046875 272.91796875 1.5810546875 229.625 -2.4951171875 c 1
 199.58984375 -8.140625 180.24609375 9.8544921875 154.575195312 12.3818359375 c 1
 121.666015625 31.6435546875 89.576171875 56.4384765625 69.9140625 89.7705078125 c 1
 47.8623046875 121.375976562 41.853515625 159.870117188 31.1953125 194.901367188 c 1
 27.2646484375 280.584960938 28.1220703125 368.837890625 54.1220703125 451.362304688 c 1
 82.3642578125 517.263671875 116.791015625 580.8984375 158.356445312 639.450195312 c 1
 193.987304688 694.833984375 247.41015625 738.014648438 308.061523438 763.145507812 c 1
 338.463867188 769.814453125 357.813476562 770.512695312 389.69921875 773.491210938 c 0
392.063476562 612.168945312 m 0
 353.286132812 611.572265625 315.342773438 598.379882812 279.619140625 584.41015625 c 1
 248.57421875 563.391601562 227.587890625 529.118164062 205.69921875 498.897460938 c 1
 159.475585938 415.028320312 114.1640625 322.892578125 122.379882812 224.311523438 c 1
 119.548828125 187.59375 134.118164062 140.215820312 174.783203125 133.126953125 c 0
 238.567382812 122.462890625 306.607421875 129.318359375 365.202148438 157.666992188 c 1
 395.903320312 169.1875 422.376953125 189.590820312 451.669921875 202.858398438 c 1
 493.931640625 234.274414062 514.208007812 279.247070312 544.678710938 321.916015625 c 1
 569.801757812 359.810546875 562.123046875 542.90234375 501.032226562 583.366210938 c 1
 471.424804688 610.498046875 430.88671875 613.674804688 392.063476562 612.168945312 c 0
EndSplineSet
Validated: 33
EndChar

StartChar: P
Encoding: 80 80 15
Width: 700
VWidth: 0
Flags: HW
LayerCount: 2
Fore
SplineSet
356.677734375 788.22265625 m 1
 433.936523438 791.181640625 505.774414062 760.2109375 575.21875 731.604492188 c 1
 608.09765625 700.629882812 645.619140625 668.750976562 659.02734375 624.556640625 c 0
 687.875976562 527.233398438 635.575195312 423.458984375 559.5546875 360.729492188 c 1
 497.046875 311.140625 434.21484375 257.69921875 357.26953125 230.70703125 c 1
 328.905273438 218.46484375 296.8203125 211.697265625 268.25390625 204.415039062 c 1
 269.078125 154.419921875 305.53515625 81.025390625 313.413085938 31.615234375 c 1
 322.874023438 -2.037109375 304.038085938 -19.61328125 265.440429688 -37.0068359375 c 1
 229.409179688 -59.1435546875 194.349609375 -3.05078125 193.23828125 27.30859375 c 1
 185.212890625 58.853515625 191.893554688 37.537109375 185.274414062 59.1962890625 c 1
 178.819335938 104.120117188 164.541015625 160.631835938 156.869140625 208.068359375 c 1
 152.25390625 256.932617188 139.088867188 291.615234375 133.254882812 340.232421875 c 1
 125.307617188 379.948242188 128.286132812 414.385742188 122.478515625 454.0703125 c 1
 117.381835938 464.125 122.818359375 521.87109375 98.9013671875 523.588867188 c 1
 68.2939453125 533.682617188 53.2900390625 567.169921875 44.8955078125 594.787109375 c 1
 42.576171875 624.93359375 14.28125 671.202148438 53.7958984375 687.598632812 c 1
 83.400390625 703.635742188 104.530273438 732.459960938 139.2734375 739.755859375 c 1
 206.231445312 773.263671875 281.931640625 786.368164062 356.677734375 788.22265625 c 1
382.713867188 661.452148438 m 0
 362.451171875 661.086914062 342.201171875 659.852539062 322.048828125 657.75390625 c 1
 288.122070312 648.870117188 226.348632812 657.021484375 217.98828125 613.520507812 c 1
 216.466796875 542.893554688 222.5234375 471.970703125 232.649414062 402.030273438 c 1
 240.899414062 377.76953125 227.595703125 317.948242188 271.314453125 334.805664062 c 0
 306.51171875 347.70703125 341.849609375 362.009765625 374.102539062 381.565429688 c 1
 434.014648438 413.295898438 483.32421875 459.836914062 526.771484375 510.391601562 c 1
 548.405273438 538.489257812 573.466796875 578.12109375 546.454101562 613.666992188 c 1
 495.359375 649.047851562 444.818359375 664.319335938 382.713867188 661.452148438 c 0
EndSplineSet
Validated: 33
EndChar

StartChar: Q
Encoding: 81 81 16
Width: 850
VWidth: 0
Flags: HW
LayerCount: 2
Fore
SplineSet
312.549804688 760.520507812 m 1
 349.487304688 747.977539062 390.1328125 745.4296875 423.529296875 726.458007812 c 1
 490.455078125 674.5625 526.26171875 659.051757812 569.874023438 588.397460938 c 0
 600.430664062 539.979492188 644.850585938 415.954101562 660.47265625 361.577148438 c 1
 687.282226562 242.15234375 647.407226562 221.765625 622.72265625 164.864257812 c 1
 690.836914062 108.271484375 723.987304688 80.3837890625 797.296875 29.990234375 c 1
 829.430664062 18.27734375 827.165039062 -59.69140625 789.57421875 -58.8154296875 c 1
 752.926757812 -72.5341796875 727.182617188 -63.3818359375 698.216796875 -44.470703125 c 1
 664.939453125 -17.4775390625 653.645507812 -7.5341796875 620.319335938 26.373046875 c 1
 593.627929688 35.583984375 575.736328125 61.015625 549.650390625 73.3369140625 c 1
 536.358398438 89.0751953125 526.549804688 68.2861328125 515.50390625 60.4736328125 c 0
 467.678710938 22.90234375 405.012695312 1.765625 344.177734375 0.994140625 c 0
 255.786132812 -0.1259765625 162.903320312 35.8203125 105.35546875 103.123046875 c 0
 79.2646484375 133.634765625 59.2021484375 182.530273438 44.5869140625 216.5390625 c 0
 18.453125 277.34765625 35.884765625 336.440429688 37.09375 400.327148438 c 0
 38.548828125 477.236328125 70.7578125 548.640625 106.1171875 615.65234375 c 0
 146.59765625 690.698242188 222.04296875 757.465820312 312.549804688 760.520507812 c 1
322.022460938 608.161132812 m 1
 265.822265625 608.6015625 214.037109375 570.446289062 193.037109375 520.598632812 c 1
 166.240234375 488.666992188 158.619140625 446.981445312 148.969726562 407.697265625 c 1
 135.959960938 341.717773438 120.431640625 270.26953125 149.859375 206.000976562 c 1
 160.090820312 161.999023438 203.711914062 137.604492188 242.650390625 120.319335938 c 1
 299.793945312 106.709960938 377.711914062 95.3349609375 429.083007812 125.919921875 c 1
 473.908203125 160.7734375 417.98828125 168.19921875 403.462890625 184.174804688 c 0
 378.990234375 211.08984375 344.323242188 217.100585938 326.005859375 247.438476562 c 0
 296.928710938 295.595703125 321.502929688 399.092773438 377.399414062 370.704101562 c 0
 388.8046875 364.91015625 400.939453125 356.421875 412.745117188 344.524414062 c 0
 438.82421875 318.239257812 459.880859375 284.076171875 492.380859375 262.223632812 c 1
 539.157226562 225.947265625 546.083007812 281.823242188 548.908203125 312.024414062 c 1
 539.389648438 429.783203125 498.544921875 461.077148438 469.249023438 512.043945312 c 1
 431.596679688 572.104492188 398.80859375 601.697265625 322.022460938 608.161132812 c 1
EndSplineSet
Validated: 33
EndChar

StartChar: R
Encoding: 82 82 17
Width: 820
VWidth: 0
Flags: HW
LayerCount: 2
Fore
SplineSet
353.328125 783.415039062 m 1
 441.376953125 781.133789062 525.396484375 737.97265625 579.216796875 669.696289062 c 1
 636.22265625 608.115234375 644.197265625 512.715820312 603.58203125 440.791992188 c 1
 562.400390625 359.663085938 483.256835938 308.831054688 405.002929688 266.090820312 c 1
 452.010742188 247.19140625 498.848632812 227.8046875 546.649414062 210.9140625 c 1
 609.081054688 181.733398438 675.686523438 162.21484375 737.62890625 132.102539062 c 1
 777.251953125 120.129882812 813.846679688 62.24609375 765.545898438 37.5546875 c 1
 724.631835938 31.408203125 682.59375 44.16015625 644.362304688 57.91796875 c 1
 591.484375 70.4677734375 541.87890625 92.5732421875 490.583007812 109.947265625 c 1
 405.874023438 130.548828125 328.438476562 170.889648438 248.758789062 204.538085938 c 1
 223.887695312 222.6875 208.161132812 214.239257812 219.655273438 183.709960938 c 1
 226.918945312 143.294921875 221.841796875 94.4755859375 247.727539062 60.8505859375 c 1
 256.32421875 24.216796875 235.735351562 -13.9580078125 198.806640625 -24.4306640625 c 1
 170.866210938 -14.86328125 147.159179688 -1.0546875 136.72265625 35.75 c 0
 130.837890625 56.5029296875 113.068359375 192.245117188 109.545898438 244.057617188 c 0
 106.607421875 287.25 101.448242188 329.744140625 96.38671875 372.110351562 c 1
 92.68359375 420.48046875 96.4609375 469.654296875 91.2783203125 518.473632812 c 0
 87.84375 550.8203125 72.7255859375 572.043945312 52.556640625 593.748046875 c 1
 54.0576171875 622.0859375 -1.0849609375 664.79296875 60.98828125 703.10546875 c 1
 85.4580078125 743.54296875 127.885742188 718.290039062 163.94921875 742.002929688 c 0
 217.93359375 777.497070312 288.40234375 782.876953125 353.328125 783.415039062 c 1
399.719726562 658.591796875 m 0
 363.291992188 660.552734375 326.908203125 655.743164062 291.509765625 647.603515625 c 1
 256.5859375 636.416015625 206.102539062 631.736328125 191.232421875 594.111328125 c 1
 190.59765625 547.079101562 197.067382812 500.182617188 199.645507812 453.223632812 c 1
 208.395507812 423.9296875 191.073242188 361.068359375 235.211914062 359.15625 c 1
 289.450195312 355.443359375 343.043945312 370.397460938 388.64453125 398.934570312 c 0
 422.260742188 419.66796875 456.015625 439.668945312 477.516601562 473.948242188 c 1
 503.791015625 507.408203125 537.931640625 551.948242188 512.2734375 595.079101562 c 1
 486.930664062 630.397460938 443.78515625 655.551757812 399.719726562 658.591796875 c 0
EndSplineSet
Validated: 33
EndChar

StartChar: S
Encoding: 83 83 18
Width: 720
VWidth: 0
Flags: HW
LayerCount: 2
Fore
SplineSet
446.6328125 786.09375 m 1
 460.807617188 785.951171875 474.671875 782.264648438 488.321289062 778.7734375 c 0
 515.454101562 771.677734375 546.258789062 761.869140625 562.344726562 741.705078125 c 1
 591.72265625 716.712890625 596.930664062 676.413085938 597.86328125 640.151367188 c 1
 581.325195312 619.184570312 554.420898438 576.013671875 518.344726562 596.89453125 c 1
 485.844726562 587.69921875 476.872070312 641.895507812 445.450195312 639.008789062 c 1
 360.70703125 625.686523438 274.609375 606.025390625 199.629882812 562.73046875 c 1
 171.650390625 548.525390625 136.78125 498.940429688 180.0390625 471.939453125 c 1
 247.075195312 423.500976562 310.85546875 424.872070312 387.866210938 398.731445312 c 0
 441.384765625 379.87109375 493.079101562 365.80859375 544.374023438 341.202148438 c 1
 587.586914062 322.947265625 631.299804688 296.325195312 660.4375 259.182617188 c 1
 692.51953125 224.154296875 715.416992188 114.18359375 641.245117188 66.3017578125 c 1
 542.436523438 7.0927734375 525.309570312 12.345703125 428.270507812 -1.181640625 c 1
 381.68359375 -3 269.283203125 -12.3916015625 222.537109375 -8.404296875 c 1
 169.704101562 -8.169921875 100.859375 46.845703125 106.639648438 97.91796875 c 1
 106.174804688 156.025390625 143 204.797851562 185.046875 241.024414062 c 1
 210.197265625 267.80078125 267.573242188 259.9765625 263.9609375 208.208007812 c 1
 264.788085938 171.6484375 236.26953125 158.73828125 225.299804688 129.728515625 c 1
 208.50390625 109.048828125 374.12109375 92.6181640625 469.740234375 120.609375 c 1
 546.161132812 156.381835938 571.401367188 178.11328125 530.477539062 211.610351562 c 1
 484.637695312 233.7734375 447.670898438 251.747070312 399.213867188 268.1328125 c 0
 331.051757812 291.18359375 247.693359375 303.359375 181.202148438 330.908203125 c 1
 126.173828125 346.485351562 104.938476562 357.936523438 73.3232421875 391.739257812 c 0
 32.697265625 435.174804688 20.3447265625 504.5703125 35.6259765625 556.881835938 c 1
 52.1611328125 605.970703125 86.626953125 652.557617188 136.624023438 675.149414062 c 1
 188.625976562 707.697265625 244.104492188 735.344726562 303.427734375 751.759765625 c 1
 349.705078125 768.931640625 397.723632812 779.951171875 446.6328125 786.09375 c 1
EndSplineSet
Validated: 33
EndChar

StartChar: T
Encoding: 84 84 19
Width: 780
VWidth: 0
Flags: HW
LayerCount: 2
Fore
SplineSet
595.752929688 777.231445312 m 1
 637.806640625 786.442382812 697.231445312 789.6328125 725.48828125 764.990234375 c 0
 765.1953125 731.15625 744.401367188 671.08984375 689.944335938 666.401367188 c 1
 630.349609375 653.334960938 519.625976562 668.09375 459.375 659.900390625 c 1
 438.8828125 653.901367188 446.712890625 600.415039062 446.93359375 571.795898438 c 1
 456.38671875 420.998046875 468.42578125 311.818359375 478.634765625 161.034179688 c 0
 481.891601562 116.76953125 497.129882812 51.63671875 498.021484375 13.984375 c 1
 502.374023438 -26.78125 429.892578125 -38.2529296875 411.353515625 -7.466796875 c 1
 371.224609375 47.908203125 373.590820312 119.359375 366.985351562 184.41796875 c 0
 354.985351562 307.046875 355.565429688 430.450195312 344.05078125 553.103515625 c 1
 337.671875 583.02734375 341.301757812 627.538085938 321.41015625 645.77734375 c 1
 276.139648438 652.126953125 230.440429688 643.129882812 185.424804688 638.25390625 c 1
 151.854492188 637.970703125 119.404296875 622.373046875 89.80859375 619.9375 c 1
 46.2685546875 620.71484375 35.251953125 661.038085938 34.6025390625 697.498046875 c 1
 26.935546875 747.03125 83.4052734375 755.813476562 119.961914062 750.600585938 c 1
 278.2890625 763.919921875 437.348632812 765.0078125 595.752929688 777.231445312 c 1
EndSplineSet
Validated: 33
EndChar

StartChar: U
Encoding: 85 85 20
Width: 700
VWidth: 0
Flags: HW
LayerCount: 2
Fore
SplineSet
77.82421875 777.594726562 m 1
 114.5546875 769.752929688 150.229492188 734.348632812 166.584960938 700.985351562 c 1
 174.872070312 654.690429688 176.91796875 607.373046875 182.340820312 560.629882812 c 0
 191.991210938 476.713867188 199.07421875 391.240234375 226.969726562 310.958984375 c 1
 243.950195312 253.30859375 263.061523438 192.721679688 309.545898438 151.463867188 c 1
 347.118164062 109.073242188 417.717773438 112.254882812 458.181640625 148.709960938 c 1
 486.366210938 196.637695312 509.702148438 248.102539062 520.94921875 302.790039062 c 1
 550.395507812 390.040039062 533.263671875 482.55859375 535.422851562 573.684570312 c 0
 536.685546875 607.903320312 505.109375 622.321289062 517.306640625 662.791992188 c 1
 507.333984375 703.111328125 547.098632812 749.000976562 584.588867188 714.526367188 c 1
 613.606445312 706.858398438 636.353515625 689.303710938 642.461914062 657.44921875 c 0
 661.141601562 567.1640625 660.577148438 474.154296875 656.440429688 382.451171875 c 1
 647.577148438 338.641601562 639.002929688 294.36328125 630.26171875 250.359375 c 1
 616.399414062 198.526367188 602.020507812 145.998046875 575.122070312 99.107421875 c 1
 541.975585938 21.38671875 450.91015625 -28.5537109375 367.859375 -9.4951171875 c 1
 296.625 10.31640625 238.166015625 63.666015625 198.116210938 124.331054688 c 1
 165.657226562 169.791992188 143.868164062 221.736328125 122.653320312 273.153320312 c 1
 109.071289062 325.84375 93.1064453125 378.186523438 83.5224609375 431.930664062 c 1
 73.244140625 509.727539062 65.7646484375 588.025390625 49.25390625 664.90234375 c 1
 37.0771484375 702.579101562 33.279296875 760.190429688 77.82421875 777.594726562 c 1
EndSplineSet
Validated: 33
EndChar

StartChar: V
Encoding: 86 86 21
Width: 700
VWidth: 0
Flags: HW
LayerCount: 2
Fore
SplineSet
593.4375 776.975585938 m 1
 604.180664062 776.7265625 614.0390625 771.3828125 622.756835938 765.553710938 c 0
 649.103515625 747.478515625 676.423828125 706.732421875 655.682617188 676.491210938 c 1
 601.671875 610.447265625 571.491210938 529.624023438 541.516601562 450.818359375 c 1
 516.626953125 395.545898438 503.770507812 335.864257812 477.307617188 281.213867188 c 1
 467.065429688 246.854492188 452.362304688 214.138671875 437.431640625 181.5078125 c 1
 426.823242188 148.818359375 420.444335938 126.083984375 411.986328125 93.1201171875 c 1
 402.153320312 61.423828125 385.369140625 7.0458984375 341.46875 2.7353515625 c 1
 313.53515625 -11.2802734375 289.541992188 58.55859375 266.565429688 85.9970703125 c 1
 239.0703125 146.04296875 242.442382812 147.184570312 227.04296875 186.791992188 c 0
 200.823242188 250.896484375 178.356445312 314.956054688 150.6796875 377.704101562 c 1
 136.05859375 422.020507812 120.361328125 466.291992188 98.3759765625 507.725585938 c 1
 84.953125 542.40234375 58.3271484375 567.235351562 41.7646484375 599.358398438 c 1
 30.4267578125 627.791992188 38.115234375 680.7265625 78.201171875 677.106445312 c 1
 102.518554688 669.711914062 121.961914062 665.66796875 140.38671875 653.079101562 c 1
 166.966796875 625.432617188 167.255859375 583.329101562 184.823242188 549.374023438 c 1
 203.388671875 522.306640625 204.37109375 489.981445312 221.064453125 461.250976562 c 1
 245.065429688 414.774414062 257.90234375 363.580078125 281.048828125 316.865234375 c 1
 291.556640625 282.709960938 305.223632812 275.3828125 317.72265625 241.2265625 c 1
 340.763671875 236.907226562 345.764648438 245.061523438 355.663085938 279.12109375 c 1
 383.109375 325.2265625 392.262695312 379.603515625 420.86328125 425.141601562 c 1
 444.119140625 479.899414062 471.350585938 533.465820312 487.461914062 590.857421875 c 1
 503.169921875 628.529296875 514.971679688 662.916015625 532.6796875 697.069335938 c 0
 547.905273438 725.909179688 560.129882812 765.26953125 593.4375 776.975585938 c 1
EndSplineSet
Validated: 33
EndChar

StartChar: W
Encoding: 87 87 22
Width: 820
VWidth: 0
Flags: HW
LayerCount: 2
Fore
SplineSet
686.801757812 781.39453125 m 1
 725.745117188 772.880859375 771.584960938 762.220703125 781.850585938 724.953125 c 0
 814.169921875 606.982421875 755.921875 463.764648438 742.913085938 346.4765625 c 1
 736.495117188 259.263671875 710.810546875 174.658203125 706.995117188 87.2138671875 c 1
 723.668945312 68.7587890625 695.42578125 51.044921875 717.244140625 35.9072265625 c 1
 701.859375 16.74609375 695.810546875 -19.486328125 661.859375 -16.421875 c 1
 631.235351562 -23.1328125 607.048828125 -4.533203125 587.567382812 12.529296875 c 1
 578.95703125 54.986328125 545.096679688 86.2529296875 527.056640625 124.6484375 c 1
 481.020507812 186.0546875 455.315429688 258.54296875 422.987304688 327.173828125 c 1
 405.09375 354.143554688 397.264648438 398.4765625 387.4296875 418.235351562 c 1
 361.568359375 362.057617188 344.619140625 302.323242188 325.759765625 243.618164062 c 1
 312.170898438 192.768554688 289.780273438 143.96484375 281.676757812 91.9208984375 c 1
 285.120117188 56.6533203125 272.125 -3.4677734375 227.094726562 1.705078125 c 1
 196.674804688 -1.1630859375 181.834960938 23.888671875 163.491210938 41.318359375 c 1
 146.256835938 112.120117188 120.91796875 180.706054688 102.408203125 251.172851562 c 1
 72.7099609375 349.038085938 67.076171875 454.861328125 59.486328125 555.874023438 c 0
 57.478515625 590.014648438 52.17578125 621.28125 30.6279296875 647.733398438 c 1
 29.072265625 674.870117188 25.5908203125 711.267578125 33.5048828125 729.2890625 c 1
 56.3876953125 744.334960938 86.51171875 756.478515625 112.923828125 733.13671875 c 1
 148.553710938 713.334960938 161.943359375 673.635742188 162.395507812 635.559570312 c 1
 174.442382812 539.838867188 180.713867188 486.321289062 196.23046875 391.005859375 c 1
 204.556640625 357.274414062 203.314453125 303.530273438 222.330078125 276.852539062 c 1
 246.75 357.819335938 263.514648438 404.7578125 294.459960938 484.043945312 c 1
 315.7734375 528.208984375 324.713867188 576.3125 332.370117188 624.158203125 c 0
 343.040039062 685.211914062 410.34765625 646.995117188 435.954101562 619.46484375 c 1
 457.438476562 567.142578125 472.413085938 512.28125 491.345703125 458.967773438 c 0
 521.978515625 373.59765625 542.958007812 308.823242188 587.1328125 228.940429688 c 1
 607.984375 184.884765625 616.423828125 210.939453125 617.520507812 232.09765625 c 1
 635.26953125 320.825195312 645.953125 410.623046875 660.240234375 499.904296875 c 1
 671.655273438 559.83203125 681.193359375 620.625 673.756835938 681.71484375 c 1
 652.595703125 711.455078125 638.15234375 768.754882812 686.801757812 781.39453125 c 1
EndSplineSet
Validated: 33
EndChar

StartChar: X
Encoding: 88 88 23
Width: 810
VWidth: 0
Flags: HW
LayerCount: 2
Fore
SplineSet
69.59765625 761.90625 m 0
 85.0048828125 772.310546875 124.088867188 769.73828125 137.66796875 758.231445312 c 0
 241.899414062 669.901367188 309.021484375 596.0078125 404.424804688 498.427734375 c 1
 433.647460938 533.279296875 451.399414062 545.805664062 471.237304688 578.48828125 c 0
 503.595703125 629.424804688 546.830078125 673.264648438 570.069335938 729.643554688 c 1
 580.6875 768.766601562 627.754882812 802.52734375 655.5234375 757.155273438 c 1
 682.189453125 730.655273438 708.293945312 691.90234375 685.09765625 654.594726562 c 1
 631.213867188 594.977539062 585.884765625 527.564453125 531.032226562 468.501953125 c 1
 514.145507812 447.9765625 492.670898438 415.875976562 523.581054688 395.97265625 c 1
 578.427734375 340.103515625 651.271484375 250.712890625 718.23046875 177.987304688 c 1
 735.58203125 149.66015625 761.208984375 129.600585938 773.795898438 100.061523438 c 1
 790.681640625 65.462890625 741.114257812 1.9033203125 700.247070312 14.06640625 c 1
 661.486328125 35.8330078125 657.780273438 49.767578125 628.458007812 82.1796875 c 1
 564.087890625 138.978515625 514.381835938 234.841796875 453.205078125 295.301757812 c 1
 443.263671875 300.40625 425.573242188 338.754882812 415.829101562 324.940429688 c 1
 366.153320312 275.4765625 320.784179688 222.06640625 275.126953125 168.978515625 c 1
 244.904296875 139.258789062 224.137695312 102.073242188 191.33984375 74.2734375 c 1
 170.540039062 42.8037109375 139.818359375 18.9267578125 119.610351562 -12.892578125 c 1
 97.7744140625 -27.6845703125 52.0986328125 -25.666015625 41.2783203125 -2.2470703125 c 0
 24.109375 33.873046875 35.7431640625 66.140625 52.31640625 96.560546875 c 1
 75.9150390625 126.411132812 106.15234375 172.834960938 136.030273438 196.899414062 c 1
 166.70703125 243.97265625 223.13671875 289.333984375 257.00390625 334.14453125 c 1
 309.270507812 396.005859375 318.600585938 381.466796875 321.046875 418.236328125 c 1
 256.498046875 495.176757812 186.350585938 557.439453125 108.333007812 620.862304688 c 1
 65.146484375 652.801757812 -11.6953125 707.010742188 69.59765625 761.90625 c 0
EndSplineSet
Validated: 33
EndChar

StartChar: Y
Encoding: 89 89 24
Width: 720
VWidth: 0
Flags: HW
LayerCount: 2
Fore
SplineSet
109.7578125 784.556640625 m 1
 112.981445312 768.805664062 l 1
 109.7578125 784.555664062 l 1
 128.91015625 783.69140625 137.408203125 782.791992188 161.887695312 765.123046875 c 1
 196.541015625 743.14453125 207.879882812 692.74609375 187.626953125 653.852539062 c 1
 183.133789062 593.709960938 172.583007812 561.76171875 179.465820312 501.203125 c 1
 179.947265625 449.588867188 227.290039062 384.75390625 277.275390625 386.151367188 c 0
 369.173828125 389.171875 450.786132812 457.161132812 480.099609375 540.70703125 c 1
 504.159179688 584.90625 477.453125 622.216796875 500.059570312 667.364257812 c 1
 491.440429688 711.15234375 550.0859375 754.193359375 599.37109375 704.80078125 c 1
 647.947265625 683.62109375 640.0078125 595.193359375 646.09765625 541.545898438 c 1
 668.89453125 403.181640625 670.65625 262.547851562 664.241210938 122.810546875 c 0
 662.48046875 70.7392578125 658.138671875 5.1162109375 599.310546875 -13.759765625 c 1
 538.3125 -23.6923828125 478.0703125 -2.6669921875 417.03125 -2.158203125 c 1
 363.08203125 6.498046875 278.05859375 26.1318359375 230.099609375 50.90234375 c 1
 180.244140625 75.1640625 146.411132812 88.4384765625 124.256835938 141.59765625 c 1
 126.114257812 197.548828125 239.108398438 187.981445312 280.125976562 166.4375 c 0
 365.604492188 121.493164062 426.811523438 84.2685546875 525.793945312 98.388671875 c 1
 595.5703125 137.17578125 559.336914062 223.200195312 563.282226562 277.922851562 c 1
 556.465820312 320.99609375 567.751953125 370.440429688 544.461914062 397.915039062 c 1
 503.712890625 353.615234375 490.5546875 328.587890625 436.973632812 299.33984375 c 1
 383.966796875 273.829101562 263.862304688 267.102539062 205.887695312 273.53125 c 1
 158.522460938 288.814453125 133.580078125 308.2265625 111.485351562 353.330078125 c 1
 81.794921875 409.328125 57.65234375 469.834960938 62.189453125 534.13671875 c 1
 54.806640625 595.89453125 29.4736328125 752.685546875 109.7578125 784.556640625 c 1
EndSplineSet
Validated: 37
EndChar

StartChar: Z
Encoding: 90 90 25
Width: 860
VWidth: 0
Flags: HW
LayerCount: 2
Fore
SplineSet
29.9111328125 719.381835938 m 1
 36.8203125 760.419921875 71.40625 773.181640625 110.251953125 775.03515625 c 1
 173.716796875 769.826171875 237.580078125 775.90234375 301.1640625 776.713867188 c 1
 368.162109375 769.006835938 435.88671875 768.017578125 503.344726562 765.859375 c 1
 547.68359375 761.802734375 591.9140625 760.252929688 635.254882812 773.092773438 c 1
 678.3984375 795.639648438 699.721679688 738.203125 734.296875 724.709960938 c 1
 740.619140625 693.051757812 753.184570312 656.924804688 722.48828125 636 c 1
 666.891601562 600.698242188 622.905273438 551.052734375 579.713867188 502.0078125 c 1
 547.010742188 467.813476562 514.731445312 432.358398438 478.323242188 402.319335938 c 1
 420.46875 351.047851562 369.987304688 291.737304688 312.995117188 239.350585938 c 1
 287.997070312 211.34375 223.92578125 168.266601562 210.921875 132.8671875 c 1
 273.729492188 116.866210938 334.940429688 123.034179688 400.029296875 123.09765625 c 1
 518.111328125 119.188476562 550.629882812 117.451171875 701.512695312 126.586914062 c 1
 727.775390625 120.471679688 786.892578125 136.060546875 801.827148438 114.971679688 c 1
 815.330078125 74.6884765625 854.994140625 52.669921875 819.047851562 38.2421875 c 1
 791.204101562 19.755859375 755.830078125 13.9443359375 721.474609375 7.17578125 c 1
 566.677734375 -11.4091796875 409.357421875 -12.185546875 254.44921875 5.7763671875 c 1
 196.927734375 15.990234375 138.573242188 20.83203125 80.2236328125 16.427734375 c 1
 58.703125 31.6494140625 35.2431640625 57.5654296875 41.861328125 89.404296875 c 1
 47.3681640625 121.318359375 49.115234375 171.734375 82.1123046875 183.822265625 c 1
 134.583984375 223.200195312 175.036132812 276.206054688 222.7265625 321.02734375 c 1
 304.083984375 401.1015625 386.875 479.813476562 464.766601562 563.360351562 c 1
 475.43359375 584.751953125 538.69140625 619.198242188 511.59765625 635.206054688 c 1
 442.0078125 640.143554688 371.987304688 638.783203125 302.22265625 640.498046875 c 1
 247.614257812 638.046875 190.260742188 641.47265625 138.221679688 622.979492188 c 1
 134.127929688 624.102539062 93.7685546875 600.653320312 55.625 620.405273438 c 1
 31.19921875 639.91015625 19.8916015625 684.306640625 29.9111328125 719.381835938 c 1
EndSplineSet
Validated: 33
EndChar

StartChar: a
Encoding: 97 97 26
Width: 580
VWidth: 0
Flags: HW
LayerCount: 2
Fore
SplineSet
173.716796875 -25.8212890625 m 0
 127.26171875 -15.8896484375 75.5400390625 10.1796875 60.9033203125 62.0869140625 c 1
 49.13671875 96.2041015625 42.1455078125 99.2333984375 40.3955078125 136.086914062 c 1
 37.044921875 164.618164062 34.2763671875 226.10546875 52.4892578125 248.6796875 c 1
 86.9921875 298.163085938 147.348632812 310.895507812 200.649414062 322.875 c 1
 265.805664062 335.079101562 333.416992188 343.428710938 398.848632812 328.5 c 1
 407.908203125 358.885742188 402.305664062 387.583007812 388.24609375 438.280273438 c 1
 373.798828125 472.198242188 349.842773438 473.028320312 320.310546875 475.719726562 c 0
 256.63671875 482.0546875 190.84375 463.747070312 138.704101562 424.33984375 c 1
 119.475585938 397.84375 81.9443359375 392.03125 61.052734375 420.810546875 c 1
 40.7099609375 450.762695312 35.1328125 501.17578125 58.0283203125 531.140625 c 1
 104.254882812 560.233398438 154.827148438 582.958984375 207.390625 595.62890625 c 1
 247.721679688 603.830078125 289.280273438 606.51953125 330.243164062 603.749023438 c 1
 366.21875 599.146484375 401.848632812 583.639648438 429.142578125 558.0625 c 1
 455.935546875 530.490234375 481.733398438 473.875 493.10546875 437.014648438 c 0
 511.62109375 372.008789062 490.083007812 321.322265625 504.671875 259.696289062 c 0
 519.260742188 198.069335938 528.43359375 178.16015625 540.096679688 160.583984375 c 1
 549.045898438 103.517578125 527.095703125 34.3662109375 478.202148438 11.5244140625 c 1
 452.327148438 5.65234375 439.704101562 48.0185546875 415.190429688 26.37890625 c 1
 345.241210938 -1.6064453125 273.341796875 -34.466796875 196.876953125 -28.3515625 c 0
 189.118164062 -28.0537109375 181.353515625 -27.3583984375 173.716796875 -25.8212890625 c 0
280.821289062 104.591796875 m 1
 323.360351562 114.197265625 391.733398438 107.977539062 412.17578125 153.983398438 c 1
 422.159179688 220.008789062 359.0625 219.102539062 328.563476562 219.43359375 c 1
 272.373046875 216.922851562 195.870117188 199.677734375 164.905273438 179.268554688 c 1
 130.431640625 171.907226562 118.35546875 124.3125 155.74609375 109.990234375 c 1
 193.33984375 91.0615234375 236.538085938 93.4892578125 276.025390625 103.768554688 c 1
 280.821289062 104.591796875 l 1
EndSplineSet
EndChar

StartChar: b
Encoding: 98 98 27
Width: 600
VWidth: 0
Flags: HW
LayerCount: 2
Fore
SplineSet
92.4404296875 788.291992188 m 1
 108.768554688 789.126953125 130.880859375 774.118164062 140.889648438 763.865234375 c 1
 158.91796875 736.270507812 185.680664062 717.231445312 181.564453125 681.919921875 c 0
 170.252929688 594.911132812 168.865234375 470.755859375 164.26953125 375.350585938 c 1
 234.200195312 408.658203125 276.212890625 481.55078125 425.02734375 457.139648438 c 1
 523.711914062 417.145507812 592 263.977539062 556.165039062 159.999023438 c 1
 538.09375 115.65234375 506.778320312 76.2109375 474.973632812 38.919921875 c 1
 421.8984375 -19.7841796875 355.842773438 -59.8154296875 267.984375 -57.7451171875 c 0
 221.619140625 -57.3486328125 183.28125 -34.3486328125 157.734375 -4.609375 c 0
 138.491210938 18.5087890625 103.145507812 24.771484375 80.2099609375 44.73828125 c 1
 34.2158203125 102.833007812 19.6552734375 182.638671875 50.4248046875 249.49609375 c 1
 66.2744140625 402.557617188 54.1416015625 588.385742188 54.1962890625 681.771484375 c 1
 50.94921875 712.719726562 41.046875 778.373046875 92.4404296875 788.291992188 c 1
20.0244140625 550.625976562 m 1
 19.5537109375 550.71484375 19.6396484375 549.4375 20.0244140625 550.625976562 c 1
360.666015625 318.961914062 m 0
 283.612304688 317.1875 212.5078125 254.1171875 167.731445312 197.595703125 c 1
 154.116210938 157.31640625 174.731445312 113.176757812 205.166015625 83.3076171875 c 1
 220.655273438 63.583984375 247.818359375 54.958984375 273.756835938 59.6708984375 c 0
 344.627929688 74.2392578125 396.376953125 126.471679688 439.310546875 176.243164062 c 1
 452.44921875 196.436523438 450.515625 226.39453125 444.905273438 252.796875 c 0
 435.887695312 298.08984375 403.379882812 320.83203125 360.666015625 318.961914062 c 0
EndSplineSet
Validated: 33
EndChar

StartChar: c
Encoding: 99 99 28
Width: 630
VWidth: 0
Flags: HWO
LayerCount: 2
Fore
SplineSet
225.278320312 -7.822265625 m 0
 154.083007812 10.8388671875 97.7939453125 70.705078125 68.8837890625 141.391601562 c 1
 38.873046875 208.435546875 35.4404296875 285.703125 43.1826171875 358.513671875 c 1
 60.029296875 460.240234375 126.015625 554.34375 216.439453125 592.922851562 c 1
 257.65234375 607.34375 305.67578125 616.231445312 346.470703125 595.788085938 c 0
 365.93359375 586.856445312 378.875976562 562.014648438 398.793945312 557.546875 c 1
 405.897460938 532.87109375 421.240234375 510.528320312 433.91796875 486.08984375 c 1
 453.99609375 462.94921875 444.153320312 425.659179688 424.251953125 406.112304688 c 1
 407.208984375 379.91015625 372.185546875 384.208984375 351.6484375 403.176757812 c 1
 334.774414062 411.4375 327.008789062 435.26171875 325.171875 446.8203125 c 1
 308.114257812 440.532226562 297.135742188 464.831054688 276.482421875 450.733398438 c 1
 222.31640625 436.579101562 187.622070312 383.768554688 161.93359375 334.504882812 c 1
 138.0234375 285.96875 128.954101562 216.916015625 168.99609375 175.001953125 c 1
 212.747070312 132.684570312 277.520507812 136.40625 331.358398438 149.263671875 c 1
 395.290039062 165.98828125 456.131835938 197.107421875 509.361328125 238.341796875 c 1
 527.549804688 260.264648438 564.556640625 264.104492188 577.80859375 234.325195312 c 1
 579.256835938 205.7421875 589.739257812 177.834960938 590.357421875 150.8359375 c 1
 577.381835938 118.486328125 551.004882812 96.5439453125 527.818359375 74.6494140625 c 0
 495.904296875 44.0166015625 452.109375 33.7060546875 414.102539062 14.3115234375 c 1
 356.9296875 -13.1376953125 291.270507812 -21.0078125 229.7265625 -9.0185546875 c 1
 225.278320312 -7.822265625 l 1
 225.278320312 -7.822265625 l 0
EndSplineSet
EndChar

StartChar: d
Encoding: 100 100 29
Width: 800
VWidth: 0
Flags: HW
LayerCount: 2
Fore
SplineSet
344.506835938 703.318359375 m 1
 333.1328125 742.532226562 323.981445312 792.223632812 386.888671875 784.6328125 c 0
 449.795898438 777.041992188 467.5703125 774.430664062 480.182617188 747.734375 c 1
 506.961914062 608.962890625 517.887695312 458.24609375 518.47265625 315.745117188 c 1
 528.095703125 249.90234375 521.791015625 189.877929688 554.787109375 130.036132812 c 1
 572.055664062 83.849609375 593.03515625 56.60546875 640.75 72.234375 c 1
 678.173828125 80.8681640625 650.427734375 96.7294921875 689.65234375 101.268554688 c 1
 732.891601562 95.6943359375 772.565429688 47.572265625 757.642578125 22.7294921875 c 1
 742.965820312 -14.6513671875 728.59375 -48.88671875 667.112304688 -53.0625 c 1
 617.356445312 -62.7431640625 565.169921875 -63.3955078125 524.024414062 -35.3662109375 c 0
 500.83203125 -18.6806640625 478.890625 32.4775390625 452.0078125 -4.4208984375 c 1
 406.057617188 -43.775390625 379.241210938 -58.39453125 338.787109375 -61.7333984375 c 1
 290.216796875 -61.541015625 244.045898438 -51.748046875 197.639648438 -35.65234375 c 1
 132.724609375 7.4208984375 78.6201171875 90.1162109375 56.380859375 170.352539062 c 0
 33.0166015625 254.646484375 29.0703125 356.188476562 72.193359375 432.29296875 c 0
 93.94921875 470.6875 138.607421875 502.163085938 181.458007812 507.05078125 c 0
 298.182617188 520.364257812 309.178710938 500.46875 350.215820312 498.375976562 c 1
 386.427734375 475.608398438 345.584960938 636.395507812 344.506835938 703.318359375 c 1
380.4609375 331.78515625 m 1
 376.471679688 371.393554688 310.748046875 379.815429688 266.998046875 379.670898438 c 1
 208.353515625 373.163085938 184.538085938 362.389648438 169.865234375 328.311523438 c 0
 147.75390625 276.953125 164.780273438 152.55859375 241.84375 90.1748046875 c 0
 280.995117188 58.482421875 345.166992188 69.216796875 387.70703125 107.041992188 c 1
 415.69140625 148.576171875 398.712890625 286.266601562 380.4609375 331.78515625 c 1
EndSplineSet
EndChar

StartChar: e
Encoding: 101 101 30
Width: 650
VWidth: 0
Flags: HW
LayerCount: 2
Fore
SplineSet
300.669921875 -40.470703125 m 1
 262.177734375 -38.9775390625 224.74609375 -26.3173828125 188.610351562 -14.408203125 c 1
 130.923828125 16.8359375 98.998046875 45.9208984375 72.5732421875 102.737304688 c 0
 38.8671875 172.383789062 39.5693359375 269.083984375 42.03125 338.463867188 c 1
 51.2705078125 406.705078125 92.6240234375 478.1796875 152.135742188 514.729492188 c 1
 200.982421875 550.33984375 253.831054688 567.96875 310.568359375 574.296875 c 1
 398.754882812 582.247070312 446.211914062 546.375 490.0234375 505.9765625 c 1
 536.630859375 468.158203125 577.71875 411.192382812 606.0390625 347.84375 c 1
 616.868164062 308.822265625 597.717773438 262.565429688 551.772460938 266.09765625 c 1
 488.774414062 250.647460938 425.115234375 237.663085938 362.125 222.510742188 c 1
 295.3828125 203.477539062 225.342773438 195.983398438 160.680664062 169.98046875 c 1
 151.4765625 140.759765625 177.838867188 117.934570312 203.010742188 101.225585938 c 1
 228.23828125 80.333984375 268.634765625 69.5576171875 299.55859375 68.853515625 c 0
 361.53515625 69.326171875 454.872070312 99.8193359375 514.844726562 112.920898438 c 1
 551.48828125 126.360351562 595.502929688 98.3125 576.118164062 57.6640625 c 1
 565.717773438 13.8203125 529.442382812 11.0244140625 495.229492188 -2.94921875 c 1
 450.275390625 -27.46875 350.982421875 -44.2041015625 300.669921875 -40.470703125 c 1
452.870117188 371.53125 m 1
 435.4375 408.89453125 398.764648438 445.587890625 357.862304688 452.594726562 c 1
 303.501953125 456.78515625 247.909179688 438.108398438 209.331054688 399.005859375 c 1
 174.807617188 372.551757812 161.823242188 328.984375 150.953125 288.829101562 c 1
 176.2109375 303.120117188 331.927734375 325.629882812 423.344726562 354.524414062 c 1
 434.708984375 360.185546875 445.956054688 360.56640625 452.870117188 371.53125 c 1
EndSplineSet
EndChar

StartChar: f
Encoding: 102 102 31
Width: 630
VWidth: 0
Flags: HW
LayerCount: 2
Fore
SplineSet
299.306640625 784.706054688 m 0
 305.635742188 784.880859375 313.092773438 784.735351562 322.244140625 784.456054688 c 0
 352.04296875 783.546875 375.181640625 779.340820312 396.306640625 767.737304688 c 0
 417.413085938 756.143554688 435.629882812 737.888671875 457.556640625 710.581054688 c 0
 466.5 699.443359375 474.849609375 679.19140625 482.150390625 659.174804688 c 0
 485.813476562 649.131835938 488.93359375 639.3984375 490.962890625 631.268554688 c 0
 491.96875 627.23828125 492.745117188 623.58203125 493.119140625 620.143554688 c 0
 493.186523438 619.529296875 493.287109375 618.61328125 493.369140625 617.737304688 c 0
 494.987304688 616.700195312 496.432617188 615.39453125 497.650390625 613.768554688 c 0
 500.35546875 610.157226562 501.286132812 606.151367188 501.681640625 602.862304688 c 0
 502.493164062 596.116210938 501.397460938 589.126953125 499.525390625 581.987304688 c 0
 497.912109375 575.834960938 496.353515625 566.557617188 493.869140625 557.643554688 c 0
 491.384765625 548.729492188 488.327148438 539.76171875 481.025390625 534.018554688 c 0
 480.251953125 533.416992188 478.838867188 532.815429688 477.869140625 532.674804688 c 0
 467.1875 531.055664062 458.404296875 527.951171875 448.119140625 527.456054688 c 0
 437.833984375 526.9609375 426.56640625 529.729492188 413.275390625 538.831054688 c 0
 413.151367188 538.912109375 412.955078125 539.052734375 412.837890625 539.143554688 c 0
 404.823242188 545.603515625 398.333984375 552.666992188 394.837890625 562.737304688 c 0
 391.407226562 572.6171875 390.557617188 584.006835938 389.681640625 601.831054688 c 0
 388.63671875 623.0859375 383.952148438 639.315429688 379.400390625 647.987304688 c 0
 375.295898438 655.806640625 373.94140625 657.69921875 371.525390625 659.424804688 c 1
 365.64453125 659.966796875 357.959960938 660.749023438 353.150390625 661.299804688 c 0
 352.047851562 661.42578125 348.15234375 661.114257812 343.556640625 659.924804688 c 0
 338.9609375 658.735351562 333.431640625 656.784179688 327.806640625 654.174804688 c 0
 316.442382812 648.90234375 304.083007812 641.079101562 294.931640625 632.924804688 c 0
 285.731445312 624.727539062 274.997070312 607.17578125 269.837890625 589.956054688 c 0
 259.95703125 556.975585938 260.059570312 481.803710938 270.900390625 441.362304688 c 0
 275.526367188 424.106445312 283.754882812 391.41796875 289.244140625 368.299804688 c 2
 297.025390625 335.643554688 l 1
 328.931640625 335.081054688 l 2
 340.140625 334.881835938 351.018554688 334.893554688 359.431640625 335.049804688 c 0
 363.639648438 335.127929688 367.245117188 335.251953125 369.837890625 335.393554688 c 0
 371.01171875 335.458007812 372.145507812 335.587890625 372.931640625 335.674804688 c 0
 373.325195312 335.717773438 373.594726562 335.73828125 373.869140625 335.768554688 c 0
 374.005859375 335.783203125 373.965820312 335.80859375 374.556640625 335.831054688 c 0
 374.58984375 335.83203125 374.73828125 335.828125 374.775390625 335.831054688 c 0
 374.786132812 335.833007812 374.795898438 335.829101562 374.806640625 335.831054688 c 0
 374.817382812 335.833007812 374.827148438 335.829101562 374.837890625 335.831054688 c 0
 376.055664062 336.010742188 377.369140625 336.209960938 378.244140625 336.268554688 c 0
 379.90234375 336.37890625 381.944335938 336.46484375 384.400390625 336.549804688 c 0
 389.314453125 336.719726562 395.7734375 336.829101562 403.525390625 336.924804688 c 0
 419.046875 337.115234375 439.5234375 337.16796875 461.275390625 337.018554688 c 0
 494.24609375 336.791992188 514.830078125 336.236328125 529.619140625 334.393554688 c 0
 544.4765625 332.54296875 554.34765625 328.864257812 562.337890625 322.956054688 c 0
 565.586914062 320.553710938 573.546875 316.471679688 579.775390625 309.018554688 c 0
 586.00390625 301.565429688 589.948242188 289.940429688 586.025390625 275.268554688 c 0
 582.094726562 260.567382812 572.705078125 250.625 561.806640625 243.831054688 c 0
 550.908203125 237.036132812 538.478515625 232.881835938 526.806640625 228.393554688 c 0
 502.979492188 219.231445312 495.686523438 217.6015625 486.837890625 216.268554688 c 0
 469.090820312 213.594726562 442.35546875 211.413085938 403.619140625 209.174804688 c 0
 384.571289062 208.07421875 366.625 206.474609375 353.275390625 204.862304688 c 0
 346.6328125 204.059570312 341.1484375 203.232421875 337.431640625 202.518554688 c 1
 337.575195312 201.784179688 337.580078125 201.147460938 337.837890625 200.549804688 c 0
 343.825195312 186.669921875 346.993164062 174.393554688 350.462890625 152.331054688 c 0
 351.637695312 144.859375 357.61328125 113.813476562 363.462890625 85.1435546875 c 0
 370.999023438 48.2060546875 373.565429688 2.7109375 372.025390625 -37.9189453125 c 0
 370.487304688 -78.48046875 366.127929688 -113.311523438 353.994140625 -133.231445312 c 0
 344.544921875 -148.744140625 335.661132812 -159.857421875 324.150390625 -166.293945312 c 0
 312.461914062 -172.829101562 299.094726562 -172.903320312 285.806640625 -168.918945312 c 0
 269.66796875 -164.080078125 256.118164062 -151.791992188 246.525390625 -138.043945312 c 0
 236.977539062 -124.361328125 230.096679688 -108.033203125 234.869140625 -92.3876953125 c 0
 237.8671875 -82.560546875 243.411132812 -71.68359375 249.869140625 -64.2939453125 c 0
 252.845703125 -60.8876953125 258.341796875 -47.3662109375 261.025390625 -29.2939453125 c 0
 263.721679688 -11.13671875 264.790039062 12.10546875 264.119140625 37.6123046875 c 0
 262.7890625 88.15234375 254.641601562 147.701171875 240.556640625 196.362304688 c 1
 239.412109375 196.670898438 237.578125 197.100585938 234.619140625 197.362304688 c 0
 224.45703125 198.260742188 203.8359375 197.926757812 167.462890625 196.612304688 c 2
 85.744140625 193.643554688 l 2
 80.9599609375 193.46484375 76.8212890625 195.895507812 74.619140625 200.081054688 c 2
 60.681640625 226.612304688 l 2
 51.2705078125 244.549804688 45.3427734375 264.618164062 43.244140625 282.331054688 c 0
 42.1962890625 291.172851562 42.0517578125 299.459960938 43.275390625 306.987304688 c 0
 44.4873046875 314.439453125 47.10546875 322.091796875 53.494140625 327.393554688 c 0
 60.9580078125 333.587890625 70.333984375 334.19921875 83.181640625 334.674804688 c 0
 96.275390625 335.159179688 114.103515625 334.568359375 138.494140625 332.987304688 c 0
 156.958984375 331.791015625 174.393554688 331.067382812 187.400390625 330.893554688 c 0
 192.869140625 330.8203125 196.971679688 330.881835938 200.525390625 330.987304688 c 1
 200.063476562 336.403320312 198.661132812 344.372070312 196.400390625 353.018554688 c 0
 191.649414062 371.188476562 186.569335938 392.533203125 184.806640625 402.018554688 c 0
 183.38671875 409.661132812 179.448242188 425.849609375 176.369140625 436.424804688 c 0
 174.66015625 442.294921875 173.3515625 447.633789062 172.619140625 452.018554688 c 0
 172.260742188 454.165039062 171.994140625 456.178710938 171.994140625 458.331054688 c 0
 171.995117188 458.9921875 172.165039062 460.815429688 172.619140625 462.581054688 c 0
 172.107421875 464.711914062 171.0703125 468.18359375 169.587890625 472.081054688 c 0
 169.583984375 472.081054688 169.576171875 472.081054688 169.572265625 472.081054688 c 0
 169.568359375 472.081054688 169.560546875 472.081054688 169.556640625 472.081054688 c 0
 168.077148438 475.97265625 167.569335938 479.899414062 166.931640625 484.831054688 c 0
 166.280273438 489.866210938 165.690429688 495.973632812 165.181640625 502.924804688 c 0
 164.166015625 516.805664062 163.458984375 533.953125 163.025390625 551.331054688 c 0
 162.591796875 568.715820312 162.48046875 586.318359375 162.775390625 601.206054688 c 0
 163.0703125 616.065429688 163.571289062 627.6953125 165.150390625 635.549804688 c 0
 171.251953125 665.899414062 186.508789062 700.26953125 204.650390625 724.049804688 c 0
 209.823242188 730.831054688 214.596679688 737.157226562 218.119140625 741.862304688 c 0
 232.966796875 761.690429688 241.405273438 765.0625 250.400390625 770.206054688 c 0
 252.065429688 771.818359375 253.838867188 772.944335938 255.681640625 773.831054688 c 0
 258.161132812 775.0234375 260.82421875 775.982421875 263.494140625 776.862304688 c 0
 268.833984375 778.62109375 274.5078125 780.219726562 276.025390625 780.862304688 c 0
 282.569335938 783.631835938 289.866210938 784.4453125 299.306640625 784.706054688 c 0
EndSplineSet
Validated: 33
EndChar

StartChar: g
Encoding: 103 103 32
Width: 600
VWidth: 0
Flags: HW
LayerCount: 2
Fore
SplineSet
274.359375 635.268554688 m 1
 274.359375 635.268554688 l 1
 286.981445312 635.217773438 299.307617188 634.122070312 311.078125 632.081054688 c 0
 311.149414062 632.068359375 311.225585938 632.061523438 311.296875 632.049804688 c 0
 360.662109375 625.733398438 389.4296875 619.462890625 410.296875 610.956054688 c 0
 431.116210938 602.46875 443.719726562 591.73828125 459.984375 577.737304688 c 0
 460.05859375 577.680664062 460.03125 577.708007812 460.109375 577.643554688 c 0
 460.122070312 577.6328125 460.127929688 577.653320312 460.140625 577.643554688 c 0
 460.158203125 577.62890625 460.185546875 577.625976562 460.203125 577.612304688 c 0
 485.926757812 556.588867188 504.958007812 529.744140625 528.484375 515.737304688 c 0
 528.495117188 515.7265625 528.504882812 515.716796875 528.515625 515.706054688 c 0
 529.348632812 515.205078125 530.198242188 514.571289062 530.984375 513.706054688 c 0
 543.428710938 500.059570312 546.001953125 481.65625 545.953125 464.393554688 c 0
 545.904296875 447.131835938 543.147460938 429.884765625 542.234375 416.987304688 c 0
 542.233398438 416.9765625 542.235351562 416.966796875 542.234375 416.956054688 c 0
 538.077148438 355.1328125 539.125976562 292.250976562 538.421875 229.331054688 c 0
 538.421875 229.311523438 538.421875 229.319335938 538.421875 229.299804688 c 0
 538.421875 229.2890625 538.421875 229.279296875 538.421875 229.268554688 c 0
 538.421875 229.248046875 538.421875 229.2265625 538.421875 229.206054688 c 0
 536.717773438 136.1640625 540.301757812 41.6494140625 527.578125 -52.4189453125 c 0
 527.578125 -52.439453125 527.578125 -52.4609375 527.578125 -52.4814453125 c 1
 527.591796875 -52.390625 527.55078125 -52.578125 527.515625 -52.7939453125 c 0
 527.504882812 -52.8564453125 527.532226562 -52.794921875 527.515625 -52.8876953125 c 2
 527.484375 -52.8876953125 l 1
 515.73828125 -122.073242188 460.564453125 -190.620117188 384.109375 -191.387695312 c 1
 325.487304688 -198.284179688 271.204101562 -174.473632812 223.015625 -149.700195312 c 0
 222.924804688 -149.654296875 222.82421875 -149.62109375 222.734375 -149.575195312 c 2
 222.734375 -149.543945312 l 2
 222.723632812 -149.543945312 222.713867188 -149.543945312 222.703125 -149.543945312 c 0
 175.697265625 -128.572265625 156.491210938 -104.973632812 121.296875 -72.5751953125 c 0
 121.265625 -72.544921875 121.234375 -72.5126953125 121.203125 -72.4814453125 c 0
 89.849609375 -42.9921875 54.462890625 12.5322265625 55.046875 59.7373046875 c 1
 52.90625 71.453125 54.119140625 81.7568359375 59.453125 89.5498046875 c 0
 65.04296875 97.716796875 74.20703125 101.389648438 82.890625 101.924804688 c 0
 99.4765625 102.946289062 116.874023438 94.9013671875 127.828125 81.5498046875 c 1
 158.064453125 56.0224609375 171.702148438 20.4033203125 197.265625 0.8310546875 c 0
 197.265625 0.8203125 197.265625 0.810546875 197.265625 0.7998046875 c 0
 197.365234375 0.72265625 197.48046875 0.630859375 197.578125 0.5498046875 c 2
 197.578125 0.5810546875 l 1
 244.516601562 -38.1533203125 306.223632812 -63.986328125 365.984375 -53.5751953125 c 1
 393.155273438 -44.9326171875 419.569335938 -23.0302734375 423.359375 4.2060546875 c 1
 423.268554688 3.2470703125 423.270507812 3.2802734375 423.359375 4.2373046875 c 0
 423.369140625 4.2998046875 423.37890625 4.3623046875 423.390625 4.4248046875 c 0
 431.00390625 63.546875 430.303710938 93.7841796875 431.640625 149.206054688 c 1
 399.375976562 119.690429688 364.462890625 93.5927734375 299.078125 89.1435546875 c 0
 299.057617188 89.1435546875 299.036132812 89.1435546875 299.015625 89.1435546875 c 0
 279.528320312 88.021484375 246.594726562 92.9755859375 213.765625 101.987304688 c 0
 181.274414062 110.905273438 149.376953125 123.491210938 131.703125 139.893554688 c 1
 90.12109375 165.4140625 69.8564453125 219.979492188 62.140625 282.237304688 c 0
 54.42578125 344.490234375 59.37109375 415.018554688 70.171875 474.206054688 c 0
 70.1865234375 474.354492188 70.21875 474.495117188 70.234375 474.643554688 c 0
 75.96484375 530.022460938 104.965820312 570.608398438 143.421875 596.862304688 c 0
 181.98046875 623.186523438 229.930664062 635.447265625 274.359375 635.268554688 c 1
308.328125 519.081054688 m 0
 260.962890625 518.137695312 232.024414062 507.399414062 213.390625 487.331054688 c 0
 194.756835938 467.262695312 185.860351562 436.801757812 181.234375 395.049804688 c 0
 181.2109375 394.881835938 181.1796875 394.71484375 181.140625 394.549804688 c 0
 175.036132812 365.798828125 172.715820312 311.90625 193.703125 283.081054688 c 0
 212.958007812 256.635742188 243.3203125 235.331054688 283.6640625 229.561523438 c 1
 331.870117188 232.581054688 357.6953125 260.931640625 374.234375 283.987304688 c 0
 390.736328125 306.991210938 399.244140625 337.567382812 413.359375 368.299804688 c 1
 424.1484375 413.8046875 424.321289062 420.194335938 419.640625 460.206054688 c 0
 418.958984375 462.168945312 413.331054688 468.833007812 404.515625 475.362304688 c 0
 395.58203125 481.979492188 383.709960938 489.229492188 371.234375 495.831054688 c 0
 358.7578125 502.432617188 345.6640625 508.43359375 334.296875 512.674804688 c 0
 322.9296875 516.916015625 312.966796875 519.228515625 308.421875 519.081054688 c 0
 308.390625 519.081054688 308.359375 519.081054688 308.328125 519.081054688 c 0
EndSplineSet
Validated: 37
EndChar

StartChar: h
Encoding: 104 104 33
Width: 620
VWidth: 0
Flags: HW
LayerCount: 2
Fore
SplineSet
95.6298828125 712.650390625 m 1
 154.466796875 709.912109375 138.833007812 694.775390625 177.037109375 668.446289062 c 1
 205.28515625 626.189453125 176.3203125 506.196289062 190.1796875 343.103515625 c 1
 231.276367188 411.737304688 249.890625 459.614257812 367.171875 476.930664062 c 1
 448.7421875 476.43359375 565.92578125 423.524414062 579.498046875 266.434570312 c 1
 581.592773438 205.9921875 583.995117188 190.553710938 576.3828125 75.9765625 c 1
 563.311523438 43.982421875 591.47265625 -0.2333984375 545.830078125 -10.53125 c 1
 505.696289062 -2.7373046875 450.701171875 -9.779296875 438.037109375 48.505859375 c 1
 455.9921875 92.47265625 451.092773438 164.91015625 457.62109375 212.418945312 c 1
 461.051757812 252.559570312 455.416992188 289.91015625 429.604492188 313.489257812 c 0
 407.79296875 333.4140625 375.8828125 347.708984375 342.411132812 329.360351562 c 1
 295.115234375 289.743164062 246.91015625 263.76171875 237.737304688 169.198242188 c 1
 237.234375 132.544921875 270.102539062 39.71484375 234.70703125 11.3388671875 c 1
 198.844726562 -3.83203125 168.674804688 -4.3427734375 131.844726562 10.6103515625 c 1
 105.762695312 39.2734375 110.385742188 83.373046875 103.384765625 120.5859375 c 0
 83.96484375 223.814453125 69.998046875 330.239257812 66.0751953125 433.48828125 c 1
 58.0087890625 539.021484375 62.6728515625 570.598632812 44.9423828125 640.353515625 c 1
 25.787109375 669.334960938 50.6044921875 711.931640625 95.6298828125 712.650390625 c 1
50.3603515625 710.877929688 m 1
 49.76171875 707.79296875 49.9423828125 708.7265625 50.3603515625 710.877929688 c 1
EndSplineSet
Validated: 33
EndChar

StartChar: i
Encoding: 105 105 34
Width: 300
VWidth: 0
Flags: HW
LayerCount: 2
Fore
SplineSet
89.125 681.723632812 m 0
 97.8544921875 682.298828125 105.881835938 679.791015625 116.5625 674.723632812 c 0
 122.651367188 671.833984375 128.134765625 668.206054688 132.3125 664.442382812 c 0
 136.491210938 660.677734375 140.03125 657.265625 140.03125 651.598632812 c 0
 140.03125 651.53515625 140.0625 651.532226562 140.0625 651.473632812 c 1
 142.954101562 652.280273438 145.87109375 651.607421875 148.375 650.504882812 c 0
 151.579101562 649.092773438 154.536132812 646.767578125 157.0625 643.723632812 c 0
 158.633789062 641.829101562 160.603515625 640.395507812 162.0625 639.754882812 c 0
 163.522460938 639.11328125 164.021484375 639.580078125 163.34375 639.161132812 c 1
 165.217773438 640.319335938 168.318359375 640.588867188 170.4375 639.504882812 c 0
 172.556640625 638.419921875 173.62890625 636.784179688 174.40625 635.192382812 c 0
 175.9609375 632.0078125 176.5 628.280273438 176.5 623.817382812 c 0
 176.5 620.544921875 177.181640625 616.595703125 178.28125 613.223632812 c 0
 179.380859375 609.850585938 181.05078125 607.016601562 181.9375 606.129882812 c 0
 183.7890625 604.278320312 185.297851562 601.806640625 185.6875 599.004882812 c 0
 186.078125 596.202148438 185.3828125 593.409179688 184.15625 590.786132812 c 0
 181.703125 585.5390625 177.063476562 580.224609375 169.78125 572.942382812 c 0
 164.63671875 567.797851562 159.952148438 562.630859375 156.625 558.598632812 c 0
 154.961914062 556.58203125 153.62890625 554.852539062 152.8125 553.629882812 c 0
 152.404296875 553.017578125 152.135742188 552.528320312 152.03125 552.317382812 c 0
 151.926757812 552.10546875 152.146484375 551.983398438 152.15625 553.317382812 c 1
 152.141601562 551.46875 151.26171875 549.69140625 150.25 548.598632812 c 0
 149.23828125 547.505859375 148.13671875 546.879882812 147.0625 546.379882812 c 0
 144.9140625 545.37890625 142.6328125 544.885742188 140 544.504882812 c 0
 134.734375 543.7421875 128.192382812 543.623046875 121.40625 544.004882812 c 0
 114.620117188 544.385742188 107.66015625 545.254882812 101.75 546.598632812 c 0
 95.83984375 547.94140625 91.0361328125 548.961914062 87.5 553.223632812 c 0
 86.2548828125 554.72265625 84.6171875 555.82421875 83.40625 556.286132812 c 0
 82.197265625 556.748046875 81.7802734375 556.409179688 82.1875 556.661132812 c 1
 79.134765625 554.774414062 74.2919921875 555.416992188 71.875 557.817382812 c 0
 69.4580078125 560.217773438 68.5556640625 563.29296875 68.28125 566.723632812 c 0
 67.130859375 581.0703125 66.7255859375 582.778320312 62.28125 589.754882812 c 0
 61.0078125 591.754882812 60.45703125 593.68359375 59.6875 596.379882812 c 0
 58.91796875 599.075195312 58.140625 602.364257812 57.375 606.098632812 c 0
 55.84375 613.565429688 54.34765625 622.795898438 53.25 632.129882812 c 2
 49.34375 665.536132812 l 2
 49.32421875 665.700195312 49.30859375 665.969726562 49.30859375 666.135742188 c 0
 49.30859375 668.129882812 50.8359375 670.283203125 52.71875 670.942382812 c 2
 72.40625 677.817382812 l 2
 78.59765625 679.975585938 83.8798828125 681.376953125 89.125 681.723632812 c 0
89.4375 487.754882812 m 0
 93.259765625 487.66796875 96.54296875 486.122070312 100.96875 483.754882812 c 0
 103.81640625 482.23046875 107.100585938 481.150390625 109.78125 480.723632812 c 0
 112.4609375 480.295898438 114.525390625 480.940429688 114.125 480.692382812 c 1
 116.587890625 482.21484375 119.540039062 483.190429688 122.71875 482.067382812 c 0
 125.896484375 480.944335938 127.842773438 477.265625 127.84375 474.254882812 c 1
 127.84375 476.819335938 127.390625 475.69140625 128.46875 474.661132812 c 0
 129.545898438 473.630859375 131.434570312 472.14453125 133.8125 470.536132812 c 0
 138.567382812 467.3203125 145.349609375 463.481445312 152.8125 459.973632812 c 0
 163.400390625 454.997070312 170.455078125 451.083984375 175.09375 446.661132812 c 0
 177.412109375 444.450195312 179.201171875 441.99609375 180.03125 439.129882812 c 0
 180.860351562 436.263671875 180.5390625 433.194335938 179.53125 430.567382812 c 0
 178.793945312 428.646484375 178.583007812 426.529296875 178.78125 425.067382812 c 0
 178.978515625 423.606445312 179.604492188 423.133789062 179.3125 423.317382812 c 1
 182.43359375 421.353515625 182.79296875 419.352539062 183.78125 416.879882812 c 0
 184.768554688 414.408203125 185.668945312 411.385742188 186.53125 407.879882812 c 0
 188.254882812 400.869140625 189.7734375 391.950195312 190.75 382.536132812 c 0
 195.252929688 339.09375 210.630859375 229.369140625 229.0625 109.504882812 c 0
 231.388671875 94.3759765625 236.01953125 71.08203125 240.59375 50.3486328125 c 0
 242.880859375 39.982421875 245.154296875 30.2568359375 247.125 22.4736328125 c 0
 249.094726562 14.6904296875 250.881835938 8.62890625 251.6875 6.6611328125 c 0
 254.0078125 0.9931640625 251.986328125 -4.6650390625 249.125 -10.3701171875 c 0
 246.262695312 -16.07421875 242.002929688 -22.017578125 237.0625 -27.5263671875 c 0
 232.12109375 -33.0341796875 226.543945312 -38.0869140625 220.96875 -41.8388671875 c 0
 215.392578125 -45.5908203125 209.876953125 -48.35546875 203.9375 -47.9326171875 c 0
 197.274414062 -47.45703125 186.3046875 -45.9072265625 178.53125 -44.4326171875 c 0
 178.400390625 -44.421875 178.190429688 -44.3935546875 178.0625 -44.3701171875 c 0
 178.057617188 -44.3701171875 178.05078125 -44.3701171875 178.046875 -44.3701171875 c 0
 178.041992188 -44.3701171875 178.03515625 -44.3701171875 178.03125 -44.3701171875 c 0
 173.7109375 -43.5341796875 169.809570312 -42.0576171875 166.65625 -40.0888671875 c 0
 163.501953125 -38.12109375 160.25 -35.673828125 160.25 -30.8388671875 c 0
 160.25 -30.7119140625 159.8359375 -28.7109375 158.875 -26.7138671875 c 0
 157.913085938 -24.716796875 156.515625 -22.537109375 155.125 -20.9326171875 c 0
 144.951171875 -9.197265625 133.360351562 8.638671875 124.65625 24.3798828125 c 0
 120.303710938 32.25 116.6875 39.564453125 114.375 45.4423828125 c 0
 113.21875 48.380859375 112.376953125 50.92578125 111.9375 53.2861328125 c 0
 111.716796875 54.4658203125 111.583984375 55.6103515625 111.6875 56.9111328125 c 0
 111.791015625 58.2109375 112.129882812 59.916015625 113.65625 61.4423828125 c 1
 111.879882812 59.666015625 112.862304688 60.1123046875 113 61.0673828125 c 0
 113.137695312 62.021484375 113.231445312 63.6279296875 113.28125 65.6611328125 c 0
 113.380859375 69.7275390625 113.264648438 75.5244140625 112.90625 82.4736328125 c 0
 112.188476562 96.3701171875 110.614257812 114.889648438 108.59375 134.286132812 c 0
 104.551757812 173.078125 98.4970703125 215.893554688 94.09375 231.661132812 c 0
 91.1201171875 242.307617188 88.5732421875 258.619140625 88.25 269.348632812 c 0
 87.68359375 288.112304688 85.68359375 308.48046875 83.15625 324.411132812 c 0
 81.8916015625 332.375976562 80.4775390625 339.241210938 79.125 344.129882812 c 0
 78.4482421875 346.57421875 77.763671875 348.532226562 77.21875 349.754882812 c 0
 76.6728515625 350.977539062 75.8671875 351.325195312 77.09375 350.567382812 c 1
 73.359375 352.874023438 72.1416015625 356.25390625 70.9375 360.067382812 c 0
 69.732421875 363.879882812 69.03125 368.309570312 69.03125 372.817382812 c 0
 69.03125 379.200195312 65.158203125 389.001953125 62.53125 391.661132812 c 0
 56.1513671875 398.116210938 51.5556640625 405.901367188 49.375 412.754882812 c 0
 48.28515625 416.181640625 47.6611328125 419.368164062 48.375 422.723632812 c 0
 48.7314453125 424.401367188 49.5498046875 426.234375 51.125 427.629882812 c 0
 51.72265625 428.159179688 52.4619140625 428.494140625 53.1875 428.817382812 c 1
 52.9306640625 429.186523438 52.865234375 429.383789062 52.53125 429.786132812 c 0
 44.5458984375 439.407226562 46.576171875 452.83984375 52.78125 462.879882812 c 0
 58.7490234375 472.534179688 69.216796875 480.236328125 81.09375 479.067382812 c 0
 81.1474609375 479.244140625 81.1875 479.205078125 81.1875 479.536132812 c 0
 81.1875 481.392578125 81.6640625 483.668945312 83.375 485.442382812 c 0
 85.0859375 487.215820312 87.52734375 487.797851562 89.4375 487.754882812 c 0
EndSplineSet
Validated: 37
EndChar

StartChar: j
Encoding: 106 106 35
Width: 480
VWidth: 0
Flags: HW
LayerCount: 2
Fore
SplineSet
316.15625 515.487304688 m 0
 331.970703125 515.668945312 340.009765625 515.053710938 356.8125 515.331054688 c 0
 364.844726562 514.466796875 368.786132812 512.366210938 371.46875 509.768554688 c 0
 374.201171875 507.122070312 376.13671875 503.161132812 377.8125 497.206054688 c 0
 381.0703125 485.626953125 382.4140625 467.698242188 392.09375 449.549804688 c 1
 412.140625 369.357421875 410.73828125 284.64453125 416.0625 200.299804688 c 1
 417.24609375 120.09375 427.194335938 41.1025390625 429.90625 -37.6376953125 c 1
 423.334960938 -87.46875 410.682617188 -141.46484375 372.3125 -171.762695312 c 1
 350.76171875 -184.602539062 327.77734375 -184.99609375 302.84375 -180.512695312 c 0
 278.18359375 -176.079101562 252.400390625 -166.704101562 227.0625 -160.981445312 c 1
 166.413085938 -130.709960938 122.110351562 -74.982421875 77.875 -21.4814453125 c 1
 69.830078125 -6.7646484375 59.541015625 9.3701171875 54.15625 24.7373046875 c 0
 48.6689453125 40.3955078125 47.833984375 53.580078125 57.375 66.4873046875 c 0
 57.46484375 66.60546875 57.6044921875 66.8017578125 57.6875 66.9248046875 c 0
 67.4208984375 81.7685546875 82.6298828125 86.5439453125 99.25 84.6123046875 c 0
 115.747070312 82.6943359375 132.625 73.228515625 141.875 60.3935546875 c 1
 158.703125 24.681640625 187.497070312 -0.9140625 211.5625 -27.2939453125 c 0
 211.579101562 -27.3203125 211.607421875 -27.3623046875 211.625 -27.3876953125 c 0
 224.057617188 -40.6806640625 246.15625 -55.3642578125 267.65625 -60.5439453125 c 0
 278.40625 -63.1337890625 290.1484375 -63.47265625 299.375 -56.2001953125 c 0
 308.26171875 -49.1953125 311.421875 -36.82421875 309.9375 -21.5126953125 c 0
 309.939453125 -21.4814453125 309.935546875 -21.4501953125 309.9375 -21.4189453125 c 0
 315.727539062 97.4375 297.763671875 215.297851562 289.78125 331.893554688 c 0
 289.779296875 332.094726562 289.752929688 332.286132812 289.75 332.487304688 c 0
 289.131835938 375.893554688 269.65234375 412.245117188 268.25 449.081054688 c 0
 268.234375 449.471679688 268.1640625 450.102539062 268.09375 450.487304688 c 0
 264.965820312 467.69140625 266.443359375 485.10546875 271.625 496.987304688 c 0
 276.806640625 508.869140625 283.870117188 514.984375 296.0625 514.956054688 c 0
 296.18359375 514.961914062 296.379882812 514.975585938 296.5 514.987304688 c 0
 304.451171875 515.303710938 310.775390625 515.42578125 316.15625 515.487304688 c 0
290.1875 714.924804688 m 2
 290.296875 714.927734375 290.390625 714.890625 290.5 714.893554688 c 0
 290.606445312 714.893554688 290.706054688 714.92578125 290.8125 714.924804688 c 2
 290.8125 714.893554688 l 1
 301.109375 715.05859375 309.421875 711.583984375 315.6875 708.768554688 c 0
 321.901367188 705.9765625 326.453125 703.934570312 329.78125 703.268554688 c 0
 341.369140625 702.514648438 352.248046875 694.142578125 353.8125 681.362304688 c 1
 353.875 681.362304688 l 1
 354.39453125 678.657226562 360.369140625 673.374023438 368.8125 663.331054688 c 0
 369.046875 663.052734375 369.16796875 662.9609375 369.40625 662.674804688 c 2
 369.375 662.643554688 l 1
 380.625976562 650.067382812 384.83203125 630.798828125 375.15625 614.487304688 c 0
 375.151367188 614.478515625 375.161132812 614.463867188 375.15625 614.456054688 c 0
 375.125 614.40234375 375.094726562 614.352539062 375.0625 614.299804688 c 2
 375.03125 614.299804688 l 1
 361.975585938 592.0234375 338.880859375 572.155273438 309.34375 570.893554688 c 1
 309.34375 570.862304688 l 2
 309.301757812 570.859375 309.260742188 570.865234375 309.21875 570.862304688 c 0
 309.112304688 570.858398438 309.013671875 570.834960938 308.90625 570.831054688 c 2
 308.90625 570.862304688 l 1
 296.524414062 570.170898438 284.7109375 573.993164062 273.9375 580.331054688 c 0
 263.036132812 586.744140625 251.958984375 596.428710938 250.4375 612.143554688 c 0
 250.399414062 612.549804688 250.368164062 613.209960938 250.368164062 613.618164062 c 0
 250.368164062 614.110351562 250.413085938 614.905273438 250.46875 615.393554688 c 0
 250.467773438 615.403320312 250.470703125 615.4453125 250.46875 615.456054688 c 0
 250.344726562 616.301757812 250.00390625 618.046875 249.5 620.237304688 c 0
 248.48046875 624.671875 246.877929688 630.86328125 245.78125 637.893554688 c 0
 243.77734375 650.734375 243.1484375 668.19921875 253.84375 682.456054688 c 1
 255.47265625 689.28125 258.426757812 695.9453125 263.375 701.831054688 c 0
 269.310546875 708.890625 279.001953125 714.759765625 290.1875 714.893554688 c 1
 290.1875 714.924804688 l 2
EndSplineSet
EndChar

StartChar: k
Encoding: 107 107 36
Width: 570
VWidth: 0
Flags: HW
LayerCount: 2
Fore
SplineSet
82.0498046875 696.141601562 m 0
 87.541015625 696.319335938 93.0595703125 695.512695312 98.26953125 693.771484375 c 0
 120.729492188 681.841796875 148.776367188 669.030273438 152.194335938 640.165039062 c 0
 158.409179688 568.826171875 156.571289062 496.8984375 158.974609375 425.322265625 c 1
 158.654296875 382.34375 164.90625 339.427734375 164.2890625 296.599609375 c 1
 227.747070312 312.951171875 259.732421875 339.31640625 341.869140625 371.543945312 c 0
 371.392578125 383.44140625 406.6171875 431.797851562 459.329101562 419.547851562 c 1
 487.557617188 410.561523438 504.060546875 375.633789062 470.805664062 346.092773438 c 1
 434.249023438 286.250976562 397.989257812 281.09765625 328.056640625 243.838867188 c 1
 309.635742188 232.063476562 273.612304688 219.352539062 267 206.866210938 c 1
 333.322265625 184.068359375 394.624023438 148.421875 451.560546875 107.747070312 c 1
 474.338867188 87.3076171875 507.828125 73.8134765625 519.078125 43.833984375 c 1
 522.69140625 -6.5107421875 453.1171875 -13.0009765625 424.766601562 -6.7724609375 c 1
 364.565429688 20.4560546875 320.071289062 86.80859375 254.565429688 101.274414062 c 0
 232.241210938 107.073242188 185.951171875 132.05859375 202.125976562 79.044921875 c 0
 210.733398438 50.8310546875 212.490234375 10.87890625 227.416992188 -15.2080078125 c 0
 244.278320312 -44.6748046875 202.83984375 -68.4677734375 171.8203125 -72.9375 c 1
 137.279296875 -80.5419921875 118.7578125 -43.1806640625 110.122070312 -16.03515625 c 1
 93.3388671875 14.025390625 92.5126953125 55.681640625 83.7412109375 88.41796875 c 0
 74.9072265625 123.498046875 69.4111328125 132.081054688 57.0263671875 182.278320312 c 1
 42.712890625 215.508789062 71.5966796875 248.337890625 62.392578125 281.7421875 c 1
 52.158203125 396.0546875 52.01171875 510.9609375 51.7890625 625.64453125 c 1
 53.05078125 652.677734375 39.8466796875 698.790039062 82.0498046875 696.141601562 c 0
EndSplineSet
EndChar

StartChar: l
Encoding: 108 108 37
Width: 440
VWidth: 0
Flags: HW
LayerCount: 2
Fore
SplineSet
98.818359375 790.001953125 m 0
 105.623046875 789.529296875 112.518554688 787.470703125 118.658203125 783.42578125 c 1
 118.658203125 783.454101562 l 1
 126.01953125 779.389648438 138.639648438 773.888671875 150.78515625 765.676757812 c 0
 162.931640625 757.463867188 175.702148438 745.635742188 180.015625 727.78125 c 0
 180.065429688 727.58984375 180.140625 727.27734375 180.182617188 727.083984375 c 0
 187.751953125 688.470703125 188.849609375 650.56640625 195.396484375 615.236328125 c 0
 195.505859375 614.641601562 195.618164062 613.66796875 195.647460938 613.063476562 c 0
 197.009765625 584.284179688 200.85546875 555.364257812 204.536132812 525.931640625 c 0
 204.595703125 525.42578125 204.645507812 524.6015625 204.647460938 524.092773438 c 0
 205.489257812 446.004882812 218.62890625 367.4453125 225.545898438 287.217773438 c 1
 234.3046875 217.951171875 238.654296875 148.939453125 260.013671875 85.814453125 c 0
 260.168945312 85.359375 260.381835938 84.6103515625 260.487304688 84.142578125 c 0
 263.095703125 72.3955078125 268.411132812 68.3720703125 278.181640625 65.1943359375 c 0
 287.766601562 62.0771484375 301.5234375 62.09765625 313.875976562 64.2197265625 c 1
 333.259765625 71.1796875 354.768554688 67.9892578125 372.306640625 57.89453125 c 0
 381.458007812 52.626953125 390.153320312 44.517578125 393.2890625 32.5380859375 c 0
 396.423828125 20.5576171875 392.249023438 7.0341796875 383.28515625 -3.853515625 c 0
 383.0859375 -4.0908203125 382.749023438 -4.4658203125 382.533203125 -4.689453125 c 0
 350.609375 -38.37109375 300.544921875 -52.3603515625 255.806640625 -40.5224609375 c 0
 255.62109375 -40.4736328125 255.434570312 -40.43359375 255.249023438 -40.3837890625 c 2
 255.249023438 -40.35546875 l 1
 201.73828125 -27.6943359375 170.021484375 19.6357421875 148.02734375 59.9560546875 c 0
 147.747070312 60.462890625 147.34765625 61.3115234375 147.135742188 61.8505859375 c 0
 125.509765625 117.536132812 124.47265625 175.876953125 115.815429688 229.120117188 c 0
 115.797851562 229.250976562 115.7734375 229.462890625 115.759765625 229.59375 c 0
 96.7919921875 373.694335938 90.3046875 518.198242188 70.3125 660.181640625 c 0
 70.2353515625 660.765625 70.1728515625 661.717773438 70.1728515625 662.306640625 c 0
 70.1728515625 662.342773438 70.1728515625 662.40234375 70.173828125 662.438476562 c 0
 70.177734375 673.737304688 65.5205078125 685.301757812 59.501953125 698.94140625 c 0
 53.482421875 712.580078125 46.048828125 728.245117188 45.6806640625 747.453125 c 0
 45.677734375 747.565429688 45.67578125 747.748046875 45.67578125 747.861328125 c 0
 45.67578125 748.701171875 45.802734375 750.0546875 45.958984375 750.879882812 c 0
 51.208984375 777.71875 76.3828125 791.561523438 98.818359375 790.001953125 c 0
EndSplineSet
Validated: 33
EndChar

StartChar: m
Encoding: 109 109 38
Width: 920
VWidth: 0
Flags: HW
LayerCount: 2
Fore
SplineSet
91.73046875 657.580078125 m 0
 101.291992188 657.275390625 111.1953125 655.805664062 119.940429688 653.424804688 c 0
 125.76953125 651.837890625 131.067382812 649.861328125 135.510742188 647.333984375 c 0
 139.954101562 644.805664062 143.884765625 641.774414062 145.772460938 636.764648438 c 0
 146.5390625 634.73046875 152.61328125 630.350585938 157.420898438 630.350585938 c 0
 175.8125 630.350585938 201.806640625 620.708007812 230.283203125 606.1875 c 0
 258.759765625 591.666992188 289.177734375 572.034179688 313.920898438 551.124023438 c 0
 362.563476562 510.01953125 416.927734375 418.227539062 447.758789062 328.411132812 c 1
 447.833984375 328.678710938 447.924804688 328.779296875 447.997070312 329.055664062 c 0
 449.756835938 335.791015625 452.254882812 341.317382812 455.682617188 345.43359375 c 0
 457.396484375 347.4921875 459.377929688 349.290039062 462.141601562 350.314453125 c 0
 462.66015625 350.50390625 463.309570312 350.415039062 463.884765625 350.516601562 c 0
 463.8984375 352.176757812 464.033203125 353.861328125 464.3203125 355.80078125 c 0
 464.952148438 360.065429688 466.157226562 365.348632812 467.846679688 371.654296875 c 0
 471.225585938 384.266601562 476.591796875 400.977539062 483.416992188 420.34375 c 0
 497.069335938 459.077148438 516.528320312 508.379882812 537.340820312 555.561523438 c 0
 544.629882812 572.0859375 551.916015625 585.640625 558.973632812 595.860351562 c 0
 566.030273438 606.081054688 572.556640625 613.219726562 580.447265625 616.19140625 c 0
 600.504882812 623.74609375 629.698242188 615.280273438 660.083984375 600.297851562 c 0
 690.470703125 585.315429688 721.59765625 562.908203125 742.415039062 537.973632812 c 0
 769.991210938 504.944335938 801.716796875 425.025390625 818.407226562 350.4765625 c 0
 835.708007812 273.19921875 836.83203125 267.474609375 846.260742188 208.763671875 c 0
 849.377929688 189.3515625 852.884765625 168.072265625 853.986328125 161.728515625 c 0
 855.208984375 154.68359375 858.265625 132.017578125 860.958984375 110.375976562 c 0
 863.641601562 88.8359375 867.806640625 57.060546875 870.23046875 39.86328125 c 0
 873.739257812 14.9658203125 875.169921875 -0.8818359375 873.043945312 -13.4658203125 c 0
 870.916992188 -26.0498046875 864.498046875 -34.8759765625 855.016601562 -42.7119140625 c 0
 848.7890625 -47.8583984375 843.205078125 -51.7724609375 837.345703125 -54.2080078125 c 0
 831.486328125 -56.6435546875 825.198242188 -57.3466796875 819.000976562 -55.8623046875 c 0
 806.609375 -52.89453125 795.141601562 -42.9501953125 777.875976562 -25.8896484375 c 0
 761.703125 -9.9091796875 751.846679688 1.7373046875 745.704101562 20.4599609375 c 0
 739.560546875 39.1826171875 736.93359375 64.2265625 733.065429688 109.004882812 c 0
 727.173828125 177.190429688 712.748046875 261.135742188 696.575195312 331.194335938 c 0
 688.48828125 366.223632812 679.952148438 397.799804688 671.891601562 422.119140625 c 0
 663.830078125 446.438476562 655.365234375 463.955078125 650.971679688 468.508789062 c 0
 649.220703125 470.32421875 647.911132812 471.282226562 647.366210938 471.575195312 c 0
 647.166992188 471.358398438 644.0546875 468.600585938 639.758789062 461.732421875 c 0
 636.037109375 455.780273438 628.768554688 440.290039062 620.423828125 420.625976562 c 0
 612.080078125 400.962890625 602.4375 376.826171875 593.0859375 352.33203125 c 0
 574.384765625 303.34375 556.682617188 252.181640625 552.791992188 233.814453125 c 0
 549.809570312 219.728515625 537.6328125 178.861328125 525.295898438 141.034179688 c 0
 519.224609375 122.419921875 513.685546875 101.825195312 509.685546875 83.8330078125 c 0
 505.685546875 65.8408203125 503.266601562 50.103515625 503.266601562 42.6064453125 c 0
 503.266601562 17.3076171875 497.215820312 2.103515625 480.801757812 -13.384765625 c 0
 464.909179688 -28.380859375 449.754882812 -36.0908203125 433.891601562 -33.0703125 c 0
 418.028320312 -30.05078125 403.592773438 -17.513671875 386.426757812 3.396484375 c 0
 371.981445312 20.9912109375 363.880859375 30.8154296875 360.079101562 44.6630859375 c 0
 356.27734375 58.51171875 356.987304688 74.609375 358.09765625 105.576171875 c 0
 360.791015625 180.6640625 341.912109375 288.51953125 315.426757812 350.314453125 c 0
 304.12890625 376.672851562 286.822265625 408.922851562 271.25 434.341796875 c 0
 263.463867188 447.051757812 256.084960938 458.077148438 250.211914062 465.725585938 c 0
 247.408203125 469.376953125 245.000976562 472.096679688 243.159179688 473.915039062 c 1
 242.744140625 473.068359375 242.424804688 472.6015625 241.970703125 471.4140625 c 0
 240.166015625 466.69140625 238.307617188 459.668945312 237.09765625 451.969726562 c 0
 234.4609375 435.190429688 229.720703125 416.615234375 224.775390625 407.314453125 c 1
 224.922851562 407.590820312 224.19921875 405.729492188 223.666015625 403.119140625 c 0
 223.1328125 400.508789062 222.564453125 396.959960938 222.001953125 392.670898438 c 0
 220.877929688 384.09375 219.768554688 372.556640625 218.713867188 359.149414062 c 0
 216.603515625 332.333984375 214.731445312 297.908203125 213.404296875 263.463867188 c 0
 212.078125 229.01953125 211.3046875 194.551757812 211.344726562 167.618164062 c 0
 211.364257812 154.150390625 211.59765625 142.560546875 212.057617188 133.89453125 c 0
 212.288085938 129.560546875 212.559570312 125.946289062 212.889648438 123.28515625 c 0
 213.219726562 120.623046875 213.786132812 118.686523438 213.681640625 118.928710938 c 1
 218.672851562 107.30078125 221.578125 99.0048828125 221.051757812 90.0859375 c 0
 220.525390625 81.166015625 216.705078125 73.091796875 210.353515625 61.4853515625 c 0
 200.6328125 43.72265625 180.142578125 30.791015625 161.422851562 24.615234375 c 0
 152.063476562 21.52734375 143.1640625 20.080078125 135.352539062 21.5888671875 c 0
 131.446289062 22.34375 127.634765625 23.9501953125 124.734375 26.9951171875 c 0
 121.833984375 30.0400390625 120.256835938 34.435546875 120.256835938 38.935546875 c 0
 120.256835938 41.166015625 119.682617188 43.1201171875 119.1875 44.017578125 c 0
 118.969726562 44.4130859375 118.94140625 44.4287109375 119.029296875 44.380859375 c 1
 117.205078125 44.6494140625 115.921875 45.275390625 114.948242188 45.9541015625 c 0
 113.751953125 46.787109375 112.778320312 47.7236328125 111.778320312 48.7783203125 c 0
 109.779296875 50.88671875 107.711914062 53.5595703125 105.518554688 56.765625 c 0
 101.131835938 63.1767578125 96.2216796875 71.69921875 91.611328125 81.1298828125 c 0
 73.3720703125 118.440429688 68.98046875 167.651367188 62.2529296875 388.072265625 c 0
 60.2021484375 455.247070312 57.5205078125 514.1328125 54.7255859375 557.215820312 c 0
 53.328125 578.756835938 51.9140625 596.34765625 50.525390625 608.970703125 c 0
 49.8310546875 615.282226562 49.1435546875 620.375 48.5048828125 623.977539062 c 0
 47.8662109375 627.580078125 46.658203125 630.25 47.35546875 629.100585938 c 1
 45.7626953125 631.724609375 45.70703125 634.889648438 46.326171875 637.249023438 c 0
 46.9443359375 639.607421875 48.0908203125 641.53515625 49.4560546875 643.299804688 c 0
 52.185546875 646.829101562 56.0048828125 649.875 60.66796875 652.416015625 c 0
 66.7548828125 655.733398438 74.2021484375 657.047851562 82.3408203125 657.499023438 c 0
 85.3935546875 657.66796875 88.5439453125 657.680664062 91.73046875 657.580078125 c 0
EndSplineSet
Validated: 37
EndChar

StartChar: n
Encoding: 110 110 39
Width: 620
VWidth: 0
Flags: HW
LayerCount: 2
Fore
SplineSet
502.249023438 -49.2001953125 m 1
 475.145507812 -12.005859375 450.237304688 32.140625 455.235351562 79.837890625 c 1
 447.153320312 158.423828125 459.581054688 240.208984375 429.442382812 314.134765625 c 1
 408.35546875 399.708007812 280.106445312 449.154296875 223.486328125 443.301757812 c 1
 194.704101562 443.041015625 191.264648438 411.969726562 186.440429688 390.4140625 c 0
 167.776367188 298.229492188 188.495117188 204.487304688 204.439453125 113.569335938 c 1
 205.981445312 85.8271484375 241.860351562 46.04296875 226.405273438 18.662109375 c 1
 214.890625 -9.185546875 197.329101562 -39.4462890625 156.834960938 -19.0849609375 c 1
 104.078125 18.0830078125 92.51171875 82.6728515625 91.7275390625 140.328125 c 1
 87.3466796875 176.423828125 79.9794921875 212.155273438 79.8125 248.674804688 c 1
 73.7470703125 332.466796875 55.7724609375 414.76953125 41.9375 497.405273438 c 1
 32.5078125 537.442382812 73.1962890625 536.760742188 96.9375 522.318359375 c 1
 129.370117188 523.76953125 98.9541015625 512.180664062 176.951171875 560.745117188 c 1
 220.44140625 573.150390625 299.491210938 564.751953125 349.732421875 548.229492188 c 1
 461.259765625 503.416015625 466.08203125 474.163085938 514.18359375 384.629882812 c 1
 555.620117188 303.783203125 548.9140625 226.44140625 549.775390625 154.788085938 c 0
 551.510742188 47.6611328125 588.327148438 47.70703125 577.447265625 -7.576171875 c 1
 568.095703125 -32.2783203125 543.658203125 -73.728515625 512.642578125 -62.1328125 c 1
 507.987304688 -58.9833984375 504.395507812 -54.3740234375 502.249023438 -49.2001953125 c 1
EndSplineSet
Validated: 33
EndChar

StartChar: o
Encoding: 111 111 40
Width: 590
VWidth: 0
Flags: HW
LayerCount: 2
Fore
SplineSet
218.64453125 -14.05859375 m 0
 173.997070312 -6.3798828125 135.703125 17.740234375 107.626953125 55.8623046875 c 0
 75.166015625 99.9404296875 68.009765625 115.673828125 52.7900390625 176.422851562 c 0
 42.0498046875 219.291992188 41.275390625 234.454101562 48.0029296875 270.12890625 c 0
 57.4130859375 320.024414062 90.0341796875 400.032226562 109.62890625 421.27734375 c 0
 117.177734375 429.461914062 123.354492188 438.694335938 123.354492188 441.795898438 c 0
 123.354492188 453.517578125 181.76171875 513.125976562 220.256835938 540.692382812 c 0
 250.146484375 562.095703125 271.541015625 571.190429688 304.48046875 576.495117188 c 0
 328.765625 580.40625 350.658203125 584.000976562 353.12890625 584.484375 c 0
 361.94140625 586.206054688 397.265625 574.137695312 397.265625 569.40625 c 0
 397.265625 566.754882812 407.693359375 553.3203125 420.438476562 539.552734375 c 0
 518.237304688 433.90234375 566.4140625 294.631835938 538.443359375 198.41796875 c 0
 523.51953125 147.080078125 488.634765625 96.51171875 443.426757812 60.6826171875 c 0
 413.302734375 36.80859375 357.62109375 1.419921875 357.62109375 6.1494140625 c 0
 357.62109375 6.8125 347.889648438 3.4130859375 335.99609375 -1.4052734375 c 0
 303.44921875 -14.5908203125 253.220703125 -20.005859375 218.64453125 -14.05859375 c 0
314.397460938 133.478515625 m 0
 374.932617188 162.99609375 444.141601562 235.811523438 452.12890625 278.385742188 c 0
 459.793945312 319.244140625 450.983398438 363.325195312 428.490234375 396.654296875 c 0
 412.237304688 420.737304688 403.5 427.47265625 390.86328125 425.661132812 c 0
 381.811523438 424.36328125 368.326171875 428.802734375 360.896484375 435.525390625 c 0
 327.579101562 465.678710938 225.177734375 401.004882812 175.2734375 318.290039062 c 0
 162.78125 297.583007812 150.948242188 273.254882812 148.979492188 264.228515625 c 0
 133.791992188 194.594726562 141.294921875 142.508789062 168.651367188 127.668945312 c 0
 211.05859375 104.663085938 259.243164062 106.584960938 314.397460938 133.478515625 c 0
EndSplineSet
Validated: 33
EndChar

StartChar: p
Encoding: 112 112 41
Width: 600
VWidth: 0
Flags: HW
LayerCount: 2
Fore
SplineSet
193.780273438 583.443359375 m 2
 233.780273438 585.943359375 l 1
 322.9296875 579.954101562 418.771484375 576.106445312 478.021484375 515.540039062 c 0
 546.694335938 445.342773438 573.301757812 326.897460938 553.385742188 230.736328125 c 0
 537.559570312 154.323242188 515.834960938 69.3505859375 408.536132812 46.826171875 c 0
 331.837890625 30.7255859375 186.973632812 84.96875 164.267578125 86.41015625 c 1
 168.993164062 23.041015625 175.2109375 -0.390625 182.552734375 -43.5 c 0
 189.591796875 -84.8359375 228.318359375 -130.599609375 207.23828125 -166.845703125 c 0
 193.1875 -191.004882812 207.631835938 -194.853515625 127.645507812 -193.197265625 c 0
 121.790039062 -193.484375 115.77734375 -192.564453125 110.51171875 -189.416015625 c 0
 105.408203125 -186.365234375 101.315429688 -181.161132812 99.009765625 -174.330078125 c 0
 98.9365234375 -174.112304688 98.8427734375 -173.920898438 98.7734375 -173.700195312 c 0
 87.28125 -147.497070312 80.4521484375 -119.555664062 78.4482421875 -90.86328125 c 0
 78.43359375 -90.74609375 78.423828125 -90.626953125 78.4091796875 -90.5087890625 c 0
 68.1982421875 -10.0234375 70.64453125 70.9736328125 59.8564453125 150.081054688 c 1
 49.7646484375 178.431640625 32.3505859375 210.672851562 44.1005859375 244.930664062 c 0
 44.2744140625 245.419921875 44.513671875 245.884765625 44.8095703125 246.309570312 c 0
 53.8193359375 259.551757812 55.453125 274.412109375 54.6572265625 290.662109375 c 0
 53.8623046875 306.913085938 50.4716796875 324.17578125 50.28515625 341.19921875 c 0
 47.1259765625 395.08984375 39.130859375 450.140625 45.5185546875 505.374023438 c 1
 45.55859375 505.374023438 l 1
 46.5380859375 521.462890625 55.8330078125 532.819335938 67.734375 536.13671875 c 0
 76.9951171875 538.71875 87.3681640625 536.537109375 96.0556640625 529.9921875 c 1
 105.453125 554.287109375 127.004882812 572.3828125 152.93359375 578.047851562 c 0
 153.090820312 578.094726562 153.249023438 578.119140625 153.40625 578.166015625 c 0
 166.955078125 582.208007812 180.494140625 582.61328125 193.780273438 583.443359375 c 2
200.752929688 474.768554688 m 0
 189.700195312 475.091796875 181.4140625 470.094726562 175.306640625 461.73046875 c 0
 169.200195312 453.366210938 165.7578125 441.5625 165.892578125 429.627929688 c 0
 165.897460938 429.365234375 165.884765625 429.1015625 165.853515625 428.83984375 c 0
 157.237304688 357.528320312 156.017578125 285.266601562 156.084960938 213.18359375 c 1
 261.213867188 147.759765625 376.219726562 145.0859375 402.766601562 196.298828125 c 1
 443.814453125 296.309570312 442.482421875 334.712890625 407.876953125 388.7578125 c 0
 369.5546875 448.607421875 309.13671875 468.330078125 211.939453125 472.798828125 c 0
 211.619140625 472.837890625 211.302734375 472.904296875 210.994140625 472.99609375 c 0
 207.275390625 474.127929688 203.87890625 474.676757812 200.752929688 474.768554688 c 0
EndSplineSet
EndChar

StartChar: q
Encoding: 113 113 42
Width: 650
VWidth: 0
Flags: HW
LayerCount: 2
Fore
SplineSet
146.481445312 588.43359375 m 1
 198.916015625 614.110351562 283.606445312 637.775390625 350.217773438 625.373046875 c 1
 376.87890625 615.786132812 433.047851562 607.366210938 499.912109375 563.323242188 c 1
 554.666015625 539.12890625 516.721679688 401.979492188 513.700195312 321.196289062 c 0
 509.978515625 221.676757812 487.827148438 130.904296875 474.483398438 25.0126953125 c 1
 471.215820312 18.533203125 460.993164062 -15.6689453125 471.278320312 -13.3046875 c 1
 505.947265625 17.3603515625 542.817382812 46.591796875 583.536132812 69.302734375 c 1
 618.240234375 55.7998046875 609.612304688 17.310546875 585.487304688 -2.134765625 c 0
 526.759765625 -51.388671875 497.25 -126.571289062 437.249023438 -174.509765625 c 1
 412.31640625 -200.357421875 359.306640625 -187.788085938 353.95703125 -158.809570312 c 1
 341.685546875 -25.52734375 392.092773438 68.34375 395.8671875 142.427734375 c 1
 404.008789062 185.975585938 253.329101562 0.353515625 125.020507812 117.806640625 c 0
 50.81640625 185.733398438 31.8359375 326.538085938 49.5107421875 447.16015625 c 1
 50.908203125 493.748046875 107.408203125 567.9375 146.481445312 588.43359375 c 1
347.48046875 516.440429688 m 1
 301.870117188 513.5 269.052734375 521.65625 231.256835938 492.934570312 c 1
 121.310546875 464.614257812 154.392578125 202.606445312 260.930664062 228.0703125 c 1
 373.446289062 241.004882812 389.455078125 300.288085938 404.951171875 338.8125 c 1
 423.63671875 433.91796875 397.904296875 518.181640625 347.48046875 516.440429688 c 1
EndSplineSet
Validated: 33
EndChar

StartChar: r
Encoding: 114 114 43
Width: 630
VWidth: 0
Flags: HW
LayerCount: 2
Fore
SplineSet
93.55078125 552.30078125 m 0
 100.384765625 552.30078125 105.776367188 550.048828125 112.078125 547.27734375 c 0
 118.379882812 544.504882812 124.994140625 540.885742188 131.140625 537.05078125 c 0
 137.288085938 533.215820312 142.874023438 529.240234375 147.24609375 525.221679688 c 0
 149.432617188 523.211914062 151.342773438 521.282226562 153.053710938 518.522460938 c 0
 153.91015625 517.142578125 154.794921875 515.55078125 155.262695312 513.106445312 c 0
 155.453125 512.11328125 155.40234375 510.819335938 155.298828125 509.543945312 c 0
 156.225585938 508.352539062 158.001953125 506.466796875 160.358398438 504.76953125 c 0
 164.868164062 501.518554688 168.709960938 497.634765625 171.724609375 493.474609375 c 0
 174.536132812 489.59375 177.018554688 485.795898438 177.354492188 479.791992188 c 1
 180.266601562 478.333984375 182.524414062 476.041992188 183.553710938 474.198242188 c 0
 185.142578125 471.350585938 185.611328125 468.955078125 185.94140625 466.501953125 c 0
 186.107421875 465.262695312 186.037109375 463.938476562 186.083984375 462.653320312 c 1
 196.12109375 471.647460938 209.092773438 483.219726562 216.76171875 490.017578125 c 0
 255.4453125 524.305664062 293.721679688 535.572265625 370.045898438 535.875 c 0
 438.047851562 536.146484375 447.763671875 534.088867188 489.267578125 513.391601562 c 0
 501.618164062 507.232421875 513.809570312 500.115234375 523.793945312 493.3671875 c 0
 533.77734375 486.619140625 541.100585938 481.547851562 546.02734375 474.162109375 c 0
 550.599609375 467.306640625 561.0546875 453.901367188 568.154296875 445.8359375 c 0
 576.255859375 436.631835938 582.036132812 430.05859375 583.58203125 420.501953125 c 0
 585.12890625 410.9453125 580.849609375 402.91015625 575.458984375 394.27734375 c 0
 572.755859375 389.951171875 568.741210938 385.854492188 563.557617188 383.552734375 c 0
 558.375 381.250976562 552.639648438 380.830078125 546.775390625 381.486328125 c 0
 535.048828125 382.798828125 521.515625 387.950195312 501.381835938 396.807617188 c 0
 473.006835938 409.290039062 421.185546875 419.005859375 388.752929688 417.758789062 c 0
 324.508789062 415.287109375 258.166015625 372.102539062 234.434570312 318.455078125 c 0
 228.42578125 304.870117188 220.169921875 269.159179688 217.866210938 243.55859375 c 0
 212.525390625 184.201171875 212.5 194.358398438 218.22265625 135.383789062 c 0
 221.849609375 98.0009765625 224.7109375 71.6982421875 227.059570312 54.251953125 c 0
 228.233398438 45.5283203125 229.282226562 38.998046875 230.1953125 34.5830078125 c 0
 231.108398438 30.1689453125 232.493164062 27.3984375 231.620117188 28.8115234375 c 1
 243.627929688 9.3828125 242.733398438 -16.5439453125 226.311523438 -31.4052734375 c 0
 213.866210938 -42.66796875 199.998046875 -49.2236328125 185.3359375 -48.1875 c 0
 170.672851562 -47.150390625 156.974609375 -39.2470703125 142.756835938 -26.5947265625 c 0
 135.33203125 -19.9873046875 128.619140625 -12.310546875 123.373046875 -4.82421875 c 0
 118.126953125 2.662109375 114.0078125 9.1484375 113.111328125 17.587890625 c 0
 112.173828125 26.4208984375 108.334960938 66.53125 104.489257812 107.413085938 c 0
 100.649414062 148.227539062 96.2119140625 192.122070312 94.76171875 204.043945312 c 0
 93.2138671875 216.763671875 90.1728515625 245.782226562 87.9560546875 268.963867188 c 0
 84.560546875 304.463867188 78.3330078125 345.325195312 71.8505859375 378.208007812 c 0
 68.6103515625 394.649414062 65.2802734375 409.125 62.3017578125 419.7890625 c 0
 60.8125 425.122070312 59.3828125 429.517578125 58.2041015625 432.544921875 c 0
 57.0263671875 435.573242188 55.3896484375 437.4609375 56.7431640625 436.072265625 c 1
 48.6279296875 444.393554688 46.4140625 455.700195312 46.1259765625 467.321289062 c 0
 45.8369140625 478.94140625 47.837890625 491.423828125 51.36328125 503.30859375 c 0
 54.888671875 515.192382812 59.8681640625 526.424804688 66.3994140625 535.412109375 c 0
 72.9306640625 544.3984375 81.642578125 552.30078125 93.55078125 552.30078125 c 0
154.799804688 507.334960938 m 1
 154.5078125 506.18359375 154.28515625 505.01953125 153.624023438 503.94921875 c 1
 154.389648438 505.1875 154.672851562 506.333984375 154.799804688 507.334960938 c 1
172.116210938 481.216796875 m 1
 172.978515625 481.216796875 173.698242188 481.02734375 174.361328125 480.790039062 c 1
 173.616210938 480.947265625 172.916015625 481.216796875 172.116210938 481.216796875 c 1
EndSplineSet
Validated: 33
EndChar

StartChar: s
Encoding: 115 115 44
Width: 600
VWidth: 0
Flags: HW
LayerCount: 2
Fore
SplineSet
383.6171875 636.15234375 m 1
 400.159179688 635.139648438 415.849609375 629.270507812 431.504882812 624.297851562 c 1
 477.069335938 612.327148438 510.384765625 568.198242188 508.611328125 520.91015625 c 1
 515.848632812 494.672851562 489.2109375 478.124023438 472.383789062 463.84375 c 1
 437.836914062 445.03515625 402.145507812 470.477539062 381.776367188 497.840820312 c 1
 325.647460938 494.64453125 269.055664062 482.997070312 216.1640625 463.166992188 c 0
 190.20703125 453.166992188 153.078125 440.118164062 166.241210938 404.413085938 c 1
 207.10546875 364.405273438 256.296875 351.5234375 308.271484375 333.818359375 c 1
 382.66796875 304.353515625 462.987304688 281 523.079101562 225.604492188 c 1
 573.138671875 182.1640625 582.83984375 95.09375 534.517578125 46.9619140625 c 1
 503.256835938 22.69921875 465.415039062 6.7900390625 427.291015625 -3.3583984375 c 1
 351.017578125 -17.06640625 309.7734375 -16.6171875 232.623046875 -15.740234375 c 1
 190.930664062 -16.7939453125 112.6328125 4.89453125 89.1728515625 39.96484375 c 0
 60.873046875 80.7041015625 80.6513671875 135.740234375 109.5625 170.544921875 c 1
 131.190429688 193.280273438 138.666992188 208.625 174.140625 202.01953125 c 0
 212.790039062 195.134765625 234.779296875 160.467773438 212.774414062 134.532226562 c 1
 169.422851562 102.018554688 226.166992188 99.1337890625 253.807617188 96.8154296875 c 0
 306.932617188 93.486328125 364.592773438 90.3349609375 411.602539062 119.706054688 c 1
 450.114257812 130.794921875 424.626953125 163.276367188 397.856445312 168.861328125 c 1
 334.177734375 206.127929688 262.090820312 222.999023438 192.590820312 245.4765625 c 1
 151.065429688 263.451171875 115.254882812 280.146484375 83.583984375 314.983398438 c 1
 30.09765625 366.9921875 14.615234375 451.810546875 62.873046875 508.362304688 c 1
 91.421875 547.609375 138.981445312 563.534179688 180.416015625 584.947265625 c 1
 244.921875 612.120117188 313.78515625 630.379882812 383.6171875 636.15234375 c 1
EndSplineSet
Validated: 33
EndChar

StartChar: t
Encoding: 116 116 45
Width: 600
VWidth: 0
Flags: HW
LayerCount: 2
Fore
SplineSet
178.86328125 688.206054688 m 0
 202.028320312 688.53515625 222.119140625 677.487304688 237.11328125 663.518554688 c 0
 250.829101562 650.740234375 260.879882812 635.508789062 265.39453125 619.487304688 c 0
 266.950195312 616.840820312 267.76171875 614.432617188 268.08203125 612.612304688 c 0
 268.900390625 607.969726562 268.415039062 605.1484375 267.92578125 602.143554688 c 0
 266.947265625 596.133789062 264.984375 590.05078125 262.17578125 583.237304688 c 0
 261.756835938 582.220703125 258.19921875 570.021484375 254.86328125 555.581054688 c 0
 251.528320312 541.140625 247.712890625 523.076171875 244.08203125 504.768554688 c 0
 238.76171875 477.938476562 233.861328125 449.62890625 231.42578125 432.737304688 c 1
 234.5703125 433.108398438 237.149414062 433.360351562 241.39453125 434.018554688 c 0
 249.97265625 435.348632812 258.412109375 436.900390625 264.86328125 438.268554688 c 0
 268.088867188 438.952148438 270.838867188 439.58984375 272.67578125 440.081054688 c 0
 274.512695312 440.572265625 276.435546875 441.71484375 273.45703125 440.081054688 c 1
 284.143554688 445.94140625 294.858398438 446.905273438 364.45703125 455.706054688 c 0
 420.168945312 462.75 452.591796875 463.524414062 490.61328125 456.893554688 c 0
 492.23046875 456.616210938 494.708007812 455.748046875 496.14453125 454.956054688 c 0
 508.587890625 448.061523438 519.180664062 437.334960938 526.70703125 424.393554688 c 0
 534.233398438 411.452148438 539.330078125 394.443359375 531.39453125 378.018554688 c 0
 531.311523438 377.844726562 531.171875 377.564453125 531.08203125 377.393554688 c 0
 526.43359375 368.702148438 516.27734375 360.892578125 503.98828125 356.799804688 c 0
 491.69921875 352.70703125 475.270507812 349.575195312 448.17578125 344.893554688 c 0
 413.373046875 338.879882812 365.893554688 329.990234375 343.51953125 325.299804688 c 0
 320.625976562 320.500976562 298.250976562 315.806640625 293.51953125 314.831054688 c 0
 272.403320312 310.4765625 252.219726562 304.455078125 238.08203125 298.799804688 c 0
 231.774414062 296.276367188 226.952148438 293.844726562 223.86328125 292.018554688 c 1
 224.209960938 283.599609375 225.778320312 264.159179688 228.36328125 243.799804688 c 0
 231.366210938 220.1484375 235.413085938 195.20703125 237.01953125 188.799804688 c 0
 237.025390625 188.775390625 237.044921875 188.666992188 237.05078125 188.643554688 c 0
 248.34765625 149.88671875 264.478515625 119.702148438 281.51953125 100.143554688 c 0
 298.64453125 80.48828125 315.758789062 72.1884765625 330.08203125 72.4560546875 c 0
 373.897460938 73.275390625 407.21484375 86.302734375 472.36328125 125.081054688 c 0
 489.390625 135.216796875 498.174804688 141.05859375 509.42578125 143.893554688 c 0
 515.051757812 145.310546875 522.063476562 145.224609375 527.58203125 143.299804688 c 0
 533.100585938 141.375 536.658203125 138.66015625 539.92578125 136.268554688 c 0
 551.755859375 127.609375 559.618164062 117.202148438 559.55078125 100.643554688 c 0
 559.526367188 94.154296875 559.623046875 83.685546875 559.73828125 77.8623046875 c 0
 560.056640625 61.7998046875 551.482421875 50.3583984375 541.08203125 38.7373046875 c 0
 530.681640625 27.1162109375 516.958007812 15.6435546875 501.17578125 4.6435546875 c 0
 469.610351562 -17.3564453125 430.069335938 -37.2568359375 393.26953125 -46.2626953125 c 0
 379.360351562 -49.6669921875 360.807617188 -49.982421875 340.42578125 -49.4814453125 c 0
 320.043945312 -48.98046875 299.594726562 -47.373046875 284.70703125 -43.8251953125 c 0
 268.904296875 -40.05859375 251.107421875 -32.6181640625 238.45703125 -23.7939453125 c 0
 226.938476562 -15.7578125 213.528320312 -3.8681640625 202.17578125 7.7685546875 c 0
 196.5 13.5869140625 191.428710938 19.265625 187.36328125 24.7060546875 c 0
 185.330078125 27.42578125 183.538085938 30.0615234375 181.95703125 33.1123046875 c 0
 181.07421875 34.8154296875 180.064453125 36.623046875 179.39453125 39.0498046875 c 0
 171.190429688 51.1474609375 164.610351562 65.837890625 158.89453125 79.8935546875 c 0
 152.514648438 95.58203125 147.415039062 110.431640625 145.42578125 115.643554688 c 0
 141.185546875 126.79296875 135.752929688 146.268554688 130.76953125 165.706054688 c 0
 128.278320312 175.424804688 125.97265625 184.954101562 124.20703125 192.987304688 c 0
 122.44140625 201.020507812 121.180664062 206.700195312 120.76953125 212.456054688 c 0
 119.505859375 230.1328125 117.846679688 243.8828125 116.20703125 253.206054688 c 1
 112.0390625 252.98828125 107.9375 253.141601562 103.61328125 253.268554688 c 0
 98.4033203125 253.420898438 93.4228515625 253.875 88.51953125 254.956054688 c 0
 86.0673828125 255.497070312 83.6162109375 256.140625 80.76953125 257.456054688 c 0
 79.5087890625 258.0390625 77.986328125 258.834960938 76.42578125 259.924804688 c 0
 69.32421875 262.989257812 63.287109375 268.203125 60.95703125 271.987304688 c 0
 59.8994140625 273.705078125 60.0712890625 273.591796875 60.08203125 273.706054688 c 0
 58.818359375 274.592773438 57.0400390625 276.315429688 56.11328125 277.549804688 c 0
 44.109375 293.770507812 39.060546875 315.732421875 40.48828125 337.799804688 c 0
 41.2021484375 348.833984375 43.7978515625 360.055664062 50.48828125 369.987304688 c 0
 57.1787109375 379.918945312 69.0595703125 387.801757812 82.70703125 389.206054688 c 0
 82.9560546875 389.23828125 83.3623046875 389.280273438 83.61328125 389.299804688 c 0
 87.728515625 389.510742188 101.6953125 392.924804688 107.33203125 395.487304688 c 0
 110.399414062 396.881835938 111.631835938 397.653320312 111.80078125 397.768554688 c 0
 111.815429688 397.809570312 111.779296875 397.744140625 111.80078125 397.799804688 c 0
 112.500976562 399.564453125 114.13671875 409.204101562 115.64453125 427.768554688 c 0
 117.701171875 453.112304688 121.266601562 485.408203125 124.86328125 513.581054688 c 0
 128.459960938 541.75390625 131.483398438 563.885742188 134.67578125 575.643554688 c 0
 134.733398438 575.856445312 136.215820312 584.254882812 137.23828125 593.643554688 c 0
 138.260742188 603.032226562 139.265625 614.55859375 139.95703125 625.674804688 c 0
 141.125976562 644.466796875 141.619140625 655.157226562 144.89453125 665.331054688 c 0
 146.532226562 670.41796875 149.5078125 675.869140625 153.89453125 679.799804688 c 0
 158.28125 683.73046875 163 685.55859375 166.67578125 686.768554688 c 0
 167.436523438 687.022460938 168.696289062 687.330078125 169.48828125 687.456054688 c 0
 172.701171875 687.948242188 175.848632812 688.163085938 178.86328125 688.206054688 c 0
EndSplineSet
Validated: 33
EndChar

StartChar: u
Encoding: 117 117 46
Width: 640
VWidth: 0
Flags: HW
LayerCount: 2
Fore
SplineSet
196.912109375 -40.6005859375 m 0
 154.275390625 -18.900390625 127.55859375 -4.26953125 105.465820312 38.037109375 c 1
 83.8115234375 75.2001953125 55.9013671875 135.272460938 52.283203125 178.844726562 c 1
 37.71875 261.823242188 38.8876953125 346.4296875 45.39453125 430.123046875 c 0
 47.7548828125 458.168945312 46.109375 486.608398438 48.375 514.456054688 c 1
 62.3984375 543.036132812 98.6240234375 533.334960938 118.803710938 517.407226562 c 0
 138.065429688 503.061523438 168.73046875 493.297851562 172.079101562 466.26953125 c 1
 178.590820312 438.275390625 154.240234375 417.981445312 155.806640625 390.161132812 c 1
 148.84765625 312.266601562 147.947265625 233.12890625 159.483398438 155.635742188 c 1
 167.557617188 119.060546875 185.08984375 94.728515625 220.045898438 76.962890625 c 1
 252.557617188 70.3623046875 278.2578125 84.7373046875 299.895507812 104.615234375 c 1
 347.653320312 154.86328125 376.823242188 220.26171875 394.327148438 286.6484375 c 0
 410.081054688 348.422851562 404.84375 412.641601562 411.686523438 475.42578125 c 1
 410.248046875 510.453125 448.606445312 516.173828125 471.375 497.137695312 c 1
 556.8671875 478.856445312 517.5859375 472.142578125 525.169921875 412.055664062 c 1
 530.41015625 303.173828125 548.366210938 180.684570312 573.056640625 74.2412109375 c 1
 577.342773438 45.6103515625 603.01953125 24.6640625 598.67578125 -5.875 c 1
 604.723632812 -43.7587890625 558.037109375 -56.4052734375 532.8984375 -35.220703125 c 1
 513.63671875 -21.7822265625 492.358398438 -10.208984375 483.951171875 17.0029296875 c 1
 472.388671875 43.345703125 472.918945312 78.8037109375 454.723632812 99.5302734375 c 1
 429.666015625 80.26171875 419.8203125 46.1025390625 396.544921875 24.087890625 c 1
 364.333007812 -11.3994140625 328.25390625 -52.1962890625 277.569335938 -57.58203125 c 1
 249.331054688 -63.5107421875 221.643554688 -53.4072265625 196.912109375 -40.6005859375 c 0
EndSplineSet
Validated: 33
EndChar

StartChar: v
Encoding: 118 118 47
Width: 650
VWidth: 0
Flags: HW
LayerCount: 2
Fore
SplineSet
352.5546875 -72.517578125 m 1
 332.516601562 -64.95703125 300.048828125 -70.302734375 300.956054688 -42.650390625 c 1
 286.044921875 -17.0087890625 286.622070312 14.310546875 272.120117188 39.8291015625 c 1
 256.666015625 82.373046875 227.397460938 117.966796875 207.810546875 158.591796875 c 1
 155.223632812 256.754882812 104.73046875 356.162109375 58.0576171875 457.265625 c 1
 48.88671875 481.458007812 39.380859375 509.102539062 46.267578125 534.681640625 c 1
 69.029296875 569.890625 117.157226562 548.83203125 139.875976562 524.541992188 c 0
 152.287109375 511.5078125 161.938476562 504.0234375 169.734375 491.345703125 c 0
 189.48828125 459.223632812 201.874023438 418.43359375 210.66015625 385.877929688 c 1
 238.616210938 321.452148438 256.615234375 265.060546875 297.67578125 207.909179688 c 0
 311.915039062 186.75390625 322.0078125 126.33984375 355.528320312 149.235351562 c 1
 364.31640625 178.393554688 376.693359375 207.0234375 389.987304688 234.82421875 c 1
 405.196289062 262.78125 413.166992188 294.8515625 430.46875 321.189453125 c 1
 447.283203125 353.139648438 454.462890625 389.263671875 471.537109375 421.166992188 c 0
 487.318359375 450.411132812 498.852539062 479.352539062 509.6015625 510.234375 c 1
 515.942382812 542.353515625 532.267578125 559.255859375 545.65234375 588.927734375 c 1
 577.461914062 607.09765625 593.591796875 563.897460938 603.366210938 540.869140625 c 1
 612.01171875 488.428710938 598.783203125 434.068359375 581.891601562 385.134765625 c 1
 564.333984375 340.04296875 547.081054688 289.295898438 525.47265625 246.188476562 c 1
 517.923828125 212.848632812 489.064453125 164.439453125 477.501953125 132.6171875 c 1
 459.794921875 77.869140625 427.90234375 51.31640625 420.818359375 -6.70703125 c 1
 414.903320312 -25.4462890625 431.112304688 -51.4580078125 403.671875 -64.07421875 c 1
 389.465820312 -74.857421875 369.40234375 -80.5361328125 352.5546875 -72.517578125 c 1
EndSplineSet
Validated: 33
EndChar

StartChar: w
Encoding: 119 119 48
Width: 650
VWidth: 0
Flags: HW
LayerCount: 2
Fore
SplineSet
433.96484375 -43.0615234375 m 0
 420.323242188 -24.771484375 412.580078125 -7.767578125 394.983398438 42.53125 c 0
 362.7890625 134.568359375 347.046875 172.741210938 340.96875 173.506835938 c 0
 336.950195312 174.044921875 335.4375 172.124023438 337.615234375 169.30859375 c 0
 339.79296875 166.493164062 338.48046875 161.127929688 334.698242188 157.387695312 c 0
 330.915039062 153.646484375 321.754882812 133.969726562 314.338867188 113.662109375 c 0
 306.923828125 93.353515625 298.633789062 73.857421875 295.920898438 70.337890625 c 0
 290.7265625 63.59765625 288.155273438 56.44140625 279.030273438 23.3095703125 c 0
 270.060546875 -9.2568359375 261.936523438 -20.181640625 247.994140625 -18.4248046875 c 0
 240.823242188 -17.5205078125 234.645507812 -19.2607421875 234.262695312 -22.2880859375 c 0
 233.91015625 -25.3193359375 226.631835938 -26.642578125 218.15234375 -25.2353515625 c 0
 186.122070312 -19.9189453125 175.157226562 -9.2705078125 170.182617188 21.35546875 c 0
 167.473632812 38.0380859375 159.44921875 76.1181640625 152.350585938 105.979492188 c 0
 137.848632812 166.98828125 133.012695312 187.560546875 131.936523438 192.818359375 c 0
 131.533203125 194.799804688 128.4375 206.25 125.059570312 218.26171875 c 0
 121.68359375 230.274414062 113.954101562 261.268554688 107.883789062 287.137695312 c 0
 94.048828125 346.119140625 71.9990234375 407.87109375 57.6240234375 427.903320312 c 0
 51.568359375 436.344726562 48.3076171875 444.576171875 50.3857421875 446.194335938 c 0
 52.4609375 447.8125 51.8056640625 463.198242188 48.923828125 480.383789062 c 0
 46.044921875 497.5703125 46.0419921875 513.465820312 48.921875 515.709960938 c 0
 51.7998046875 517.952148438 54.6826171875 521.828125 55.330078125 524.321289062 c 0
 66.3154296875 566.703125 113.541992188 552.803710938 148.513671875 496.896484375 c 0
 164.284179688 471.686523438 226.413085938 248.76171875 223.692382812 227.151367188 c 0
 223.000976562 221.763671875 225.087890625 215.227539062 228.296875 212.627929688 c 0
 235.200195312 207.040039062 251.564453125 240.033203125 260.9140625 278.391601562 c 0
 264.568359375 293.380859375 268.174804688 305.56640625 268.927734375 305.471679688 c 0
 270.41015625 305.298828125 275.880859375 323.053710938 282.026367188 347.994140625 c 0
 284.137695312 356.573242188 291.8828125 367.81640625 299.234375 372.978515625 c 0
 311.430664062 381.540039062 315.201171875 380.885742188 342.233398438 365.522460938 c 0
 358.533203125 356.259765625 371.392578125 344.817382812 370.8125 340.095703125 c 0
 370.262695312 335.370117188 375.466796875 326.84375 382.442382812 321.140625 c 0
 389.420898438 315.438476562 394.638671875 306.853515625 394.034179688 302.06640625 c 0
 393.403320312 297.28125 397.586914062 292.774414062 403.267578125 292.05859375 c 0
 408.947265625 291.327148438 412.98046875 285.836914062 412.22265625 279.823242188 c 0
 411.458007812 273.810546875 419.354492188 248.946289062 429.751953125 224.572265625 c 0
 440.150390625 200.197265625 448.309570312 177.494140625 447.885742188 174.120117188 c 0
 447.493164062 170.7421875 449.639648438 165.94140625 452.7265625 163.44140625 c 0
 455.919921875 160.856445312 466.415039062 225.188476562 477.076171875 312.693359375 c 0
 487.37890625 397.28125 498.927734375 481.896484375 502.733398438 500.728515625 c 0
 515.103515625 561.920898438 534.440429688 564.997070312 577.946289062 512.6953125 c 0
 606.541992188 478.31640625 606.8359375 477.348632812 598.494140625 445.151367188 c 0
 589.1015625 408.90234375 570.856445312 268.23046875 551.655273438 84.0078125 c 0
 539.985351562 -27.9541015625 537.830078125 -38.3642578125 522.958984375 -54.5771484375 c 0
 500.58203125 -78.970703125 456.498046875 -73.2666015625 433.96484375 -43.0615234375 c 0
EndSplineSet
Validated: 33
EndChar

StartChar: x
Encoding: 120 120 49
Width: 740
VWidth: 0
Flags: HW
LayerCount: 2
Fore
SplineSet
211.33203125 -43.38671875 m 0
 154.36328125 -11.98046875 155.626953125 -4.8408203125 243.249023438 137.056640625 c 0
 264.056640625 170.754882812 287.959960938 205.743164062 296.366210938 214.809570312 c 2
 311.653320312 231.29296875 l 1
 259.4296875 281.485351562 l 2
 230.708007812 309.090820312 204.08203125 331.677734375 200.259765625 331.677734375 c 0
 196.438476562 331.677734375 193.311523438 334.920898438 193.311523438 338.885742188 c 0
 193.311523438 342.850585938 190.380859375 346.09375 186.797851562 346.09375 c 0
 180.874023438 346.09375 157.203125 365.110351562 108.296875 409.166015625 c 0
 98.3935546875 418.0859375 87.8427734375 425.383789062 84.84765625 425.383789062 c 0
 64.8046875 425.383789062 32.0302734375 526.532226562 48.73046875 536.852539062 c 0
 53.0517578125 539.525390625 54.724609375 544.73046875 52.4443359375 548.421875 c 0
 50.1181640625 552.18359375 62.548828125 555.131835938 80.7333984375 555.131835938 c 0
 98.5732421875 555.131835938 115.208007812 551.834960938 117.697265625 547.805664062 c 0
 120.188476562 543.776367188 124.434570312 541.768554688 127.133789062 543.342773438 c 0
 129.833984375 544.916992188 141.772460938 534.01171875 153.666992188 519.108398438 c 0
 165.560546875 504.206054688 185.021484375 485.211914062 196.915039062 476.900390625 c 0
 217.26953125 462.674804688 247.510742188 435.401367188 334.743164062 352.59375 c 2
 371.655273438 317.552734375 l 1
 435.483398438 401.684570312 l 2
 470.586914062 447.95703125 505.873046875 493.057617188 513.8984375 501.908203125 c 0
 521.92578125 510.758789062 542.243164062 535.798828125 559.051757812 557.551757812 c 2
 589.611328125 597.103515625 l 1
 623.92578125 585.83203125 l 2
 644.736328125 578.99609375 666.322265625 565.0625 678.77734375 550.423828125 c 0
 696.901367188 529.122070312 698.583984375 523.198242188 693.092773438 499.985351562 c 0
 689.671875 485.51953125 680.645507812 470.11328125 673.033203125 465.751953125 c 0
 654.94921875 455.387695312 579.169921875 375.661132812 535.31640625 320.865234375 c 0
 516.280273438 297.078125 497.822265625 275.670898438 494.302734375 273.293945312 c 0
 490.780273438 270.916992188 483.098632812 259.717773438 477.231445312 248.407226562 c 0
 466.640625 227.9921875 466.874023438 227.551757812 509.484375 187.85546875 c 0
 615.240234375 89.3349609375 669.052734375 35.9541015625 669.052734375 29.5673828125 c 0
 669.052734375 14.08203125 653.169921875 -17.5 639.358398438 -29.478515625 c 0
 624.006835938 -42.7919921875 609.010742188 -40.9814453125 588.413085938 -23.326171875 c 0
 581.7265625 -17.59375 573.159179688 -14.8154296875 569.380859375 -17.15234375 c 0
 565.599609375 -19.48828125 556.928710938 -12.5078125 550.110351562 -1.6396484375 c 0
 543.296875 9.2294921875 507.328125 47.6484375 470.188476562 83.736328125 c 0
 410.241210938 141.986328125 401.575195312 148.053710938 392.974609375 137.797851562 c 0
 372.37109375 113.227539062 311.071289062 23.4990234375 287.018554688 -17.2978515625 c 0
 273.141601562 -40.8310546875 258.546875 -60.798828125 254.58203125 -61.6708984375 c 0
 250.616210938 -62.5439453125 231.154296875 -54.3154296875 211.33203125 -43.38671875 c 0
EndSplineSet
Validated: 33
EndChar

StartChar: y
Encoding: 121 121 50
Width: 600
VWidth: 0
Flags: HW
LayerCount: 2
Fore
SplineSet
75.7548828125 624.905273438 m 1
 119.375 625.189453125 148.983398438 588.56640625 144.9140625 551.30859375 c 1
 148.094726562 476.508789062 145.875976562 400.383789062 163.22265625 326.995117188 c 0
 175.232421875 275.084960938 207.381835938 191.702148438 264.50390625 188.41015625 c 0
 324.392578125 184.958007812 353.93359375 226.309570312 386.681640625 320.546875 c 1
 397.624023438 377.71484375 360.404296875 478.875976562 356.71875 528.885742188 c 0
 353.782226562 557.361328125 366.849609375 614.151367188 398.162109375 622.890625 c 1
 441.26953125 631.637695312 478.140625 627.091796875 495.470703125 587.139648438 c 1
 513.021484375 557.91015625 509.069335938 481.524414062 505.248046875 450.766601562 c 1
 514.489257812 409.077148438 518.310546875 366.66015625 527.221679688 324.836914062 c 0
 543.076171875 251.662109375 542.96875 176.377929688 557.713867188 103.029296875 c 1
 567.446289062 33.7900390625 577.306640625 -41.87890625 543.448242188 -106.364257812 c 1
 526.333984375 -146.3125 494.750976562 -179.8984375 451.28515625 -190.16796875 c 1
 413.48046875 -198.06640625 373.904296875 -194.529296875 335.548828125 -192.166992188 c 1
 278.182617188 -191.077148438 211.76953125 -168.272460938 166.55078125 -137.32421875 c 1
 135.721679688 -108.84375 113.869140625 -89.9873046875 86.2861328125 -57.7744140625 c 1
 63.5068359375 -35.015625 32.6123046875 31.3994140625 76.8525390625 49.265625 c 1
 111.327148438 57.5244140625 153.65234375 21.27734375 180.166992188 1.3408203125 c 1
 221.836914062 -38.80859375 283.288085938 -72.673828125 341.036132812 -83.6669921875 c 1
 390.887695312 -82.291015625 420.154296875 -51.0390625 438.688476562 -6.521484375 c 1
 455.14453125 25.4189453125 440.958007812 58.7724609375 439.096679688 92.6259765625 c 1
 435.0078125 107.815429688 431.891601562 153.624023438 422.54296875 146.977539062 c 1
 396.458007812 105.474609375 347.78125 60.046875 302.126953125 47.5029296875 c 1
 164.465820312 43.5302734375 144.451171875 98.1484375 94.375 156.282226562 c 1
 47.3046875 221.953125 42.93359375 306.805664062 38.7900390625 384.625976562 c 1
 32.0390625 448.674804688 44.134765625 495.818359375 37.1025390625 559.822265625 c 1
 24.4609375 592.969726562 42.3359375 627.357421875 75.7548828125 624.905273438 c 1
EndSplineSet
EndChar

StartChar: z
Encoding: 122 122 51
Width: 660
VWidth: 0
Flags: HWO
LayerCount: 2
Fore
SplineSet
159.298828125 0.14453125 m 1
 124.232421875 17.6533203125 81.76171875 54.732421875 97.248046875 98.388671875 c 1
 115.794921875 135.875976562 162.555664062 143.749023438 185.756835938 177.259765625 c 1
 251.974609375 245.073242188 316.135742188 315.762695312 371.20703125 392.912109375 c 1
 335.888671875 410.677734375 269.01953125 401.158203125 222.293945312 408.995117188 c 1
 165.9765625 415.47265625 106.515625 411.45703125 52.3525390625 426.7421875 c 1
 23.9072265625 450.698242188 -7.552734375 522.456054688 43.3173828125 536.715820312 c 1
 99.0849609375 534.860351562 152.333007812 510.413085938 209.9609375 514.327148438 c 1
 284.282226562 511.595703125 358.986328125 510.182617188 433.203125 513.190429688 c 1
 464.6171875 519.119140625 483.150390625 540.030273438 512.01953125 520.413085938 c 1
 541.75 516.57421875 552.37109375 482.688476562 569.328125 463.345703125 c 1
 572.57421875 388.41796875 518.549804688 354.06640625 460.48828125 306.825195312 c 1
 399.723632812 234.1171875 323.211914062 173.198242188 262.579101562 100.501953125 c 1
 278.391601562 69.8876953125 341.956054688 92.3623046875 375.235351562 84.888671875 c 1
 455.4453125 84.962890625 535.354492188 95.5791015625 615.426757812 96.2626953125 c 1
 668.446289062 92.5498046875 637.287109375 38.8154296875 600.208007812 23.2041015625 c 0
 557.359375 5.1640625 513.130859375 2.3193359375 469.594726562 -5.1240234375 c 1
 363.631835938 -11.9150390625 255.038085938 -22.8486328125 159.298828125 0.14453125 c 1
EndSplineSet
EndChar

StartChar: zero
Encoding: 48 48 52
Width: 700
VWidth: 0
Flags: HW
LayerCount: 2
Fore
SplineSet
586.703125 75.8466796875 m 0
 501.393554688 -13.8271484375 453.560546875 -31.5908203125 430.63671875 -36.2099609375 c 1
 353.90234375 -43.123046875 255.618164062 -43.2236328125 148.685546875 66.89453125 c 0
 41.751953125 177.012695312 30.734375 280.122070312 28.494140625 365.229492188 c 1
 36.57421875 439.520507812 60.1015625 513.201171875 102.423828125 575.192382812 c 0
 135.551757812 625.255859375 170.03125 677.141601562 218.712890625 713.223632812 c 1
 261.638671875 740.151367188 303.814453125 769.706054688 356.008789062 772.59765625 c 1
 415.772460938 771.28515625 483.55859375 759.69921875 523.533203125 714.115234375 c 1
 567.864257812 673.461914062 624.036132812 629.568359375 656.190429688 456.884765625 c 0
 688.344726562 284.201171875 672.012695312 165.521484375 586.703125 75.8466796875 c 0
261.01171875 130.803710938 m 0
 305.559570312 90.095703125 384.475585938 92.5166015625 449.895507812 139.279296875 c 0
 515.315429688 186.041992188 525.78515625 235.481445312 528.715820312 281.93359375 c 1
 540.072265625 367.271484375 536.517578125 457.530273438 504.599609375 538.38671875 c 1
 483.290039062 584.811523438 456.072265625 645.903320312 397.163085938 649.122070312 c 1
 333.427734375 636.958007812 266.692382812 618.077148438 208.53515625 519.567382812 c 0
 150.377929688 421.057617188 153.0234375 352.053710938 152.573242188 303.3515625 c 1
 181.98828125 227.958984375 209.790039062 176.323242188 261.01171875 130.803710938 c 0
EndSplineSet
EndChar

StartChar: one
Encoding: 49 49 53
Width: 770
VWidth: 0
Flags: HW
LayerCount: 2
Fore
SplineSet
394.12109375 762.810546875 m 0
 433.819335938 761.748046875 471.682617188 737.751953125 483.643554688 699.569335938 c 0
 485.267578125 694.3984375 484.927734375 688.634765625 482.70703125 683.690429688 c 0
 473.923828125 664.145507812 463.689453125 635.466796875 463.118164062 613.862304688 c 0
 463.108398438 613.41015625 463.084960938 612.959960938 463.048828125 612.509765625 c 0
 451.991210938 485.7734375 450.7578125 357.14453125 439.16015625 228.141601562 c 0
 439.149414062 228.026367188 439.134765625 227.911132812 439.125 227.794921875 c 0
 437.771484375 181.9609375 434.393554688 137.166992188 435.76171875 93.720703125 c 1
 439.53515625 93.2802734375 444.8046875 93.4365234375 452.30078125 94.587890625 c 0
 513.173828125 104.141601562 581.31640625 107.760742188 645.723632812 110.455078125 c 1
 664.4375 109.303710938 684.9765625 103.67578125 702.23828125 89.375 c 1
 714.647460938 83.9267578125 723.921875 73.3037109375 727.963867188 62.2275390625 c 0
 732.538085938 49.6943359375 732.064453125 36.9091796875 728.345703125 25.2333984375 c 0
 724.626953125 13.556640625 717.370117188 2.33984375 705.254882812 -4.8271484375 c 0
 694.248046875 -11.337890625 679.194335938 -12.68359375 665.590820312 -8.0859375 c 1
 600.107421875 0.2890625 512.963867188 -24.0068359375 438.825195312 -33.7919921875 c 1
 333.446289062 -53.439453125 238.42578125 -53.7607421875 131.588867188 -50.3740234375 c 0
 130.56640625 -50.33984375 129.546875 -50.2353515625 128.538085938 -50.0615234375 c 0
 127.607421875 -50.3427734375 126.74609375 -50.59375 124.620117188 -51.310546875 c 0
 121.649414062 -52.310546875 118.1796875 -53.884765625 111.41015625 -54.2568359375 c 0
 108.026367188 -54.443359375 103.3359375 -54.3125 97.888671875 -51.7265625 c 0
 97.6982421875 -51.6357421875 97.5234375 -51.4765625 97.333984375 -51.3798828125 c 0
 87.775390625 -49.91796875 78.9072265625 -45.943359375 72.197265625 -40.4228515625 c 0
 63.419921875 -33.203125 57.9482421875 -24.2822265625 53.890625 -15.5986328125 c 0
 45.7763671875 1.76953125 42.5888671875 19.8369140625 39.501953125 31.2421875 c 0
 38.953125 33.2841796875 38.6953125 35.404296875 38.7392578125 37.5185546875 c 0
 39.03125 53.61328125 46.244140625 70.0986328125 59.23046875 77.91015625 c 0
 72.2158203125 85.7216796875 85.0849609375 85.009765625 96.05078125 83.5615234375 c 0
 117.983398438 80.666015625 140.358398438 72.9970703125 144.764648438 72.8486328125 c 0
 144.845703125 72.8486328125 144.926757812 72.8486328125 145.006835938 72.8486328125 c 0
 202.03515625 70.2646484375 258.930664062 69.5390625 313.12890625 78.4306640625 c 1
 318.78515625 99.8544921875 313.927734375 132.901367188 319.0234375 168.75 c 1
 320.063476562 233.041992188 328.444335938 295.368164062 332.12890625 356.599609375 c 0
 332.135742188 356.80859375 332.15625 357.014648438 332.1640625 357.223632812 c 0
 334.916015625 444.791015625 341.138671875 531.4921875 342.704101562 617.606445312 c 1
 341.037109375 616.981445312 339.54296875 616.508789062 337.641601562 615.629882812 c 0
 325.354492188 609.94921875 311.59765625 600.092773438 294.544921875 594.723632812 c 1
 265.543945312 575.4609375 213.842773438 555.190429688 194.376953125 537.466796875 c 1
 188.502929688 529.041992188 179.8046875 522.616210938 170.626953125 520.234375 c 0
 159.6171875 517.376953125 149.108398438 519.06640625 139.977539062 522.662109375 c 0
 121.715820312 529.852539062 106.353515625 544.78125 100.798828125 566.174804688 c 0
 100.614257812 566.872070312 100.463867188 567.578125 100.34765625 568.2890625 c 0
 98.87109375 577.637695312 95.4423828125 595.278320312 99.654296875 614.71484375 c 0
 101.760742188 624.432617188 106.206054688 635.127929688 114.91015625 643.838867188 c 0
 122.827148438 651.760742188 133.993164062 657.0234375 146.42578125 659.12890625 c 1
 171.903320312 666.961914062 220.127929688 694.881835938 251.899414062 707.579101562 c 1
 298.112304688 732.133789062 345.772460938 739.475585938 382.645507812 760.001953125 c 0
 386.12890625 761.9375 390.137695312 762.91796875 394.12109375 762.810546875 c 0
EndSplineSet
EndChar

StartChar: two
Encoding: 50 50 54
Width: 740
VWidth: 0
Flags: HW
LayerCount: 2
Fore
SplineSet
349.713867188 781.831054688 m 0
 379.430664062 781.625976562 409.112304688 779.596679688 438.432617188 775.893554688 c 0
 438.553710938 775.87890625 438.75 775.8515625 438.870117188 775.831054688 c 0
 473.88671875 769.736328125 506.916015625 755.48046875 533.276367188 730.237304688 c 1
 579.580078125 695.668945312 608.23828125 635.454101562 593.026367188 576.893554688 c 0
 593.013671875 576.841796875 593.0078125 576.7890625 592.995117188 576.737304688 c 0
 579.333984375 520.209960938 552.037109375 465.8671875 511.588867188 423.362304688 c 1
 478.963867188 376.88671875 436.978515625 339.177734375 401.432617188 297.768554688 c 0
 401.381835938 297.70703125 401.297851562 297.609375 401.245117188 297.549804688 c 0
 346.810546875 238.03515625 289.537109375 181.427734375 231.932617188 125.362304688 c 1
 356.926757812 128.961914062 482.708984375 142.673828125 609.307617188 133.331054688 c 0
 609.341796875 133.331054688 609.3984375 133.33203125 609.432617188 133.33203125 c 0
 609.466796875 133.33203125 609.5234375 133.331054688 609.557617188 133.331054688 c 0
 626.525390625 131.631835938 648.7109375 126.390625 666.776367188 115.549804688 c 0
 675.809570312 110.12890625 683.900390625 103.217773438 689.213867188 94.1435546875 c 0
 694.321289062 85.421875 696.366210938 74.58203125 694.120117188 63.1123046875 c 1
 694.151367188 63.1123046875 l 1
 693.557617188 54.4931640625 691.610351562 46.2822265625 685.401367188 40.2998046875 c 0
 679.583007812 34.6943359375 670.7578125 33.2578125 661.713867188 34.9873046875 c 1
 566.606445312 32.7109375 471.544921875 31.8388671875 377.463867188 22.6123046875 c 0
 377.360351562 22.5986328125 377.254882812 22.5947265625 377.151367188 22.5810546875 c 0
 303.279296875 12.904296875 229.151367188 8.556640625 156.682617188 -3.2314453125 c 0
 156.614257812 -3.25 156.501953125 -3.27734375 156.432617188 -3.2939453125 c 0
 147.07421875 -4.5712890625 133.291015625 -9.4580078125 119.088867188 -11.9814453125 c 0
 105.58984375 -14.3798828125 90.0546875 -14.3193359375 78.3701171875 -4.1376953125 c 1
 66.1396484375 0.1962890625 59.326171875 10.28125 56.2138671875 19.9560546875 c 0
 52.921875 30.1884765625 51.703125 40.5703125 47.6826171875 50.3623046875 c 0
 47.583984375 50.599609375 47.4443359375 50.9912109375 47.3701171875 51.2373046875 c 0
 40.6025390625 74.19140625 49.1630859375 92.4697265625 60.7763671875 105.737304688 c 0
 72.3896484375 119.00390625 86.4765625 129.42578125 94.7138671875 141.456054688 c 0
 94.91015625 141.747070312 95.259765625 142.1953125 95.4951171875 142.456054688 c 0
 170.206054688 224.127929688 249.440429688 301.208984375 326.901367188 379.549804688 c 1
 376.663085938 441.641601562 435.6015625 494.68359375 475.432617188 561.049804688 c 0
 475.436523438 561.057617188 475.428710938 561.073242188 475.432617188 561.081054688 c 0
 482.561523438 575.909179688 493.453125 591.821289062 499.588867188 606.862304688 c 0
 502.709960938 614.513671875 504.541015625 621.760742188 504.463867188 628.143554688 c 0
 504.388671875 634.349609375 502.764648438 639.770507812 498.338867188 645.393554688 c 1
 463.53515625 677.283203125 409.953125 673.545898438 360.776367188 675.049804688 c 0
 303.25390625 676.8828125 244.396484375 664.59765625 196.026367188 634.081054688 c 1
 168.884765625 612.581054688 145.885742188 579.16796875 107.620117188 565.268554688 c 0
 106.798828125 564.97265625 105.423828125 564.733398438 104.55078125 564.733398438 c 0
 104.126953125 564.733398438 103.444335938 564.791015625 103.026367188 564.862304688 c 0
 80.2900390625 568.641601562 66.1533203125 587.7578125 58.9638671875 608.268554688 c 0
 51.7744140625 628.779296875 50.490234375 651.6015625 54.1513671875 669.112304688 c 0
 54.45703125 670.575195312 55.5625 672.619140625 56.6201171875 673.674804688 c 0
 111.975585938 729.060546875 187.075195312 757.333984375 259.651367188 776.518554688 c 0
 259.974609375 776.600585938 260.506835938 776.698242188 260.838867188 776.737304688 c 0
 290.250976562 780.411132812 319.99609375 782.036132812 349.713867188 781.831054688 c 0
EndSplineSet
EndChar

StartChar: three
Encoding: 51 51 55
Width: 800
VWidth: 0
Flags: HW
LayerCount: 2
Fore
SplineSet
323.35546875 -2.3349609375 m 1
 242.905273438 5.9677734375 165.974609375 32.736328125 90.08984375 59.2568359375 c 1
 54.8095703125 79.0166015625 44.4150390625 126.09375 39.9599609375 163.509765625 c 1
 95.85546875 224.0625 166.213867188 120.072265625 221.979492188 108.314453125 c 0
 341.409179688 83.9033203125 468.713867188 86.9775390625 584.256835938 127.6640625 c 1
 622.622070312 145.619140625 648.541992188 161.918945312 649.662109375 192.625976562 c 0
 651.02734375 230.0703125 613.41015625 264.795898438 575.889648438 277.436523438 c 1
 529.692382812 299.323242188 493.03515625 313.017578125 442.283203125 318.794921875 c 1
 389.265625 330.100585938 334.771484375 331.5078125 281.5 340.243164062 c 1
 230.258789062 363.297851562 225.106445312 401.7734375 224.431640625 431.010742188 c 1
 207.743164062 461.61328125 270.267578125 467.504882812 293.369140625 466.747070312 c 1
 359.36328125 474.118164062 426.118164062 486.735351562 484.397460938 520.208007812 c 1
 524.525390625 539.55078125 574.166992188 565.202148438 569.3046875 604.874023438 c 0
 565.20703125 638.311523438 516.795898438 647.76953125 482.627929688 656.83984375 c 1
 416.022460938 667.516601562 346.6953125 668.73828125 280.479492188 654.913085938 c 0
 241.987304688 647.390625 207.134765625 630.975585938 175.385742188 608.581054688 c 0
 143.704101562 586.997070312 108.998046875 618.442382812 97.8251953125 644.678710938 c 0
 87.517578125 668.881835938 79.330078125 725.057617188 123.396484375 719.340820312 c 1
 215.807617188 755.791015625 315.59375 771.264648438 414.739257812 766.283203125 c 1
 514.98046875 766.212890625 617.391601562 715.956054688 671.9375 630.637695312 c 1
 692.229492188 590.764648438 678.721679688 540.112304688 655.2890625 504.420898438 c 1
 618.177734375 456.333984375 563.6484375 424.477539062 506.729492188 405.29296875 c 1
 536.56640625 396.491210938 583.010742188 377.73046875 613.713867188 371.672851562 c 1
 683.529296875 343.61328125 700.421875 327.671875 744.064453125 264.15625 c 1
 768.446289062 232.768554688 764.7109375 144.100585938 734.2890625 111.48828125 c 1
 682.782226562 51.85546875 660.81640625 32.62890625 585.931640625 10.5439453125 c 1
 499.692382812 -5.6298828125 410.79296875 -15.0166015625 323.35546875 -2.3349609375 c 1
EndSplineSet
EndChar

StartChar: four
Encoding: 52 52 56
Width: 790
VWidth: 0
Flags: HW
LayerCount: 2
Fore
SplineSet
337.888671875 781.295898438 m 0
 360.774414062 780.296875 382.0859375 769.140625 391.583007812 753.103515625 c 1
 425.1328125 739.389648438 451.815429688 708.756835938 452.622070312 673.090820312 c 0
 452.6328125 672.854492188 452.6328125 672.618164062 452.622070312 672.381835938 c 0
 448.29296875 604.399414062 460.862304688 535.520507812 462.435546875 483.651367188 c 0
 464.008789062 431.78125 463.450195312 422.286132812 463.904296875 414.607421875 c 0
 464.358398438 406.928710938 466.424804688 401.586914062 467.509765625 400.510742188 c 0
 468.052734375 399.973632812 468.036132812 399.866210938 469.461914062 399.770507812 c 0
 470.887695312 399.674804688 473.885742188 400.009765625 478.328125 401.713867188 c 0
 479.681640625 402.2421875 481.165039062 402.4765625 482.629882812 402.392578125 c 0
 489.37890625 401.951171875 565.399414062 416.178710938 675.337890625 416.451171875 c 0
 756.629882812 416.723632812 744.821289062 389.05078125 751.0078125 370.241210938 c 0
 754.16015625 360.659179688 754.229492188 349.909179688 748.295898438 340.784179688 c 0
 742.361328125 331.658203125 731.234375 325.354492188 715.873046875 322.400390625 c 0
 715.78515625 322.377929688 715.697265625 322.357421875 715.608398438 322.337890625 c 0
 625.317382812 307.23828125 550.728515625 308.500976562 467.444335938 294.958007812 c 1
 470.623046875 198.765625 473.943359375 102.569335938 477.137695312 6.3701171875 c 1
 480.848632812 -14.0576171875 468.12109375 -31.505859375 451.200195312 -40.3603515625 c 0
 433.848632812 -49.44140625 411.422851562 -51.4404296875 393.303710938 -41.7177734375 c 0
 393.180664062 -41.6484375 393.05859375 -41.576171875 392.939453125 -41.501953125 c 0
 373.364257812 -29.8466796875 364.245117188 -11.3349609375 360.881835938 7.326171875 c 0
 357.532226562 25.908203125 359.236328125 45.173828125 361.013671875 61.61328125 c 0
 361.016601562 61.685546875 361.044921875 61.7578125 361.046875 61.830078125 c 0
 363.671875 134.268554688 366.633789062 206.811523438 357.506835938 277.931640625 c 1
 348.408203125 287.14453125 334.407226562 288.651367188 266.077148438 285.884765625 c 0
 197.74609375 283.118164062 139.530273438 282.6953125 81.390625 285.087890625 c 0
 79.0546875 285.189453125 76.771484375 286.119140625 75.1044921875 287.6484375 c 0
 61.7900390625 299.798828125 50.0712890625 316.275390625 43.1455078125 334.409179688 c 0
 36.2197265625 352.543945312 34.0546875 372.624023438 41.65625 390.979492188 c 0
 42.1162109375 392.067382812 42.8056640625 393.068359375 43.6748046875 393.91015625 c 0
 67.7119140625 417.40234375 81.0458984375 450.521484375 105.243164062 479.537109375 c 1
 151.875 549.750976562 201.108398438 606.2734375 244.426757812 670.19140625 c 0
 267.204101562 703.833007812 298.95703125 730.686523438 300.900390625 765.997070312 c 0
 301.052734375 768.709960938 302.612304688 771.323242188 305.002929688 772.875976562 c 0
 315.0703125 779.438476562 326.776367188 781.78125 337.888671875 781.295898438 c 0
347.184570312 604.459960938 m 1
 347.008789062 604.10546875 346.869140625 603.91796875 346.688476562 603.53515625 c 0
 346.395507812 602.923828125 346.028320312 602.342773438 345.596679688 601.807617188 c 0
 322.76953125 573.203125 298.48828125 545.331054688 274.400390625 516.705078125 c 0
 274.346679688 516.6328125 274.2890625 516.5625 274.235351562 516.489257812 c 0
 243.18359375 474.381835938 214.022460938 431.030273438 186.19921875 386.939453125 c 1
 242.484375 387.4140625 298.514648438 386.123046875 353.5703125 390.517578125 c 1
 363.056640625 455.325195312 351.079101562 522.484375 348.14453125 590.1484375 c 0
 348.130859375 590.518554688 348.141601562 590.889648438 348.176757812 591.258789062 c 0
 348.493164062 594.866210938 348.041015625 600.045898438 347.184570312 604.459960938 c 1
EndSplineSet
EndChar

StartChar: five
Encoding: 53 53 57
Width: 700
VWidth: 0
Flags: HW
LayerCount: 2
Fore
SplineSet
369.59765625 774.518554688 m 0
 435.752929688 774.694335938 501.819335938 768.065429688 566.69140625 757.112304688 c 0
 567.138671875 757.041015625 567.852539062 756.873046875 568.28515625 756.737304688 c 0
 600.76171875 746.056640625 637.922851562 721.453125 644.50390625 683.018554688 c 0
 644.59375 682.502929688 644.666015625 681.658203125 644.666015625 681.134765625 c 0
 644.666015625 680.173828125 644.42578125 678.651367188 644.12890625 677.737304688 c 0
 637.306640625 657.057617188 619.463867188 645.678710938 601.31640625 643.112304688 c 0
 583.944335938 640.655273438 565.810546875 644.784179688 550.94140625 653.299804688 c 1
 509.247070312 661.809570312 465.809570312 665.056640625 422.47265625 671.174804688 c 1
 354.57421875 671.463867188 286.434570312 667.493164062 223.62890625 644.643554688 c 0
 222.850585938 644.361328125 221.547851562 644.08203125 220.72265625 644.018554688 c 0
 203.454101562 642.690429688 193.383789062 635.772460938 186.34765625 624.956054688 c 0
 179.311523438 614.139648438 175.920898438 598.599609375 176.37890625 581.487304688 c 0
 176.3828125 581.379882812 176.385742188 581.204101562 176.385742188 581.096679688 c 0
 176.385742188 580.754882812 176.354492188 580.202148438 176.31640625 579.862304688 c 0
 171.096679688 537.686523438 164.953125 495.903320312 161.87890625 454.268554688 c 1
 199.2734375 463.666992188 236.991210938 482.170898438 280.34765625 485.268554688 c 1
 322.38671875 493.891601562 363.930664062 482.946289062 401.62890625 479.143554688 c 0
 401.689453125 479.135742188 401.787109375 479.12109375 401.84765625 479.112304688 c 0
 439.744140625 474.61328125 475.33203125 461.557617188 508.47265625 445.268554688 c 0
 508.629882812 445.1953125 508.881835938 445.069335938 509.03515625 444.987304688 c 0
 576.036132812 407.297851562 634.36328125 347.456054688 657.41015625 271.643554688 c 0
 657.569335938 271.126953125 657.750976562 270.2734375 657.81640625 269.737304688 c 0
 661.984375 233.952148438 662.573242188 193.149414062 639.19140625 159.581054688 c 0
 639.095703125 159.418945312 638.974609375 159.2734375 638.87890625 159.112304688 c 0
 638.80859375 159.01171875 638.762695312 158.899414062 638.69140625 158.799804688 c 0
 586.203125 70.603515625 496.270507812 8.376953125 399.47265625 -20.2626953125 c 0
 399.352539062 -20.2998046875 399.15625 -20.35546875 399.03515625 -20.3876953125 c 0
 366.553710938 -28.611328125 333.217773438 -28.3935546875 301.12890625 -24.7939453125 c 0
 300.903320312 -24.767578125 300.5390625 -24.7119140625 300.31640625 -24.6689453125 c 0
 254.373046875 -16.03125 207.118164062 -0.421875 168.53515625 29.0498046875 c 0
 168.291992188 29.236328125 167.9140625 29.55859375 167.69140625 29.7685546875 c 0
 153.556640625 43.01171875 142.194335938 58.0869140625 136.75390625 76.3310546875 c 0
 131.313476562 94.5751953125 132.12109375 115.47265625 140.34765625 138.987304688 c 0
 141.575195312 142.501953125 145.565429688 145.764648438 149.25390625 146.268554688 c 0
 160.301757812 147.790039062 170.116210938 145.577148438 177.44140625 140.831054688 c 0
 184.766601562 136.084960938 189.447265625 129.741210938 193.66015625 123.831054688 c 0
 202.084960938 112.009765625 208.314453125 101.5546875 224.75390625 95.8310546875 c 0
 260.578125 83.3583984375 301.698242188 83.470703125 341.97265625 83.5810546875 c 1
 414.758789062 92.2099609375 484.514648438 133.961914062 527.44140625 189.768554688 c 0
 527.500976562 189.846679688 527.598632812 189.97265625 527.66015625 190.049804688 c 0
 550.139648438 217.348632812 555.250976562 248.956054688 535.28515625 283.612304688 c 1
 510.01171875 318.840820312 484.533203125 339.544921875 445.22265625 354.924804688 c 1
 383.861328125 375.45703125 320.490234375 378.415039062 257.41015625 366.549804688 c 1
 224.375 354.66015625 192.203125 341.4765625 151.09765625 308.893554688 c 0
 127.845703125 290.461914062 103.258789062 284.135742188 82.75390625 287.268554688 c 0
 62.2490234375 290.400390625 45.2841796875 303.772460938 41.34765625 322.831054688 c 0
 41.30859375 322.994140625 41.2529296875 323.259765625 41.22265625 323.424804688 c 0
 35.4599609375 362.419921875 51.0361328125 395.87109375 52.00390625 427.456054688 c 0
 52.0068359375 427.645507812 52.0205078125 427.954101562 52.03515625 428.143554688 c 0
 58.828125 501.388671875 77.6484375 572.454101562 69.19140625 642.362304688 c 0
 69.15625 642.6875 69.1279296875 643.217773438 69.1279296875 643.544921875 c 0
 69.1279296875 643.588867188 69.1279296875 643.661132812 69.12890625 643.706054688 c 0
 69.1572265625 651.969726562 69.4150390625 675.62109375 74.87890625 696.768554688 c 0
 77.611328125 707.341796875 81.3828125 717.577148438 89.16015625 725.299804688 c 0
 96.3779296875 732.466796875 108.521484375 735.459960938 119.94140625 731.706054688 c 1
 154.7578125 731.208007812 190.84375 740.525390625 223.37890625 754.987304688 c 0
 223.896484375 755.217773438 224.764648438 755.51171875 225.31640625 755.643554688 c 0
 262.307617188 764.416015625 300.733398438 774.166015625 341.22265625 774.018554688 c 0
 341.368164062 774.0234375 341.514648438 774.013671875 341.66015625 774.018554688 c 0
 350.959960938 774.319335938 360.287109375 774.494140625 369.59765625 774.518554688 c 0
EndSplineSet
EndChar

StartChar: six
Encoding: 54 54 58
Width: 720
VWidth: 0
Flags: HW
LayerCount: 2
Fore
SplineSet
424.088867188 782.674804688 m 0
 458.491210938 780.944335938 486.0625 748.942382812 503.432617188 727.643554688 c 0
 504.5703125 726.248046875 505.493164062 723.655273438 505.493164062 721.854492188 c 0
 505.493164062 721.262695312 505.381835938 720.313476562 505.245117188 719.737304688 c 0
 500.137695312 698.170898438 486.002929688 683.486328125 468.870117188 676.456054688 c 0
 452.401367188 669.698242188 433.475585938 669.493164062 415.495117188 673.862304688 c 1
 381.754882812 670.73046875 350.522460938 646.666992188 319.370117188 625.987304688 c 0
 319.31640625 625.947265625 319.266601562 625.90234375 319.213867188 625.862304688 c 0
 262.564453125 583.120117188 213.791992188 529.456054688 184.151367188 465.268554688 c 0
 184.071289062 465.092773438 183.931640625 464.8125 183.838867188 464.643554688 c 0
 165.139648438 431.056640625 147.658203125 383.552734375 142.651367188 345.831054688 c 0
 142.62890625 345.692382812 142.586914062 345.467773438 142.557617188 345.331054688 c 1
 153.715820312 354.568359375 170.702148438 368.931640625 197.182617188 383.768554688 c 0
 197.327148438 383.850585938 197.564453125 383.9765625 197.713867188 384.049804688 c 0
 281.66015625 423.942382812 381.1015625 445.87890625 473.807617188 419.362304688 c 0
 473.96484375 419.315429688 474.216796875 419.231445312 474.370117188 419.174804688 c 0
 522.223632812 401.98828125 567.383789062 384.736328125 603.526367188 351.799804688 c 0
 639.668945312 318.86328125 665.849609375 270.405273438 676.307617188 193.799804688 c 0
 676.317382812 193.73046875 676.331054688 193.619140625 676.338867188 193.549804688 c 0
 679.158203125 168.129882812 676.717773438 138.067382812 668.026367188 110.487304688 c 0
 659.44140625 83.2470703125 644.66015625 58.1572265625 621.463867188 43.8310546875 c 1
 554.344726562 -7.37109375 465.963867188 -31.5771484375 379.213867188 -23.2626953125 c 0
 379.05859375 -23.255859375 378.900390625 -23.23828125 378.745117188 -23.2314453125 c 0
 353.073242188 -22.0556640625 326.512695312 -21.259765625 300.151367188 -15.5126953125 c 0
 299.995117188 -15.4833984375 299.743164062 -15.4267578125 299.588867188 -15.3876953125 c 0
 258.942382812 -3.9189453125 219.380859375 12.2421875 184.432617188 37.5185546875 c 1
 152.787109375 55.3076171875 125.8125 80.43359375 107.807617188 112.581054688 c 1
 72.44140625 161.821289062 49.2314453125 220.02734375 45.2451171875 281.237304688 c 0
 45.2255859375 281.40234375 45.2021484375 281.572265625 45.1826171875 281.737304688 c 0
 35.3486328125 363.711914062 53.1201171875 463.293945312 96.9326171875 535.112304688 c 0
 96.958984375 535.157226562 97 535.19140625 97.0263671875 535.237304688 c 0
 147.374023438 620.651367188 207.829101562 682.966796875 289.526367188 739.143554688 c 0
 290.004882812 739.46875 290.831054688 739.903320312 291.370117188 740.112304688 c 0
 328.416992188 754.704101562 365.5703125 778.841796875 410.432617188 781.393554688 c 0
 414.984375 782.431640625 419.579101562 782.901367188 424.088867188 782.674804688 c 0
423.995117188 338.237304688 m 1
 344.8671875 336.436523438 266.158203125 312.5234375 199.995117188 269.143554688 c 0
 199.422851562 268.766601562 198.428710938 268.291015625 197.776367188 268.081054688 c 0
 187.505859375 264.783203125 173.138671875 252.5703125 165.307617188 238.206054688 c 0
 157.477539062 223.841796875 155.591796875 209.036132812 164.588867188 196.643554688 c 0
 164.984375 196.107421875 165.501953125 195.168945312 165.745117188 194.549804688 c 0
 183.478515625 148.091796875 206.3203125 120.555664062 252.338867188 99.1748046875 c 0
 252.3515625 99.1689453125 252.357421875 99.1494140625 252.370117188 99.1435546875 c 0
 252.401367188 99.12890625 252.432617188 99.1259765625 252.463867188 99.1123046875 c 0
 277.770507812 87.810546875 300.76953125 74.4228515625 328.307617188 76.0185546875 c 0
 328.411132812 76.0224609375 328.579101562 76.0263671875 328.682617188 76.0263671875 c 0
 328.916015625 76.0263671875 329.293945312 76.0087890625 329.526367188 75.9873046875 c 0
 352.11328125 74.283203125 374.84375 74.1259765625 397.432617188 75.5185546875 c 1
 432.711914062 80.1552734375 468.380859375 84.9990234375 498.651367188 99.8310546875 c 0
 499.33203125 100.171875 500.494140625 100.549804688 501.245117188 100.674804688 c 0
 515.212890625 102.879882812 524.8671875 109.337890625 534.745117188 118.643554688 c 0
 544.518554688 127.850585938 554.0703125 139.850585938 566.495117188 151.331054688 c 0
 566.515625 151.352539062 566.537109375 151.372070312 566.557617188 151.393554688 c 0
 591.413085938 177.009765625 590.528320312 217.438476562 566.213867188 247.862304688 c 0
 565.985351562 248.149414062 565.649414062 248.638671875 565.463867188 248.956054688 c 0
 534.228515625 302.504882812 484.337890625 335.166992188 423.995117188 338.237304688 c 1
EndSplineSet
EndChar

StartChar: seven
Encoding: 55 55 59
Width: 720
VWidth: 0
Flags: HW
LayerCount: 2
Fore
SplineSet
196.135742188 74.458984375 m 1
 237.379882812 171.1875 283.291015625 265.868164062 325.528320312 362.166992188 c 1
 360.131835938 424.803710938 393.387695312 488.28515625 430.610351562 549.45703125 c 1
 447.484375 582.881835938 467.377929688 614.684570312 487.079101562 646.361328125 c 1
 396.776367188 651.4453125 306.078125 646.73046875 215.629882812 649.659179688 c 0
 167.223632812 651.938476562 118.649414062 648.682617188 70.3427734375 650.852539062 c 1
 42.8798828125 663.65234375 52.1630859375 698.751953125 42.51171875 723.778320312 c 1
 41.5791015625 735.03125 40.630859375 766.438476562 54.7744140625 767.6953125 c 1
 120.889648438 764.44140625 186.616210938 756.065429688 252.598632812 751.750976562 c 1
 343.561523438 750.453125 435.005859375 748.912109375 525.583007812 758.366210938 c 1
 558.385742188 756.823242188 594.749023438 791.9375 639.780273438 764.373046875 c 0
 684.810546875 736.809570312 686.630859375 693.540039062 662.745117188 673.0703125 c 1
 592.474609375 601.338867188 539.602539062 515.123046875 485.174804688 431.341796875 c 1
 447.255859375 370.0390625 415.904296875 313.528320312 393.006835938 254.874023438 c 1
 378.838867188 222.362304688 363.666015625 190.237304688 351.220703125 157.025390625 c 1
 322.533203125 110.1640625 303.879882812 57.61328125 283.807617188 6.5791015625 c 1
 281.549804688 -34.18359375 235.896484375 -20.7646484375 214.154296875 -7.10546875 c 0
 192.412109375 6.5537109375 175.364257812 41.396484375 196.135742188 74.458984375 c 1
EndSplineSet
EndChar

StartChar: eight
Encoding: 56 56 60
Width: 610
VWidth: 0
Flags: HW
LayerCount: 2
Fore
SplineSet
319.252929688 -12.73046875 m 1
 263.553710938 -11.07421875 206.533203125 -5.1865234375 155.883789062 18.1396484375 c 1
 76.822265625 70.9140625 19.6796875 171.768554688 44.2255859375 267.8046875 c 1
 65.1376953125 325.026367188 113.3125 347.560546875 167.451171875 392.87109375 c 1
 151.712890625 419.112304688 93.2724609375 453.484375 51.3984375 544.6015625 c 0
 9.525390625 635.71875 55.513671875 679.62890625 91.0478515625 710.254882812 c 1
 208.766601562 806.723632812 406.415039062 808.75 508.861328125 688.220703125 c 1
 554.506835938 637.842773438 564.408203125 559.034179688 525.833984375 501.758789062 c 1
 499.163085938 449.916015625 446.704101562 417.20703125 396.900390625 390.748046875 c 1
 340.442382812 372.419921875 400.841796875 351.881835938 424.279296875 328.946289062 c 1
 480.825195312 285.385742188 540.811523438 256.260742188 566.237304688 197.282226562 c 1
 580.94921875 158.041992188 582.55078125 71.3134765625 533.270507812 55.142578125 c 1
 473.688476562 6.5595703125 392.741210938 -2.5107421875 319.252929688 -12.73046875 c 1
407.236328125 237.913085938 m 0
 320.30078125 303.576171875 298.604492188 313.466796875 281.5390625 331.908203125 c 1
 232.0390625 298.185546875 162.97265625 261.0078125 149.801757812 196.643554688 c 1
 142.571289062 145.078125 187.891601562 69.4404296875 320.124023438 86.5478515625 c 1
 468.682617188 103.65625 494.170898438 172.249023438 407.236328125 237.913085938 c 0
287.743164062 437.987304688 m 1
 333.234375 458.348632812 380.799804688 502.869140625 416.58984375 539.6953125 c 1
 460.813476562 566.10546875 433.225585938 679.27734375 312.712890625 677.091796875 c 0
 192.200195312 674.905273438 147.528320312 622.125 144.140625 576.935546875 c 1
 135.578125 527.586914062 252.80078125 444.259765625 287.743164062 437.987304688 c 1
EndSplineSet
EndChar

